<svg width="145" height="40" viewBox="0 0 145 40" fill="none" xmlns="http://www.w3.org/2000/svg">
<path d="M27.2753 13.3355C27.2753 13.3355 27.8653 8.4528 33.5356 4.93805C33.5356 4.93805 38.4258 6.89513 39.2059 13.3355C39.2059 13.3355 46.7363 12.7863 49.5764 17.3695C49.5764 17.3695 48.8964 24.0795 43.9961 25.3476C43.9961 25.3476 45.9562 30.8194 43.7061 35.7021C43.7061 35.7021 40.2859 38.1485 33.5356 33.5553C33.5356 33.5553 29.9154 37.1999 24.0451 36.3512C24.0451 36.3512 21.1449 32.5468 23.065 25.4474C23.065 25.4474 18.3648 22.7814 17.8848 17.1099C17.8848 17.1199 21.795 12.9461 27.2753 13.3355Z" fill="white"/>
<path d="M30.7484 18.8409C30.7484 18.8409 31.0091 16.782 33.514 15.3C33.514 15.3 35.6743 16.1252 36.0189 18.8409C36.0189 18.8409 39.3455 18.6094 40.6001 20.5419C40.6001 20.5419 40.2997 23.3713 38.135 23.9061C38.135 23.9061 39.0009 26.2134 38.0069 28.2723C38.0069 28.2723 36.496 29.3038 33.514 27.367C33.514 27.367 31.9147 28.9038 29.3215 28.5459C29.3215 28.5459 28.0403 26.9418 28.8885 23.9482C28.8885 23.9482 26.8122 22.824 26.6001 20.4325C26.6001 20.4367 28.3275 18.6767 30.7484 18.8409Z" fill="black"/>
<path d="M56.4818 19.0072C55.8518 19.0072 55.2918 18.5778 55.1418 17.9388C54.9718 17.1999 55.4318 16.461 56.1718 16.2912C59.682 15.4824 61.8321 14.0645 62.5722 12.0775C63.4722 9.65112 62.1521 6.76543 61.2821 5.24769L44.2312 15.8718C43.5912 16.2712 42.7411 16.0715 42.3411 15.4325C41.9411 14.7935 42.1311 13.9447 42.7811 13.5453L60.9821 2.21222C61.5921 1.83279 62.3821 1.98257 62.8122 2.55172C62.9822 2.78137 66.9524 8.15336 65.1623 13.0261C64.0922 15.9417 61.2821 17.9388 56.8019 18.9772C56.6918 18.9972 56.5818 19.0072 56.4818 19.0072Z" fill="white"/>
<path d="M51.2618 30.0803C50.5618 30.0803 49.9718 29.5511 49.8918 28.8521C49.8118 28.1032 50.3618 27.4242 51.1118 27.3444C51.1818 27.3344 58.4122 26.5256 60.7823 22.4716C61.8224 20.7043 61.7624 18.4576 60.6023 15.8016C60.3023 15.1026 60.6223 14.2938 61.3124 13.9943C62.0124 13.6947 62.8224 14.0142 63.1225 14.7032C64.6425 18.208 64.6525 21.2834 63.1425 23.8496C60.0623 29.1017 51.7419 30.0204 51.3818 30.0603C51.3618 30.0803 51.3118 30.0803 51.2618 30.0803Z" fill="white"/>
<path d="M47.5717 37.0001C44.2815 37.0001 41.5814 35.752 41.4214 35.6721C40.7313 35.3526 40.4413 34.5338 40.7613 33.8448C41.0913 33.1559 41.9014 32.8663 42.5914 33.1858C42.6814 33.2258 47.2617 35.3027 51.0419 33.5253C53.292 32.4669 54.8821 30.1903 55.7621 26.7654C55.9521 26.0265 56.7022 25.5872 57.4322 25.7769C58.1722 25.9666 58.6123 26.7155 58.4223 27.4444C57.3222 31.708 55.2321 34.5837 52.1919 36.0116C50.6518 36.7505 49.0518 37.0001 47.5717 37.0001Z" fill="white"/>
<path d="M9.12942 19.0068C9.02942 19.0068 8.91941 18.9969 8.81941 18.9669C4.33917 17.9384 1.52902 15.9314 0.458969 13.0158C-1.32112 8.15304 2.63908 2.78106 2.80909 2.5514C3.22911 1.99224 4.00915 1.83247 4.60919 2.19194L24.7002 14.0742C25.3503 14.4636 25.5703 15.3024 25.1803 15.9514C24.7902 16.6004 23.9502 16.8201 23.3002 16.4307L4.34917 5.22741C3.47913 6.74514 2.13906 9.64082 3.0491 12.0872C3.77914 14.0742 5.92926 15.4921 9.44944 16.3009C10.1895 16.4706 10.6495 17.2095 10.4795 17.9484C10.3195 18.5775 9.75946 19.0068 9.12942 19.0068Z" fill="white"/>
<path d="M14.3497 30.0806C14.2997 30.0806 14.2597 30.0806 14.2097 30.0706C13.8597 30.0307 5.52925 29.112 2.44909 23.8599C0.939012 21.2937 0.949012 18.2083 2.46909 14.7135C2.76911 14.0146 3.57915 13.6951 4.27919 14.0046C4.97922 14.3041 5.29924 15.1129 4.98922 15.8119C3.83916 18.4579 3.77916 20.7046 4.80921 22.4819C7.17934 26.5359 14.4097 27.3447 14.4797 27.3547C15.2298 27.4346 15.7798 28.1135 15.6998 28.8624C15.6398 29.5514 15.0498 30.0806 14.3497 30.0806Z" fill="white"/>
<path d="M18.04 37.0001C16.5599 37.0001 14.9599 36.7504 13.4198 36.0215C10.3796 34.5937 8.2895 31.718 7.18945 27.4543C6.99944 26.7154 7.43946 25.9765 8.1795 25.7868C8.91954 25.5971 9.65958 26.0364 9.84959 26.7753C10.7296 30.2002 12.3197 32.4668 14.5698 33.5352C18.37 35.3226 22.9703 33.2157 23.0203 33.1958C23.7103 32.8762 24.5304 33.1658 24.8504 33.8548C25.1704 34.5437 24.8804 35.3525 24.1903 35.682C24.0403 35.7519 21.3402 37.0001 18.04 37.0001Z" fill="white"/>
<path d="M85.5131 11.8H77.9224L74.2002 27.4284H79.7104L80.0028 25.2007L83.309 25.2575L83.5676 27.4284H89.5277L85.5131 11.8ZM80.3065 21.484L81.7684 16.3692L83.2303 21.484H80.3065Z" fill="white"/>
<path d="M140.885 11.8H133.295L129.573 27.4284H135.083L135.375 25.2007L138.681 25.2575L138.94 27.4284H144.9L140.885 11.8ZM135.679 21.484L137.141 16.3692L138.603 21.484H135.679Z" fill="white"/>
<path d="M89.0324 11.8H101.492V17.0284L96.5106 23.0297H101.492V27.4284H86.907L94.9025 16.3692H89.0998L89.0324 11.8Z" fill="white"/>
<path d="M102.527 11.8V22.6433C102.527 25.2916 104.653 27.4284 107.262 27.4284H111.198C113.818 27.4284 115.943 25.2802 115.943 22.6433V11.8H110.444V22.5524C110.444 23.223 109.904 23.7799 109.23 23.7799C108.566 23.7799 108.015 23.2343 108.015 22.5524V11.8H102.527Z" fill="white"/>
<path d="M125.501 11.8H117.112V27.4284H121.959V23.814H123.736L124.287 25.6212L124.838 27.4284H129.404L127.368 22.0864C129.673 21.3135 132.541 14.1869 125.501 11.8ZM123.342 19.6085H121.813V16.3692H123.342C124.231 16.3692 124.95 17.0966 124.95 17.9946C124.95 18.8925 124.231 19.6085 123.342 19.6085Z" fill="white"/>
</svg>
