<svg width="207" height="60" viewBox="0 0 207 60" fill="none" xmlns="http://www.w3.org/2000/svg">
<path d="M38.9648 21.1936C38.9648 21.1936 39.8077 14.2183 47.9081 9.19727C47.9081 9.19727 54.8942 11.9931 56.0085 21.1936C56.0085 21.1936 66.7662 20.4091 70.8236 26.9565C70.8236 26.9565 69.8521 36.5421 62.8517 38.3537C62.8517 38.3537 65.6519 46.1706 62.4374 53.1459C62.4374 53.1459 57.5514 56.6407 47.9081 50.0791C47.9081 50.0791 42.7364 55.2856 34.3503 54.0731C34.3503 54.0731 30.2072 48.6384 32.9502 38.4964C32.9502 38.4964 26.2356 34.6878 25.5498 26.5856C25.5498 26.5998 31.1358 20.6373 38.9648 21.1936Z" fill="#605DF1"/>
<path d="M43.9262 29.0585C43.9262 29.0585 44.2985 26.1172 47.8769 24C47.8769 24 50.9631 25.1789 51.4553 29.0585C51.4553 29.0585 56.2076 28.7277 58 31.4885C58 31.4885 57.5708 35.5305 54.4784 36.2944C54.4784 36.2944 55.7154 39.5906 54.2954 42.5318C54.2954 42.5318 52.137 44.0055 47.8769 41.2386C47.8769 41.2386 45.5923 43.4341 41.8877 42.9228C41.8877 42.9228 40.0574 40.6311 41.2692 36.3546C41.2692 36.3546 38.3029 34.7486 38 31.3321C38 31.3381 40.4677 28.8239 43.9262 29.0585Z" fill="white"/>
<path d="M80.6887 29.2958C79.7887 29.2958 78.9886 28.6824 78.7743 27.7695C78.5315 26.7139 79.1887 25.6584 80.2458 25.4159C85.2604 24.2605 88.332 22.2349 89.3892 19.3963C90.675 15.93 88.7891 11.8076 87.5462 9.63943L63.1878 24.8168C62.2735 25.3873 61.0592 25.1021 60.4877 24.1891C59.9162 23.2762 60.1877 22.0637 61.1163 21.4932L87.1176 5.30305C87.9891 4.761 89.1177 4.97497 89.7321 5.78804C89.9749 6.11612 95.6466 13.7904 93.0894 20.7514C91.5607 24.9166 87.5462 27.7695 81.1459 29.253C80.9887 29.2815 80.8316 29.2958 80.6887 29.2958Z" fill="#605DF1"/>
<path d="M73.231 45.1144C72.2309 45.1144 71.388 44.3583 71.2737 43.3598C71.1595 42.29 71.9452 41.32 73.0167 41.2059C73.1167 41.1916 83.4458 40.0362 86.8317 34.2449C88.3175 31.7201 88.2318 28.5106 86.5745 24.7162C86.1459 23.7177 86.6031 22.5623 87.5889 22.1344C88.5889 21.7065 89.7461 22.1629 90.1747 23.1472C92.3463 28.154 92.3605 32.5474 90.2033 36.2134C85.8031 43.7164 73.9167 45.0288 73.4024 45.0858C73.3739 45.1144 73.3024 45.1144 73.231 45.1144Z" fill="#605DF1"/>
<path d="M67.9597 54.9995C63.2594 54.9995 59.4021 53.2165 59.1735 53.1024C58.1877 52.6459 57.7734 51.4762 58.2306 50.492C58.7021 49.5077 59.8593 49.0941 60.845 49.5505C60.9736 49.6076 67.5168 52.5746 72.9171 50.0355C76.1315 48.5235 78.4031 45.2712 79.6603 40.3785C79.9317 39.323 81.0032 38.6953 82.0461 38.9663C83.1033 39.2374 83.7319 40.3072 83.4605 41.3485C81.889 47.4394 78.9031 51.5476 74.56 53.5874C72.3599 54.6429 70.0741 54.9995 67.9597 54.9995Z" fill="#605DF1"/>
<path d="M13.042 29.2955C12.8992 29.2955 12.742 29.2812 12.5991 29.2384C6.19881 27.7692 2.18432 24.902 0.655669 20.7368C-1.88732 13.7901 3.77011 6.1158 4.01298 5.78772C4.61301 4.98891 5.72736 4.76068 6.58454 5.2742L35.286 22.2489C36.2146 22.8052 36.5289 24.0034 35.9718 24.9306C35.4146 25.8577 34.2145 26.1716 33.2859 25.6153L6.2131 9.61058C4.97018 11.7788 3.05579 15.9155 4.35586 19.4102C5.39877 22.2489 8.47036 24.2744 13.4992 25.4298C14.5564 25.6723 15.2136 26.7279 14.9707 27.7834C14.7421 28.6821 13.9421 29.2955 13.042 29.2955Z" fill="#605DF1"/>
<path d="M20.4996 45.1151C20.4281 45.1151 20.371 45.1151 20.2996 45.1008C19.7995 45.0438 7.89893 43.7315 3.4987 36.2284C1.34145 32.5624 1.35573 28.1547 3.52727 23.1622C3.95587 22.1637 5.11307 21.7072 6.11312 22.1494C7.11317 22.5773 7.57034 23.7328 7.12746 24.7313C5.48452 28.5113 5.3988 31.7208 6.8703 34.2599C10.2562 40.0512 20.5853 41.2067 20.6853 41.2209C21.7568 41.335 22.5425 42.305 22.4282 43.3749C22.3425 44.3591 21.4996 45.1151 20.4996 45.1151Z" fill="#605DF1"/>
<path d="M25.7719 54.9999C23.6575 54.9999 21.3717 54.6433 19.1716 53.602C14.8285 51.5622 11.8426 47.4541 10.2711 41.3631C9.99968 40.3076 10.6283 39.252 11.6855 38.981C12.7427 38.71 13.7999 39.3376 14.0713 40.3932C15.3285 45.2859 17.6001 48.5239 20.8145 50.0502C26.2434 52.6035 32.8151 49.5937 32.8866 49.5652C33.8723 49.1087 35.0438 49.5224 35.501 50.5066C35.9582 51.4909 35.5439 52.6463 34.5581 53.117C34.3438 53.2169 30.4865 54.9999 25.7719 54.9999Z" fill="#605DF1"/>
<path d="M122.161 19H111.317L106 41.3263H113.872L114.289 38.1438L119.013 38.225L119.382 41.3263H127.896L122.161 19ZM114.723 32.8342L116.812 25.5274L118.9 32.8342H114.723Z" fill="#605DF1"/>
<path d="M201.265 19H190.421L185.104 41.3263H192.975L193.393 38.1438L198.116 38.225L198.486 41.3263H207L201.265 19ZM193.827 32.8342L195.915 25.5274L198.004 32.8342H193.827Z" fill="#605DF1"/>
<path d="M127.189 19H144.988V26.4692L137.872 35.0425H144.988V41.3263H124.152L135.574 25.5274H127.285L127.189 19Z" fill="#605DF1"/>
<path d="M146.468 19V34.4904C146.468 38.2737 149.504 41.3263 153.231 41.3263H158.854C162.597 41.3263 165.633 38.2574 165.633 34.4904V19H157.777V34.3605C157.777 35.3185 157.006 36.1141 156.042 36.1141C155.095 36.1141 154.307 35.3347 154.307 34.3605V19H146.468Z" fill="#605DF1"/>
<path d="M179.287 19H167.303V41.3263H174.227V36.1628H176.765L177.552 38.7446L178.339 41.3263H184.862L181.954 33.6948C185.247 32.5906 189.344 22.4098 179.287 19ZM176.203 30.155H174.018V25.5274H176.203C177.472 25.5274 178.5 26.5666 178.5 27.8493C178.5 29.1321 177.472 30.155 176.203 30.155Z" fill="#605DF1"/>
</svg>
