<svg width="160" height="60" viewBox="0 0 160 60" fill="none" xmlns="http://www.w3.org/2000/svg">
<g clip-path="url(#clip0_502_4100)">
<g clip-path="url(#clip1_502_4100)">
<path fill-rule="evenodd" clip-rule="evenodd" d="M18.2 36.7004C9.69468 36.7004 2.80005 29.6485 2.80005 20.9502C2.80005 12.2594 9.70308 5.19941 18.2 5.19995C26.7054 5.19995 33.6 12.2514 33.6 20.9502V38.1797C33.6 40.2901 30.9883 41.2059 29.7226 39.5392L25.9444 34.5659C23.6688 35.9221 21.0234 36.7004 18.2 36.7004ZM12.4208 17.2268H23.7579C24.5741 17.2268 25.2358 16.55 25.2358 15.7153C25.2358 14.8806 24.5741 14.2038 23.7579 14.2038H12.4208C11.6046 14.2038 10.9429 14.8806 10.9429 15.7153C10.9429 16.55 11.6046 17.2268 12.4208 17.2268ZM12.4208 27.3667H23.7579C24.5741 27.3667 25.2358 26.69 25.2358 25.8553C25.2358 25.02 24.5741 24.3432 23.7579 24.3432H12.4208C11.6046 24.3432 10.9429 25.02 10.9429 25.8553C10.9429 26.69 11.6046 27.3667 12.4208 27.3667ZM12.4208 22.2388H18.8564C19.6725 22.2388 20.3343 21.562 20.3343 20.7273C20.3343 19.8926 19.6725 19.2158 18.8564 19.2158H12.4208C11.6046 19.2158 10.9429 19.8926 10.9429 20.7273C10.9429 21.562 11.6046 22.2388 12.4208 22.2388Z" fill="white"/>
</g>
<g clip-path="url(#clip2_502_4100)">
<path d="M44.1176 5.90649L40.8635 13.2796C40.8661 14.1012 40.8698 14.9223 40.876 15.7433C40.8838 16.8655 41.5457 17.4219 42.7627 17.4297C43.1904 17.4323 43.6181 17.4302 44.1176 17.4302V5.90649Z" fill="white"/>
<path d="M42.7315 5.06053C41.5082 5.08445 40.8812 5.63201 40.8745 6.76457C40.8615 8.93609 40.8568 11.1081 40.8636 13.2796L44.1176 5.90657V5.05897C43.628 5.05897 43.18 5.05169 42.7315 5.06053Z" fill="#E5E5E4"/>
<path d="M116.009 14.4491V8.11763C114.911 8.11659 113.812 8.11659 112.714 8.11867V14.4731H108.922V17.4355H119.857V14.4491H116.009Z" fill="#E5E5E4"/>
<path d="M116.009 8.11765C117.061 8.11817 118.113 8.11921 119.165 8.11869C119.396 8.11869 119.626 8.09894 119.849 8.08906V5.14014H108.881C108.881 5.95238 108.916 6.69234 108.87 7.42866C108.835 7.96945 109.023 8.13689 109.627 8.13221C110.656 8.12389 111.685 8.12025 112.714 8.11869C113.812 8.11661 114.911 8.11661 116.009 8.11765Z" fill="white"/>
<path d="M148.239 34.0427C148.789 33.1706 149.341 32.2996 149.893 31.4292C149.143 30.216 147.424 27.6046 146.887 26.7845C146.796 26.6441 146.637 26.4403 146.505 26.4377C145.286 26.4106 144.065 26.4221 142.736 26.4221C144.076 28.4683 146.589 32.2991 148.084 34.5819V34.5809C148.076 34.4025 148.141 34.1992 148.239 34.0427Z" fill="#E5E5E4"/>
<path d="M155.599 26.4081C154.801 26.405 154.074 26.404 153.348 26.4284C153.173 26.4341 152.948 26.6359 152.844 26.7992C151.855 28.3394 150.872 29.8838 149.893 31.4292C149.341 32.2997 148.789 33.1707 148.239 34.0428C148.141 34.1993 148.076 34.4026 148.084 34.581V34.582C148.102 34.9663 148.214 35.3474 148.222 35.7312C148.244 36.7291 148.23 37.727 148.23 38.73H151.529C151.529 37.612 151.496 36.5419 151.546 35.4748C151.565 35.062 151.681 34.6096 151.906 34.2554C153.344 31.9908 154.83 29.7522 156.281 27.4949L156.286 27.4861C156.588 27.0082 156.203 26.4102 155.599 26.4081Z" fill="white"/>
<path d="M46.1031 35.4041C45.8086 36.0338 45.5157 36.6645 45.2233 37.2953H50.2516C49.9841 36.7441 49.6662 36.0868 49.3374 35.4041H46.1031Z" fill="#E5E5E4"/>
<path d="M49.4118 27.8157C49.4441 28.0861 49.4108 28.3575 49.2984 28.5967C48.7682 29.7267 48.2364 30.8561 47.7057 31.9856C48.1396 32.9112 48.7557 34.1971 49.3374 35.4041C49.6662 36.0868 49.9841 36.7441 50.2516 37.2953C50.468 37.742 50.6512 38.1195 50.7802 38.3847C50.8572 38.5417 51.0971 38.731 51.2678 38.7362C52.3375 38.7685 53.4094 38.7523 54.5921 38.7523C53.3495 36.0931 50.9056 30.9882 49.4118 27.8157Z" fill="#E5E5E4"/>
<path d="M47.7056 31.9856C48.2363 30.8562 48.7676 29.7267 49.2983 28.5968C49.4107 28.3576 49.444 28.0861 49.4117 27.8157C49.3415 27.2193 48.9533 26.6265 48.3924 26.3878C47.5282 26.0207 46.6416 26.3842 46.2045 27.3056C45.4932 28.8053 44.7934 30.3097 44.092 31.813C43.0275 34.0953 41.966 36.3781 40.8604 38.7534C41.9572 38.7534 42.939 38.7243 43.9177 38.7654C44.4136 38.7862 44.6113 38.6146 44.796 38.2152C44.9375 37.9084 45.0811 37.6021 45.2232 37.2953C45.5156 36.6646 45.8086 36.0338 46.103 35.4041C46.6353 34.2637 47.1702 33.1249 47.7056 31.9856ZM112.018 38.7794C111.518 38.7794 111.09 38.7815 110.662 38.7789C109.446 38.7711 108.783 38.2142 108.776 37.0925C108.754 34.0994 108.756 31.1068 108.774 28.1137C108.781 26.9811 109.408 26.4336 110.632 26.4096C111.079 26.4008 111.528 26.4081 112.018 26.4081V38.7794Z" fill="white"/>
<path d="M91.3373 37.4222C91.3196 34.1894 91.319 30.9565 91.3388 27.7237C91.3435 26.9619 91.9049 26.4663 92.7369 26.4247C93.0298 26.4102 93.3238 26.4091 93.6235 26.4112C93.3202 26.4086 93.0231 26.4102 92.727 26.4247C91.895 26.4663 91.3331 26.9619 91.3284 27.7237C91.3092 30.9565 91.3097 34.1894 91.3268 37.4222C91.331 38.1767 91.959 38.7342 92.779 38.7721C93.0683 38.7851 93.3139 38.7867 93.5673 38.7846C93.3046 38.7856 93.0465 38.7841 92.7895 38.7721C91.9689 38.7342 91.3414 38.1767 91.3373 37.4222ZM102.705 29.0263C101.191 27.0316 99.257 26.4102 96.401 26.4102C96.401 26.4102 94.7047 26.4232 94.5658 26.4195V29.3471L96.1777 29.3232C96.8307 29.2982 97.7777 29.4038 98.3808 29.6399C99.0067 29.8853 99.6399 30.3206 100.018 30.8291C100.396 31.3372 100.659 32.0506 100.614 32.6522C100.564 33.3251 100.24 34.0557 99.808 34.6142C98.9724 35.6932 97.6617 35.7395 96.2797 35.7743H94.5658V38.7758L96.2797 38.7643C99.2523 38.7643 101.561 38.0171 103.029 35.6844C104.44 33.4416 104.322 31.1562 102.705 29.0263Z" fill="#E5E5E4"/>
<path d="M94.5658 29.3472V26.4201V26.4196C94.2416 26.4196 93.9294 26.4133 93.6235 26.4113C93.3238 26.4092 93.0298 26.4107 92.7369 26.4248C91.9054 26.4664 91.3435 26.9619 91.3388 27.7237C91.319 30.9566 91.32 34.1894 91.3372 37.4223C91.3414 38.1768 91.9689 38.7348 92.7894 38.7722C93.0465 38.7842 93.3045 38.7857 93.5673 38.7847C93.8888 38.7831 94.2182 38.7774 94.5658 38.7774V38.7758V35.7744V29.3472ZM65.7695 29.4153C66.1342 29.5261 66.5609 29.6966 67.026 29.9592C67.32 30.1178 67.4626 30.2255 67.4626 30.2255L69.8607 28.3717C69.8607 28.3717 68.1077 26.1809 64.5103 26.1809C62.7906 26.1809 60.4211 26.9021 58.9481 28.7003C62.1699 28.4705 64.4015 28.9385 65.7695 29.4153Z" fill="white"/>
<path d="M64.5102 35.971C61.2952 35.971 60.9471 33.3715 60.9143 32.5926C60.9471 31.8131 61.2952 29.2141 64.5102 29.2141C64.5102 29.2141 65.0024 29.1824 65.7694 29.4153C64.4015 28.9385 62.1699 28.4705 58.9481 28.7004C58.1431 29.6821 57.6056 30.9852 57.588 32.6685L57.5869 32.669C57.5869 32.683 57.5874 32.6965 57.5874 32.7111C57.5874 32.7251 57.5869 32.7387 57.5869 32.7532H57.588C57.6379 37.5149 61.8509 39.0041 64.5102 39.0041C67.1852 39.0041 69.8606 36.8134 69.8606 36.8134L67.462 34.9596C65.7387 36.0448 64.4535 35.9616 64.5102 35.971ZM78.7039 35.4042C78.4099 36.0339 78.117 36.6647 77.8246 37.2954H82.9044C82.6391 36.7479 82.3206 36.0901 81.9902 35.4042H78.7039ZM82.0386 27.7612C82.0703 28.0316 82.037 28.3031 81.9247 28.5423C81.3945 29.6722 80.8632 30.8017 80.332 31.9311C80.7732 32.8707 81.4012 34.1817 81.9902 35.4042C82.3206 36.0901 82.6391 36.7479 82.9044 37.2954C83.1094 37.7182 83.2832 38.0759 83.407 38.3302C83.4835 38.4878 83.7239 38.6765 83.894 38.6817C84.9643 38.714 86.0362 38.6984 87.2189 38.6984C85.9764 36.0386 83.5324 30.9337 82.0386 27.7612Z" fill="#E5E5E4"/>
<path fill-rule="evenodd" clip-rule="evenodd" d="M78.704 35.4042C78.41 36.034 78.1171 36.6647 77.8246 37.2955C77.6909 37.5841 77.5562 37.8722 77.423 38.1608C77.2382 38.5601 77.04 38.7317 76.5447 38.7109C75.5659 38.6698 74.5836 38.699 73.4868 38.699C74.593 36.3236 75.6544 34.0408 76.719 31.7585C77.4204 30.2552 78.1197 28.7508 78.8309 27.2512C79.268 26.3297 80.1551 25.9662 81.0194 26.3334C81.5803 26.572 81.9684 27.1648 82.0387 27.7613C82.0704 28.0317 82.0371 28.3031 81.9247 28.5423C81.3945 29.6723 80.8633 30.8017 80.332 31.9312C79.7883 33.0882 79.2451 34.2457 78.704 35.4042ZM46.844 51.8082C47.0693 52.103 47.1817 52.4654 47.1817 52.896C47.1817 53.5054 46.945 53.974 46.471 54.3016C45.997 54.6297 45.3065 54.7935 44.3985 54.7935H40.8V47.839H44.1998C45.0479 47.839 45.6988 48.0018 46.153 48.3262C46.6068 48.6507 46.8341 49.0912 46.8341 49.6476C46.8341 49.985 46.7525 50.2866 46.5906 50.5513C46.4278 50.8165 46.2009 51.025 45.9095 51.1774C46.3071 51.3032 46.6187 51.5133 46.844 51.8082ZM42.4005 49.0511V50.6907H44.0005C44.3985 50.6907 44.6998 50.621 44.9053 50.4816C45.1109 50.3428 45.2139 50.1374 45.2139 49.866C45.2139 49.5945 45.1109 49.3907 44.9053 49.255C44.6998 49.1192 44.3985 49.0511 44.0005 49.0511H42.4005ZM45.2383 53.3728C45.4537 53.234 45.5615 53.0187 45.5615 52.727C45.5615 52.1508 45.1343 51.8628 44.2789 51.8628H42.4005V53.5814H44.2789C44.7029 53.5814 45.0229 53.5117 45.2383 53.3728ZM54.1003 49.4484L51.685 55.1216C51.44 55.7373 51.1366 56.171 50.7755 56.4226C50.4139 56.6743 49.9784 56.8002 49.468 56.8002C49.1901 56.8002 48.9149 56.757 48.6433 56.6712C48.3712 56.5849 48.1495 56.4658 47.9773 56.3134L48.5439 55.2105C48.6631 55.3166 48.8004 55.3998 48.956 55.4591C49.1121 55.5189 49.2661 55.5485 49.4185 55.5485C49.6303 55.5485 49.8025 55.497 49.9352 55.3946C50.0679 55.2922 50.1871 55.1216 50.2932 54.8829L50.313 54.8335L47.997 49.4484H49.5975L51.0986 53.0749L52.6096 49.4484H54.1003Z" fill="white"/>
<path fill-rule="evenodd" clip-rule="evenodd" d="M63.0867 54.7935L61.7448 52.8559H60.2635V54.7935H58.6531V47.839H61.6652C62.2818 47.839 62.8166 47.942 63.2709 48.1474C63.7246 48.3528 64.0742 48.6439 64.3193 49.0215C64.5644 49.399 64.6872 49.8462 64.6872 50.3625C64.6872 50.8794 64.5628 51.3245 64.3146 51.6989C64.0659 52.0733 63.7131 52.3593 63.2558 52.558L64.8167 54.7935H63.0867ZM62.6793 49.4635C62.4274 49.2549 62.0596 49.1504 61.5757 49.1504H60.2635V51.5747H61.5757C62.0596 51.5747 62.4274 51.4686 62.6793 51.2564C62.9311 51.0448 63.057 50.7468 63.057 50.3625C63.057 49.972 62.9311 49.672 62.6793 49.4635ZM71.7348 49.4484V54.7935H70.2639V54.1575C70.0584 54.3894 69.8128 54.5667 69.5282 54.6895C69.2431 54.8117 68.935 54.873 68.6036 54.873C67.9012 54.873 67.3444 54.6713 66.9334 54.2672C66.5228 53.8632 66.3173 53.2636 66.3173 52.4685V49.4484H67.8679V52.2403C67.8679 53.1014 68.2295 53.5319 68.9517 53.5319C69.3227 53.5319 69.6208 53.4113 69.8461 53.169C70.0714 52.9277 70.1843 52.5679 70.1843 52.091V49.4484H71.7348ZM77.7393 49.9601C78.1831 50.3542 78.4053 50.9486 78.4053 51.7437V54.7935H76.9536V54.1279C76.6622 54.6245 76.119 54.873 75.3235 54.873C74.9124 54.873 74.5565 54.8033 74.2547 54.6645C73.9535 54.5251 73.723 54.3333 73.5643 54.0883C73.4051 53.8434 73.3254 53.5652 73.3254 53.2537C73.3254 52.7571 73.5128 52.3661 73.8869 52.0812C74.2615 51.7967 74.8396 51.6542 75.6216 51.6542H76.8542C76.8542 51.3162 76.7517 51.0567 76.5462 50.8742C76.3407 50.6922 76.0326 50.6012 75.6216 50.6012C75.337 50.6012 75.0565 50.646 74.7818 50.7354C74.5066 50.8248 74.2729 50.9455 74.0809 51.0978L73.5242 50.0147C73.8156 49.8098 74.1652 49.6507 74.5732 49.5378C74.9806 49.4255 75.3994 49.3694 75.8302 49.3694C76.6591 49.3694 77.2949 49.5664 77.7393 49.9601ZM76.4172 53.6458C76.6222 53.5236 76.7684 53.3432 76.8542 53.1045V52.558H75.7907C75.1544 52.558 74.8364 52.767 74.8364 53.1841C74.8364 53.3827 74.9145 53.5403 75.0701 53.6562C75.2256 53.7717 75.4395 53.8299 75.7111 53.8299C75.9765 53.8299 76.2116 53.7686 76.4172 53.6458ZM85.16 49.9653C85.5674 50.3625 85.7714 50.9522 85.7714 51.7338V54.7935H84.2203V51.9719C84.2203 51.5481 84.1277 51.232 83.942 51.0235C83.7567 50.8144 83.4882 50.7104 83.137 50.7104C82.7458 50.7104 82.4346 50.8311 82.2025 51.0729C81.9705 51.3147 81.8545 51.674 81.8545 52.1508V54.7935H80.3039V49.4484H81.7847V50.0745C81.9903 49.8493 82.2452 49.6756 82.5506 49.5529C82.855 49.4307 83.1896 49.3694 83.5543 49.3694C84.2172 49.3694 84.7521 49.568 85.16 49.9653ZM93.2462 49.4484V53.8996C93.2462 54.8793 92.9913 55.6083 92.4808 56.0852C91.9704 56.562 91.2253 56.8002 90.2445 56.8002C89.7273 56.8002 89.2367 56.7372 88.7731 56.6119C88.309 56.4855 87.925 56.3036 87.6201 56.0649L88.2361 54.9526C88.4614 55.1377 88.7465 55.2854 89.091 55.3946C89.4354 55.5038 89.7804 55.5584 90.1249 55.5584C90.6618 55.5584 91.0578 55.4377 91.3127 55.1959C91.5677 54.9541 91.6957 54.5886 91.6957 54.0982V53.8694C91.2914 54.3135 90.7279 54.535 90.0057 54.535C89.5151 54.535 89.0665 54.4274 88.6586 54.2121C88.2512 53.9973 87.9281 53.6942 87.6898 53.3032C87.451 52.9126 87.3318 52.4623 87.3318 51.9522C87.3318 51.4426 87.451 50.9923 87.6898 50.6012C87.9281 50.2102 88.2512 49.9075 88.6586 49.6923C89.0665 49.477 89.5151 49.3694 90.0057 49.3694C90.781 49.3694 91.371 49.6241 91.7753 50.1343V49.4484H93.2462ZM91.3226 52.9012C91.5849 52.6594 91.7155 52.3432 91.7155 51.9522C91.7155 51.5617 91.5849 51.245 91.3226 51.0037C91.0609 50.7619 90.7248 50.6407 90.3137 50.6407C89.9027 50.6407 89.565 50.7619 89.3002 51.0037C89.0348 51.245 88.9021 51.5617 88.9021 51.9522C88.9021 52.3432 89.0348 52.6594 89.3002 52.9012C89.565 53.1425 89.9027 53.2636 90.3137 53.2636C90.7248 53.2636 91.0609 53.1425 91.3226 52.9012ZM100.702 49.4484V53.8996C100.702 54.8793 100.447 55.6083 99.9364 56.0852C99.426 56.562 98.6804 56.8002 97.7001 56.8002C97.1829 56.8002 96.6923 56.7372 96.2287 56.6119C95.7646 56.4855 95.3806 56.3036 95.0757 56.0649L95.6917 54.9526C95.917 55.1377 96.2021 55.2854 96.5466 55.3946C96.891 55.5038 97.236 55.5584 97.5805 55.5584C98.1174 55.5584 98.5134 55.4377 98.7683 55.1959C99.0233 54.9541 99.1513 54.5886 99.1513 54.0982V53.8694C98.747 54.3135 98.1835 54.535 97.4613 54.535C96.9707 54.535 96.5221 54.4274 96.1142 54.2121C95.7068 53.9973 95.3837 53.6942 95.1454 53.3032C94.9066 52.9126 94.7874 52.4623 94.7874 51.9522C94.7874 51.4426 94.9066 50.9923 95.1454 50.6012C95.3837 50.2102 95.7068 49.9075 96.1142 49.6923C96.5221 49.477 96.9707 49.3694 97.4613 49.3694C98.2366 49.3694 98.8266 49.6241 99.2309 50.1343V49.4484H100.702ZM98.7782 52.9012C99.0405 52.6594 99.1711 52.3432 99.1711 51.9522C99.1711 51.5617 99.0405 51.245 98.7782 51.0037C98.5165 50.7619 98.1804 50.6407 97.7693 50.6407C97.3583 50.6407 97.0206 50.7619 96.7558 51.0037C96.4904 51.245 96.3577 51.5617 96.3577 51.9522C96.3577 52.3432 96.4904 52.6594 96.7558 52.9012C97.0206 53.1425 97.3583 53.2636 97.7693 53.2636C98.1804 53.2636 98.5165 53.1425 98.7782 52.9012ZM108.028 49.4484V54.7935H106.557V54.1575C106.351 54.3894 106.106 54.5667 105.821 54.6895C105.537 54.8117 105.228 54.873 104.897 54.873C104.194 54.873 103.638 54.6713 103.227 54.2672C102.816 53.8632 102.61 53.2636 102.61 52.4685V49.4484H104.161V52.2403C104.161 53.1014 104.522 53.5319 105.245 53.5319C105.616 53.5319 105.914 53.4113 106.14 53.169C106.365 52.9277 106.477 52.5679 106.477 52.091V49.4484H108.028ZM112.198 49.568C112.513 49.4354 112.876 49.3694 113.287 49.3694V50.7999C113.114 50.7869 112.998 50.7796 112.939 50.7796C112.495 50.7796 112.147 50.9039 111.895 51.1524C111.643 51.401 111.518 51.7733 111.518 52.2699V54.7935H109.967V49.4484H111.448V50.154C111.633 49.8956 111.883 49.7001 112.198 49.568ZM120.136 49.4484V54.7935H118.665V54.1575C118.459 54.3894 118.214 54.5667 117.929 54.6895C117.644 54.8117 117.336 54.873 117.004 54.873C116.302 54.873 115.745 54.6713 115.335 54.2672C114.924 53.8632 114.718 53.2636 114.718 52.4685V49.4484H116.269V52.2403C116.269 53.1014 116.63 53.5319 117.352 53.5319C117.723 53.5319 118.022 53.4113 118.247 53.169C118.473 52.9277 118.585 52.5679 118.585 52.091V49.4484H120.136ZM92.1083 14.4243H103.077V17.3732C102.854 17.3831 102.623 17.4024 102.392 17.4029C99.2132 17.4044 96.0336 17.3904 92.8544 17.4159C92.2509 17.4206 92.1119 17.2739 92.0969 16.7123C92.1119 15.9204 92.1083 15.2366 92.1083 14.4243Z" fill="white"/>
<path d="M133.43 10.0712C132.11 9.76698 130.686 9.60474 130.686 8.69266C130.686 8.22778 130.964 7.90434 131.361 7.71558H131.36C131.36 7.71558 128.174 7.71038 127.492 10.6031C128.14 11.484 129.331 12.0394 130.996 12.5043C132.265 12.8485 133.793 13.1121 133.793 14.0247C133.793 14.6529 133.197 15.0788 132.239 15.0788C131.359 15.0788 130.634 14.5109 130.634 13.8017H126.93C126.93 15.9909 128.847 17.7755 132.239 17.7755C135.165 17.7755 137.495 15.9909 137.495 13.8422C137.495 11.9364 136.201 10.7196 133.43 10.0712Z" fill="#E5E5E4"/>
<path d="M131.36 7.71566H131.361C131.639 7.58358 131.975 7.5165 132.317 7.5165C133.378 7.5165 133.922 8.08486 133.922 8.77386H137.496C137.288 6.5233 135.657 4.80054 132.213 4.80054C129.287 4.80054 126.93 6.58414 126.93 8.7333C126.93 9.4925 127.123 10.1009 127.492 10.6032C128.174 7.71046 131.36 7.71566 131.36 7.71566Z" fill="white"/>
<path d="M152.619 5.20557V9.99009H146.534V12.5646H152.619V17.3699H156.4V5.20557H152.619Z" fill="#E5E5E4"/>
<path d="M146.534 5.08094C145.963 5.08094 145.44 5.07366 144.918 5.0825C143.49 5.10642 142.759 5.65294 142.752 6.78394V6.82346C142.741 8.30442 142.735 9.7859 142.735 11.2674C142.735 12.7177 142.741 14.1679 142.753 15.6177C142.753 15.6619 142.753 15.7061 142.754 15.7503C142.763 16.8709 143.535 17.4268 144.954 17.4346C145.453 17.4372 145.952 17.4346 146.534 17.4346V17.3701V5.20574V5.08094Z" fill="white"/>
<path d="M44.1176 14.4948H51.4363V17.4302H44.1176V14.4948ZM44.1176 9.75293H50.6813V12.6795H44.1176V9.75293Z" fill="#E5E5E4"/>
<path d="M51.2417 7.9612H44.1176V5.05908H51.2417V7.9612ZM57.9298 7.67208C57.9101 7.6518 57.8934 7.62788 57.8757 7.60552C57.6556 7.34968 57.5157 7.02364 57.4933 6.66588L57.4886 6.66068V17.5204H60.7312C60.7312 16.1866 60.7349 12.1966 60.7271 10.5986C59.7941 9.62364 58.8617 8.64812 57.9298 7.67208Z" fill="#E5E5E4"/>
<path d="M69.8196 5.85419V5.22083H66.5036V11.9803C65.1227 10.504 63.8911 9.14423 62.6065 7.82759C61.7042 6.90303 61.6028 6.68619 60.2781 5.49955C60.1958 5.40803 60.1043 5.32587 60.0033 5.25515C60.0018 5.25411 60.0002 5.25255 59.9986 5.25099C59.9862 5.24007 59.9659 5.22759 59.9414 5.21459C59.6943 5.05807 59.4024 4.96655 59.0881 4.96655C58.9924 4.96655 58.8992 4.97643 58.8082 4.99255C58.7494 4.99827 58.6973 5.00971 58.6542 5.02739C57.9819 5.21667 57.4886 5.83235 57.4886 6.56451C57.4886 6.96231 57.6349 7.32579 57.8758 7.60555C57.8935 7.62791 57.9101 7.65183 57.9299 7.67211C60.9165 10.801 63.9067 13.9267 66.9032 17.0472C67.5198 17.6899 68.2181 17.8948 68.869 17.6234C69.6141 17.3129 69.8336 16.7435 69.829 16.0166C69.8076 12.6293 69.8196 9.24199 69.8196 5.85419Z" fill="white"/>
<path d="M80.0016 9.96688V12.5102H83.3503C83.2717 13.6719 82.2733 14.833 80.217 14.833C78.2585 14.833 76.7117 13.4311 76.7117 11.2086C76.7117 9.90032 77.2772 8.7688 78.244 8.13232C77.0186 8.66584 75.5467 9.70168 73.801 11.5222C73.9504 14.9563 76.5467 17.6171 80.1582 17.6171C84.4274 17.6171 86.4639 14.6531 86.4639 11.1088V9.96688H80.0016Z" fill="#E5E5E4"/>
<path d="M78.2439 8.13221C78.373 8.04693 78.5093 7.97101 78.6524 7.90445C78.6581 7.90133 78.6644 7.89873 78.6706 7.89613C78.81 7.83165 78.9563 7.77705 79.1082 7.73181C79.1196 7.72869 79.1311 7.72557 79.1425 7.72245C79.2081 7.70373 79.2747 7.68657 79.3428 7.67149C79.3543 7.66889 79.3657 7.66629 79.3777 7.66369C79.4542 7.64757 79.5317 7.63353 79.6108 7.62261C79.6238 7.62053 79.6368 7.61949 79.6498 7.61741C79.7159 7.60909 79.782 7.60233 79.8496 7.59661C79.871 7.59505 79.8923 7.59349 79.9136 7.59245C79.9938 7.58725 80.0755 7.58361 80.1582 7.58361C81.2743 7.58361 82.2733 8.04433 83.0761 8.78533L84.0746 7.84413L85.0736 6.90293C84.688 6.50253 84.2754 6.14685 83.8243 5.84733C83.6443 5.72773 83.4575 5.61645 83.2639 5.51557C83.0704 5.41417 82.8701 5.32265 82.6614 5.24153C82.4533 5.16041 82.2374 5.08969 82.0131 5.02989C81.4517 4.88013 80.8377 4.80005 80.1582 4.80005C80.0432 4.80005 79.9298 4.80317 79.8169 4.80837C79.7789 4.80993 79.7414 4.81409 79.7034 4.81617C79.6295 4.82085 79.5551 4.82501 79.4823 4.83229C79.437 4.83645 79.3928 4.84269 79.348 4.84789C79.2835 4.85517 79.2185 4.86245 79.1545 4.87129C79.1061 4.87857 79.0593 4.88741 79.0114 4.89521C78.9521 4.90509 78.8923 4.91445 78.8335 4.92537C78.784 4.93525 78.7362 4.94669 78.6873 4.95709C78.6316 4.96957 78.5754 4.98101 78.5197 4.99453C78.4703 5.00649 78.4219 5.02053 78.373 5.03353C78.3199 5.04809 78.2663 5.06213 78.2138 5.07773C78.1643 5.09229 78.1154 5.10893 78.0665 5.12505C78.016 5.14117 77.9656 5.15677 77.9161 5.17445C77.8662 5.19213 77.8178 5.21137 77.7684 5.23009C77.721 5.24829 77.6732 5.26545 77.6263 5.28469C77.5769 5.30497 77.5285 5.32681 77.4796 5.34813C77.4349 5.36789 77.3896 5.38765 77.3454 5.40845C77.2959 5.43133 77.2475 5.45577 77.1992 5.48021C77.157 5.50153 77.1143 5.52233 77.0727 5.54417C77.0238 5.57017 76.9759 5.59773 76.9281 5.62477C76.8885 5.64713 76.8485 5.66949 76.8094 5.69289C76.761 5.72149 76.7137 5.75165 76.6663 5.78181C76.6294 5.80521 76.5919 5.82861 76.5555 5.85305C76.5077 5.88477 76.4608 5.91753 76.414 5.95081C76.3797 5.97525 76.3448 5.99969 76.311 6.02465C76.2641 6.05949 76.2178 6.09537 76.172 6.13125C76.1398 6.15673 76.1075 6.18169 76.0763 6.20769C76.03 6.24513 75.9847 6.28413 75.9395 6.32313C75.9098 6.34913 75.8807 6.37461 75.8515 6.40113C75.8063 6.44221 75.762 6.48381 75.7178 6.52593C75.6908 6.55245 75.6637 6.57845 75.6372 6.60497C75.5929 6.64917 75.5497 6.69389 75.5066 6.73965C75.4821 6.76565 75.4577 6.79165 75.4332 6.81869C75.3905 6.86601 75.3484 6.91437 75.3068 6.96273C75.2844 6.98925 75.262 7.01525 75.2407 7.04177C75.1985 7.09273 75.158 7.14421 75.1179 7.19621C75.0976 7.22221 75.0778 7.24821 75.0586 7.27421C75.018 7.32829 74.979 7.38289 74.9405 7.43853C74.9228 7.46401 74.9051 7.48949 74.8879 7.51549C74.8494 7.57269 74.8114 7.63093 74.7745 7.68969C74.7589 7.71465 74.7438 7.73961 74.7287 7.76509C74.6918 7.82593 74.6558 7.88729 74.621 7.94969C74.6075 7.97361 74.5944 7.99805 74.5814 8.02197C74.5466 8.08645 74.5122 8.15145 74.4795 8.21749C74.468 8.24089 74.4571 8.26429 74.4456 8.28717C74.4129 8.35529 74.3811 8.42393 74.3509 8.49309C74.3411 8.51545 74.3317 8.53729 74.3223 8.55965C74.2921 8.63141 74.2625 8.70317 74.2344 8.77649C74.2266 8.79677 74.2193 8.81809 74.2115 8.83837C74.1834 8.91377 74.1569 8.98969 74.1314 9.06613C74.1251 9.08537 74.1194 9.10461 74.1132 9.12385C74.0882 9.20289 74.0637 9.28245 74.0419 9.36305C74.0367 9.38021 74.0325 9.39789 74.0278 9.41505C74.0055 9.49825 73.9846 9.58145 73.9654 9.66621C73.9617 9.68129 73.9591 9.69637 73.9555 9.71093C73.9363 9.79829 73.9186 9.88617 73.903 9.97457C73.9004 9.98705 73.8988 10 73.8967 10.0125C73.8806 10.104 73.8665 10.1961 73.854 10.2892C73.853 10.2985 73.852 10.3079 73.8509 10.3172C73.8384 10.414 73.828 10.5107 73.8197 10.6084C73.8192 10.6142 73.8192 10.6199 73.8187 10.6256C73.8103 10.727 73.8041 10.8294 73.7999 10.9329V10.9334L73.801 11.5174V11.5205C73.801 11.521 73.801 11.5216 73.801 11.5221C75.5466 9.70157 77.0186 8.66573 78.2439 8.13221Z" fill="white"/>
<path d="M95.9145 14.4241H92.1084V5.20557H95.9145V14.4241ZM112.018 35.8429H119.336V38.7783H112.018V35.8429ZM112.018 31.101H118.582V34.0276H112.018V31.101ZM119.142 29.3091H112.018V26.407H119.142V29.3091ZM125.244 27.7231C125.244 27.7268 125.242 27.7294 125.242 27.733V38.7601H128.484V31.7864C127.565 30.813 126.645 29.8411 125.738 28.8583C125.41 28.5026 125.251 28.1043 125.244 27.7231Z" fill="#E5E5E4"/>
<path d="M127.767 26.5516L127.839 26.6208C127.816 26.5969 127.792 26.574 127.767 26.5516ZM139.184 27.6805C139.184 26.8439 138.505 26.1663 137.669 26.1663C137.194 26.1663 136.77 26.3847 136.492 26.7269C136.269 26.9172 136.068 27.1361 135.864 27.354C134.676 28.6285 133.476 29.8926 132.251 31.1931C130.962 29.8313 129.743 28.4964 128.461 27.2136L127.839 26.6208L127.767 26.5516L127.76 26.5449V26.5459C127.493 26.3098 127.142 26.1663 126.758 26.1663C126.749 26.1663 126.742 26.1673 126.734 26.1673C126.68 26.1642 126.642 26.1684 126.617 26.1731C125.881 26.2407 125.299 26.8345 125.248 27.575C125.245 27.6088 125.243 27.6426 125.243 27.6764C125.243 27.6779 125.242 27.679 125.242 27.6805C125.242 27.6831 125.243 27.6863 125.243 27.6889C125.243 27.7003 125.244 27.7117 125.244 27.7232C125.251 28.1043 125.41 28.5021 125.738 28.8583C126.645 29.8411 127.565 30.813 128.484 31.7865C128.534 31.8395 128.584 31.8931 128.634 31.9461C129.827 33.2113 131.022 34.4743 132.248 35.7712C133.455 34.4957 134.612 33.2742 135.909 31.904V38.7316H139.184V38.0343C139.184 34.7323 139.184 31.4303 139.184 28.1283V27.6805Z" fill="white"/>
</g>
</g>
<defs>
<clipPath id="clip0_502_4100">
<rect width="160" height="60" fill="white"/>
</clipPath>
<clipPath id="clip1_502_4100">
<rect width="30.8" height="35.2" fill="white" transform="translate(2.80005 5.19995)"/>
</clipPath>
<clipPath id="clip2_502_4100">
<rect width="115.6" height="52" fill="white" transform="translate(40.8 4.80005)"/>
</clipPath>
</defs>
</svg>
