<svg width="137" height="40" viewBox="0 0 137 40" fill="none" xmlns="http://www.w3.org/2000/svg">
<g clip-path="url(#clip0_504_4834)">
<g clip-path="url(#clip1_504_4834)">
<path d="M14.4624 34.236C14.5983 34.4003 14.7427 34.5574 14.8952 34.7066C14.7458 34.5578 14.6008 34.4013 14.4624 34.236ZM14.4624 34.236C14.5983 34.4003 14.7427 34.5574 14.8952 34.7066C14.7458 34.5578 14.6008 34.4013 14.4624 34.236ZM38.7274 37.9506V36.0134C38.7274 35.9357 38.6175 35.8722 38.4703 35.8722H34.8454V33.355C34.8454 33.2773 34.7356 33.216 34.5895 33.216H31.7148C31.9757 31.3731 32.0889 29.5125 32.0531 27.6517C32.0308 26.5971 31.9472 25.5446 31.8027 24.4996H31.505L29.4652 28.0173C29.9171 28.277 30.3133 28.6229 30.6309 29.0352C30.9486 29.4476 31.1816 29.9183 31.3166 30.4204C31.4516 30.9226 31.4859 31.4463 31.4176 31.9617C31.3492 32.477 31.1796 32.9739 30.9184 33.4239L30.8975 33.4108L21.9176 28.2449L21.8967 28.2329C22.1572 27.7826 22.5042 27.388 22.9178 27.0714C23.3315 26.7549 23.8037 26.5228 24.3075 26.3883C24.8113 26.2538 25.3368 26.2196 25.8539 26.2877C26.3709 26.3557 26.8695 26.5247 27.321 26.7849L28.7358 24.342C29.5008 23.0279 30.1669 21.659 30.7284 20.2465C30.4783 19.6013 30.1764 18.9773 29.8254 18.3805C29.6629 18.1058 29.4959 17.8398 29.3037 17.5804C29.1697 17.3878 29.0247 17.2017 28.8764 17.019C28.7665 16.88 28.6413 16.7442 28.5194 16.6129C26.853 14.807 24.6132 13.7728 21.8451 13.5254V8.31685H26.6531C26.6716 8.317 26.69 8.31348 26.7072 8.30651C26.7244 8.29953 26.74 8.28923 26.7532 8.27621C26.7664 8.26319 26.7768 8.24769 26.784 8.23063C26.7911 8.21356 26.7948 8.19525 26.7948 8.17676V5.70983C26.7946 5.69143 26.7909 5.67325 26.7837 5.6563C26.7765 5.63936 26.766 5.624 26.7528 5.61109C26.7397 5.59818 26.7241 5.58799 26.707 5.58108C26.6899 5.57417 26.6715 5.57069 26.6531 5.57084H21.8451V0.140092C21.8451 0.103126 21.8305 0.0676593 21.8043 0.0414183C21.7782 0.0151772 21.7427 0.000288795 21.7056 0H18.4399C18.4028 0.000288795 18.3673 0.0151772 18.3412 0.0414183C18.315 0.0676593 18.3004 0.103126 18.3004 0.140092V5.57084H13.5935H13.5649C13.5338 5.57798 13.506 5.59538 13.4861 5.62021C13.4662 5.64504 13.4552 5.67585 13.4551 5.70764V8.17457C13.455 8.20642 13.4659 8.23733 13.4859 8.2622C13.5058 8.28707 13.5337 8.30441 13.5649 8.31138C13.5744 8.31262 13.584 8.31262 13.5935 8.31138H18.3004V13.5955C15.5883 13.938 13.4188 14.9471 11.8293 16.6096C11.5955 16.8548 11.3754 17.1128 11.1703 17.3823C11.1208 17.4469 11.0725 17.5115 11.0264 17.5771C9.55772 19.5986 8.93928 22.1268 8.71959 24.4821C8.62547 25.6073 8.60859 26.7376 8.66907 27.8651C8.72468 28.928 8.83467 29.9874 8.9986 31.0391C9.02607 31.2229 9.05463 31.4013 9.08429 31.571C9.1447 31.9289 9.20732 32.2517 9.26554 32.5374C9.31826 32.7946 9.36659 33.0212 9.40943 33.2116H5.64939C5.50879 33.2116 5.39236 33.2729 5.39236 33.3506V35.8679H1.76743C1.62573 35.8679 1.51039 35.9313 1.51039 36.009V37.9463H0V40.0564H40.2378V37.9506H38.7274ZM30.1341 34.7603C30.1341 34.7657 30.1275 34.7734 30.1231 34.7789C30.0946 34.8237 30.0649 34.8708 30.0341 34.9157C29.9419 35.0601 29.8452 35.2013 29.7464 35.3381C29.7112 35.3885 29.6761 35.4388 29.6365 35.487C29.5267 35.6358 29.4168 35.7792 29.307 35.9193C29.2345 36.009 29.1609 36.0955 29.0873 36.1798C28.8607 36.4413 28.6205 36.6908 28.3678 36.9273C28.3271 36.9656 28.2876 37.0028 28.2458 37.0368C28.0822 37.1867 27.9163 37.3268 27.7483 37.4614C27.7065 37.4953 27.6637 37.5271 27.6219 37.5588L27.4945 37.6562C27.4132 37.7175 27.3297 37.7777 27.2452 37.8357L27.1913 37.8729C27.1221 37.9211 27.0507 37.966 26.9804 38.0119C26.4023 38.3872 25.7827 38.695 25.1339 38.9291C25.0449 38.9608 24.9571 38.9915 24.8681 39.0188C24.823 39.0342 24.7791 39.0484 24.7352 39.0604C24.6912 39.0725 24.6462 39.0867 24.6034 39.0987C24.4254 39.1502 24.2496 39.195 24.0739 39.2322C24.0333 39.241 23.9937 39.2498 23.9531 39.2563C23.8795 39.2716 23.8081 39.2859 23.7334 39.2979L23.6334 39.3143L23.5082 39.334C23.4675 39.3395 23.4258 39.3461 23.3841 39.3504L23.2402 39.368L23.0359 39.3877C22.9513 39.3942 22.8667 39.4008 22.7821 39.4041H22.6909C22.4943 39.4106 22.2999 39.4106 22.1098 39.4041C22.0297 39.4041 21.9495 39.3975 21.8704 39.3899C21.7913 39.3822 21.7254 39.3789 21.6507 39.3712L21.5529 39.3592L21.4233 39.3417L21.3135 39.3264C21.2574 39.3187 21.2036 39.3089 21.1465 39.2979C21.0432 39.2782 20.9444 39.2574 20.8455 39.2344C20.7675 39.2147 20.6906 39.195 20.6159 39.1731C20.55 39.1545 20.4863 39.1359 20.4248 39.1151L20.3479 39.09C20.3051 39.0768 20.2633 39.0615 20.2216 39.0451L20.1249 39.009C19.9931 38.9564 19.8657 38.8995 19.7438 38.8404C19.6801 38.8087 19.6163 38.7748 19.5559 38.7408C19.4955 38.7069 19.4461 38.6795 19.3966 38.6456C19.3711 38.6316 19.3465 38.6159 19.323 38.5986C19.1593 38.4955 19.0049 38.3783 18.8617 38.2483C19.8794 38.1782 20.8664 37.8716 21.7439 37.3531C22.6213 36.8346 23.3647 36.1187 23.9146 35.2626C23.952 35.2046 23.9882 35.1455 24.0245 35.0853C24.0607 35.0251 24.1091 34.9398 24.1508 34.8664C22.8731 36.0485 21.1801 36.6826 19.4373 36.6318C19.4021 36.6318 19.3681 36.6318 19.3274 36.6318C19.2868 36.6318 19.2418 36.6318 19.1989 36.6252C19.1561 36.6187 19.1045 36.6198 19.0572 36.6154L18.921 36.6033L18.8298 36.5913C18.7837 36.5913 18.7398 36.5825 18.6936 36.5749C18.6475 36.5672 18.5717 36.5585 18.5113 36.5475C18.3751 36.5256 18.24 36.4994 18.1049 36.4676C18.0422 36.4534 17.9807 36.4381 17.9181 36.4217C17.8555 36.4052 17.7929 36.3888 17.7325 36.3713C17.6501 36.3483 17.5688 36.3243 17.4886 36.2958C17.426 36.2761 17.3645 36.2553 17.303 36.2312C17.2415 36.2071 17.1931 36.1896 17.1338 36.1677C17.0558 36.1371 16.9778 36.1054 16.902 36.0714C16.8263 36.0375 16.7702 36.0134 16.7054 35.9817C16.6406 35.9499 16.5956 35.9291 16.5406 35.8996C16.4857 35.87 16.4308 35.846 16.3792 35.8142C16.344 35.7967 16.3067 35.7759 16.2693 35.7551C16.0284 35.6182 15.7965 35.4662 15.5751 35.2998C15.5202 35.2593 15.4653 35.2177 15.4158 35.1751C15.3664 35.1324 15.3137 35.0941 15.2642 35.0525C15.2522 35.0415 15.2379 35.0306 15.2258 35.0186C15.1753 34.9759 15.1269 34.9332 15.0786 34.8883L14.9523 34.769C14.9325 34.7515 14.9127 34.7318 14.893 34.711C14.7436 34.5622 14.5986 34.4057 14.4602 34.2404C14.2142 33.9434 13.9937 33.6264 13.8011 33.2926C14.449 33.7431 15.1933 34.0369 15.9751 34.1509C16.7568 34.2649 17.5545 34.1959 18.3048 33.9493H18.3136L18.3531 33.935C18.408 33.9175 18.463 33.8967 18.519 33.8759C18.575 33.8551 18.6222 33.8376 18.6728 33.8157C18.8211 33.7544 18.965 33.6855 19.1122 33.6111C19.1781 33.576 19.2418 33.5396 19.3033 33.5016C19.356 33.4721 19.4131 33.4403 19.4604 33.4053C19.5957 33.3205 19.7266 33.2288 19.8525 33.1306C17.716 34.1474 15.6026 33.5432 14.2262 32.1926C14.1361 32.1051 14.0493 32.0131 13.9669 31.9201C13.9241 31.8709 13.8813 31.8216 13.8406 31.7702C13.5816 31.4527 13.3604 31.1064 13.1815 30.7381C13.1519 30.6801 13.1244 30.6199 13.0981 30.5608L13.086 30.5323C13.0552 30.4612 13.0256 30.3901 12.9981 30.3134C12.9783 30.262 12.9597 30.2095 12.941 30.1569C12.9322 30.1296 12.9234 30.1022 12.9135 30.0748C12.844 29.8599 12.7893 29.6405 12.7499 29.4182C12.74 29.3656 12.7323 29.3087 12.7235 29.2606C12.6847 28.9957 12.6685 28.7281 12.6752 28.4605V28.4266C12.6752 28.3839 12.6752 28.3412 12.6817 28.2985C12.6883 28.2558 12.6817 28.2077 12.6916 28.1606C12.6993 28.0698 12.7103 27.9768 12.7257 27.8837C12.7257 27.8443 12.7378 27.8027 12.7444 27.7622C12.7444 27.7491 12.7444 27.7349 12.7532 27.7217C12.7597 27.6845 12.7663 27.6451 12.7751 27.6123C12.7949 27.5204 12.8169 27.4273 12.8432 27.3354C12.8553 27.2894 12.8674 27.2435 12.8828 27.1964C12.9223 27.0683 12.9673 26.9414 13.0201 26.8133C13.0442 26.7553 13.0673 26.6973 13.0948 26.6393C13.1343 26.5518 13.1761 26.4653 13.2211 26.3777C13.3629 26.1091 13.5272 25.8528 13.7121 25.6116C15.217 32.637 18.9661 28.0906 21.5112 29.2835L27.4297 32.6873L26.73 34.4319L28.6984 33.4174L30.3725 34.3805C30.2901 34.5074 30.2121 34.6366 30.1341 34.7603ZM14.4624 34.236C14.5983 34.4003 14.7427 34.5574 14.8952 34.7066C14.7458 34.5578 14.6008 34.4013 14.4624 34.236Z" fill="white"/>
<path fill-rule="evenodd" clip-rule="evenodd" d="M12.0108 40.0563H32.7464L31.5568 36.4314C31.3687 35.8766 31.3652 35.276 31.5468 34.719C31.7285 34.162 32.0856 33.6783 32.5652 33.3396L32.7409 33.2126H31.7172C31.9781 31.3698 32.0913 29.5091 32.0555 27.6483C32.0332 26.5937 31.9496 25.5413 31.8051 24.4963H31.5052L29.4653 28.0172C29.9173 28.2769 30.3134 28.6228 30.6311 29.0352C30.9488 29.4475 31.1818 29.9182 31.3168 30.4204C31.4517 30.9225 31.4861 31.4462 31.4177 31.9616C31.3494 32.477 31.1798 32.9738 30.9186 33.4238L30.8977 33.4107L21.9178 28.2448L21.8969 28.2328C22.1574 27.7825 22.5043 27.3879 22.918 27.0714C23.3317 26.7549 23.8039 26.5227 24.3077 26.3883C24.8115 26.2538 25.337 26.2196 25.854 26.2876C26.3711 26.3557 26.8697 26.5246 27.3211 26.7848L28.736 24.342C29.501 23.0278 30.167 21.6589 30.7286 20.2465C32.7322 15.1878 32.7695 10.7531 30.5352 9.46707C29.3269 8.77537 27.6639 9.10808 25.8492 10.2332C27.0894 9.68596 28.2098 9.61373 29.0699 10.1084C30.879 11.1493 31.0669 14.4381 29.8256 18.3859C29.2513 20.1749 28.4903 21.899 27.5551 23.5299C27.3265 23.2541 27.1531 22.9372 27.0443 22.5963L25.0122 16.3283C24.8323 15.7735 24.4805 15.2899 24.0074 14.9468C23.5343 14.6037 22.9643 14.4189 22.3792 14.4189C21.794 14.4189 21.224 14.6037 20.7509 14.9468C20.2778 15.2899 19.926 15.7735 19.7461 16.3283L17.714 22.5963C17.5392 23.1548 17.1883 23.6423 16.7133 23.9863C16.2384 24.3304 15.6648 24.5127 15.0777 24.5061L8.72417 24.493C8.63005 25.6182 8.61318 26.7485 8.67365 27.876C8.72926 28.9389 8.83925 29.9982 9.00319 31.0499L12.1887 33.3483C12.6683 33.687 13.0254 34.1708 13.2071 34.7278C13.3887 35.2848 13.3852 35.8853 13.1971 36.4402L12.0108 40.0563ZM13.2191 26.3755C13.3609 26.1069 13.5252 25.8506 13.7101 25.6094C15.215 32.6347 18.964 28.0883 21.5092 29.2813L27.4277 32.6851L26.728 34.4297L28.6964 33.4151L30.3705 34.3782C30.2947 34.5085 30.2167 34.6376 30.1387 34.7613C30.1387 34.7668 30.1321 34.7744 30.1277 34.7799C30.0991 34.8248 30.0695 34.8718 30.0387 34.9167C29.9465 35.0612 29.8498 35.2024 29.7509 35.3392C29.7158 35.3895 29.6806 35.4399 29.6411 35.488C29.5312 35.6369 29.4214 35.7802 29.3116 35.9203C29.2391 36.0101 29.1655 36.0965 29.0919 36.1808C28.8652 36.4423 28.6251 36.6918 28.3724 36.9283C28.3317 36.9666 28.2922 37.0038 28.2504 37.0378C28.0868 37.1877 27.9209 37.3278 27.7528 37.4624C27.7111 37.4964 27.6682 37.5281 27.6265 37.5598L27.4991 37.6572C27.4178 37.7185 27.3343 37.7787 27.2497 37.8367L27.1959 37.8739C27.1267 37.9221 27.0553 37.967 26.985 38.0129C26.4054 38.3882 25.7844 38.6956 25.1341 38.929C25.0451 38.9608 24.9572 38.9914 24.8683 39.0188C24.8232 39.0341 24.7793 39.0483 24.7354 39.0604C24.6914 39.0724 24.6464 39.0866 24.6035 39.0987C24.4256 39.1501 24.2498 39.195 24.0741 39.2322C24.0334 39.2409 23.9939 39.2497 23.9532 39.2563C23.8797 39.2716 23.8083 39.2858 23.7336 39.2978L23.6336 39.3143L23.5084 39.334C23.4677 39.3394 23.426 39.346 23.3842 39.3504L23.2403 39.3679L23.036 39.3876C22.9515 39.3942 22.8669 39.4007 22.7823 39.404H22.6911C22.4945 39.4106 22.3001 39.4106 22.11 39.404C22.0298 39.404 21.9497 39.3974 21.8706 39.3898C21.7915 39.3821 21.7256 39.3788 21.6509 39.3712L21.5531 39.3591L21.4235 39.3416L21.3136 39.3263C21.2576 39.3186 21.2038 39.3088 21.1467 39.2978C21.0434 39.2781 20.9446 39.2574 20.8457 39.2344C20.7677 39.2147 20.6908 39.195 20.6161 39.1731C20.5502 39.1545 20.4865 39.1359 20.425 39.1151L20.3481 39.0899C20.3053 39.0768 20.2635 39.0614 20.2218 39.045L20.1251 39.0089C19.9933 38.9564 19.8659 38.8995 19.7439 38.8404C19.6802 38.8086 19.6165 38.7747 19.5561 38.7408C19.4957 38.7068 19.4463 38.6795 19.3968 38.6455C19.3713 38.6315 19.3467 38.6158 19.3232 38.5985C19.1595 38.4954 19.0051 38.3782 18.8619 38.2483C19.8796 38.1781 20.8666 37.8715 21.7441 37.353C22.6215 36.8346 23.3649 36.1186 23.9148 35.2626C23.9522 35.2045 23.9884 35.1454 24.0247 35.0852C24.0609 35.025 24.1092 34.9397 24.151 34.8664C22.8733 36.0485 21.1803 36.6826 19.4375 36.6317C19.4023 36.6317 19.3683 36.6317 19.3276 36.6317C19.287 36.6317 19.2419 36.6317 19.1991 36.6252C19.1563 36.6186 19.1046 36.6197 19.0574 36.6153L18.9212 36.6033L18.83 36.5912C18.7839 36.5912 18.7399 36.5825 18.6938 36.5748C18.6477 36.5672 18.5719 36.5573 18.5115 36.5475C18.3753 36.5256 18.2402 36.4993 18.105 36.4676C18.0424 36.4533 17.9809 36.438 17.9183 36.4216C17.8557 36.4052 17.7931 36.3888 17.7327 36.3712C17.6503 36.3483 17.569 36.3242 17.4888 36.2957C17.4262 36.276 17.3647 36.2552 17.3032 36.2312C17.2416 36.2071 17.1933 36.1896 17.134 36.1677C17.056 36.137 16.978 36.1053 16.9022 36.0714C16.8264 36.0374 16.7704 36.0134 16.7056 35.9816C16.6408 35.9499 16.5958 35.9291 16.5408 35.8995C16.4859 35.87 16.431 35.8459 16.3794 35.8142C16.3442 35.7966 16.3069 35.7759 16.2695 35.7551C16.0286 35.6182 15.7967 35.4661 15.5753 35.2998C15.5204 35.2593 15.4654 35.2177 15.416 35.175C15.3666 35.1323 15.3138 35.094 15.2644 35.0524C15.2523 35.0415 15.2381 35.0305 15.226 35.0185C15.1754 34.9758 15.1271 34.9331 15.0788 34.8882L14.9525 34.7689C14.9327 34.7514 14.9129 34.7317 14.8931 34.7109C14.7407 34.5617 14.5962 34.4046 14.4603 34.2403C14.2143 33.9434 13.9939 33.6263 13.8013 33.2925C14.4492 33.743 15.1935 34.0369 15.9753 34.1509C16.757 34.2648 17.5547 34.1958 18.305 33.9492L18.3533 33.9339C18.4082 33.9164 18.4631 33.8956 18.5192 33.8748C18.5752 33.854 18.6224 33.8365 18.6729 33.8146C18.8212 33.7533 18.9651 33.6843 19.1123 33.6099C19.1782 33.5749 19.242 33.5384 19.3035 33.5005C19.3562 33.4709 19.4133 33.4392 19.4605 33.4041C19.5959 33.3193 19.7268 33.2276 19.8527 33.1294C17.7162 34.1462 15.6027 33.542 14.2264 32.1915C14.1363 32.1039 14.0495 32.012 13.9671 31.919C13.9243 31.8697 13.8814 31.8205 13.8408 31.769C13.5818 31.4516 13.3606 31.1052 13.1817 30.7369C13.1521 30.6789 13.1246 30.6187 13.0983 30.5596L13.0862 30.5312C13.0554 30.46 13.0258 30.3889 12.9983 30.3123C12.9785 30.2608 12.9598 30.2083 12.9412 30.1558C12.9324 30.1284 12.9236 30.101 12.9137 30.0737C12.8442 29.8588 12.7895 29.6394 12.75 29.417C12.7402 29.3645 12.7325 29.3076 12.7237 29.2594C12.6849 28.9946 12.6687 28.7269 12.6753 28.4593V28.4254C12.6753 28.3831 12.6775 28.3404 12.6819 28.2974C12.6819 28.2514 12.6819 28.2065 12.6918 28.1595C12.6995 28.0686 12.7105 27.9756 12.7259 27.8826C12.73 27.8418 12.7363 27.8012 12.7445 27.7611C12.7445 27.7479 12.7445 27.7337 12.7533 27.7206C12.7587 27.6837 12.766 27.6472 12.7753 27.6111C12.7933 27.5178 12.8161 27.4253 12.8434 27.3342C12.8544 27.2883 12.8676 27.2423 12.8829 27.1952C12.9225 27.0672 12.9675 26.9402 13.0203 26.8122C13.0444 26.7542 13.0675 26.6962 13.095 26.6382C13.1323 26.5506 13.1762 26.4641 13.2213 26.3766C13.2125 26.3755 13.2136 26.3755 13.2136 26.3755H13.2191ZM32.1236 22.0337C32.0349 22.0335 31.9482 22.0595 31.8743 22.1085C31.8005 22.1574 31.7429 22.2271 31.7088 22.3086C31.6747 22.3902 31.6656 22.48 31.6828 22.5667C31.7 22.6534 31.7426 22.7331 31.8052 22.7956C31.8678 22.8582 31.9477 22.9008 32.0347 22.9182C32.1216 22.9355 32.2118 22.9267 32.2938 22.8929C32.3757 22.8592 32.4458 22.8019 32.4951 22.7285C32.5444 22.655 32.5707 22.5686 32.5707 22.4803C32.5702 22.4215 32.5582 22.3634 32.5352 22.3092C32.5122 22.2551 32.4788 22.206 32.4368 22.1647C32.3947 22.1234 32.345 22.0908 32.2903 22.0687C32.2356 22.0466 32.1771 22.0355 32.1181 22.0359L32.1236 22.0337ZM34.7182 17.148C34.5787 17.148 34.4424 17.1892 34.3264 17.2665C34.2104 17.3437 34.12 17.4534 34.0666 17.5818C34.0133 17.7102 33.9993 17.8515 34.0265 17.9878C34.0537 18.1241 34.1209 18.2493 34.2195 18.3475C34.3181 18.4458 34.4438 18.5127 34.5806 18.5398C34.7174 18.5669 34.8592 18.553 34.988 18.4998C35.1169 18.4467 35.227 18.3566 35.3045 18.2411C35.382 18.1255 35.4234 17.9897 35.4234 17.8507C35.4233 17.7581 35.4047 17.6664 35.3688 17.581C35.333 17.4956 35.2805 17.4181 35.2144 17.353C35.1484 17.2879 35.07 17.2364 34.9839 17.2016C34.8978 17.1668 34.8056 17.1494 34.7127 17.1502L34.7182 17.148ZM36.0715 18.6967C35.7558 19.2434 35.2351 19.6428 34.6239 19.807C34.0127 19.9712 33.3611 19.8868 32.8123 19.5723C33.0843 19.7278 33.3227 19.9352 33.5141 20.1827C33.7054 20.4301 33.8459 20.7127 33.9276 21.0144C34.0092 21.316 34.0303 21.6307 33.9897 21.9404C33.9492 22.2502 33.8477 22.5489 33.6911 22.8196C33.8478 22.5491 34.0564 22.312 34.305 22.1218C34.5537 21.9317 34.8375 21.7923 35.1403 21.7115C35.4431 21.6307 35.7588 21.6101 36.0696 21.6509C36.3803 21.6918 36.68 21.7932 36.9513 21.9495C36.6788 21.7942 36.4396 21.5868 36.2476 21.3393C36.0555 21.0918 35.9143 20.809 35.8321 20.5071C35.7498 20.2052 35.7282 19.8901 35.7683 19.5798C35.8084 19.2695 35.9096 18.9702 36.066 18.6989L36.0715 18.6967Z" fill="white"/>
<path fill-rule="evenodd" clip-rule="evenodd" d="M14.222 32.1905C14.1319 32.103 14.0451 32.011 13.9627 31.918C13.9199 31.8687 13.8771 31.8195 13.8364 31.768C13.5774 31.4506 13.3562 31.1042 13.1773 30.736C13.1477 30.678 13.1202 30.6178 13.0938 30.5587L13.0818 30.5302C13.051 30.4591 13.0213 30.3879 12.9939 30.3113C12.9741 30.2599 12.9554 30.2073 12.9368 30.1548C12.928 30.1274 12.9192 30.1001 12.9093 30.0727C12.8398 29.8578 12.7851 29.6384 12.7456 29.416C12.7357 29.3635 12.7281 29.3066 12.7193 29.2584C12.6805 28.9936 12.6643 28.7259 12.6709 28.4584V28.4245C12.6709 28.3818 12.6709 28.3391 12.6775 28.2964C12.6841 28.2537 12.6775 28.2056 12.6874 28.1585C12.6951 28.0677 12.7061 27.9746 12.7215 27.8816C12.7215 27.8422 12.7336 27.8006 12.7401 27.7601C12.7401 27.747 12.7401 27.7327 12.7489 27.7196C12.7555 27.6824 12.7621 27.643 12.7709 27.6102C12.7907 27.5182 12.8126 27.4252 12.839 27.3333C12.8511 27.2873 12.8632 27.2413 12.8786 27.1943C12.9181 27.0662 12.9631 26.9393 13.0159 26.8112C13.04 26.7532 13.0631 26.6952 13.0906 26.6372C13.1301 26.5496 13.1718 26.4632 13.2169 26.3756C10.8651 30.0705 14.2681 34.6804 18.3093 33.9428H18.3181L18.3577 33.9285C18.4126 33.911 18.4675 33.8902 18.5235 33.8694C18.5796 33.8486 18.6268 33.8311 18.6773 33.8092C18.8256 33.7479 18.9695 33.679 19.1167 33.6046C19.1826 33.5695 19.2463 33.5331 19.3078 33.4951C19.3606 33.4656 19.4177 33.4338 19.4649 33.3988C19.6003 33.314 19.7311 33.2223 19.8571 33.1241C17.7118 34.1463 15.5983 33.5411 14.222 32.1905ZM21.9178 28.2439C21.8291 28.3641 21.747 28.4891 21.6717 28.6182L30.6945 33.8092C30.7696 33.6799 30.8375 33.5466 30.8977 33.4097L21.9178 28.2439ZM30.1343 34.7603C30.1343 34.7658 30.1277 34.7735 30.1233 34.7789C30.0947 34.8238 30.0651 34.8709 30.0343 34.9157C29.9421 35.0602 29.8454 35.2014 29.7465 35.3382C29.7114 35.3885 29.6762 35.4389 29.6367 35.487C29.5268 35.6359 29.417 35.7793 29.3071 35.9194C29.2346 36.0091 29.161 36.0956 29.0875 36.1798C28.8608 36.4413 28.6207 36.6908 28.368 36.9274C28.3273 36.9657 28.2878 37.0051 28.246 37.0368C28.0824 37.1868 27.9165 37.3268 27.7484 37.4615C27.7067 37.4954 27.6638 37.5271 27.6221 37.5589L27.4947 37.6563C27.4134 37.7176 27.3299 37.7778 27.2453 37.8358L27.1915 37.873C27.1223 37.9211 27.0509 37.966 26.9806 38.012C26.4025 38.3873 25.7829 38.695 25.1341 38.9291C25.0451 38.9609 24.9572 38.9915 24.8683 39.0189C24.8232 39.0342 24.7793 39.0484 24.7353 39.0605C24.6914 39.0725 24.6464 39.0878 24.6035 39.0988C24.4256 39.1502 24.2498 39.1951 24.0741 39.2323C24.0334 39.2411 23.9939 39.2498 23.9532 39.2564C23.8796 39.2717 23.8082 39.2859 23.7335 39.298L23.6336 39.3144L23.5084 39.3341C23.4677 39.3396 23.426 39.3461 23.3842 39.3505L23.2403 39.368L23.036 39.3877C22.9514 39.3943 22.8669 39.4009 22.7823 39.4041H22.6911C22.4945 39.4107 22.3001 39.4107 22.11 39.4041C22.0298 39.4041 21.9497 39.3976 21.8706 39.3899C21.7915 39.3822 21.7256 39.379 21.6509 39.3713L21.5531 39.3593L21.4235 39.3418L21.3136 39.3264C21.2576 39.3188 21.2038 39.3089 21.1467 39.298C21.0434 39.2783 20.9445 39.2575 20.8457 39.2345C20.7677 39.2148 20.6908 39.1951 20.6161 39.1732C20.5502 39.1546 20.4865 39.136 20.425 39.1152L20.3481 39.09C20.3053 39.0769 20.2635 39.0616 20.2218 39.0452L20.1251 39.009C19.9933 38.9565 19.8659 38.8996 19.7439 38.8405C19.6802 38.8088 19.6165 38.7748 19.5561 38.7409C19.4957 38.707 19.4463 38.6796 19.3968 38.6457C19.3713 38.6317 19.3467 38.6159 19.3232 38.5986C19.3024 38.5874 19.2822 38.575 19.2628 38.5614C19.0563 38.5953 18.8487 38.6194 18.6378 38.6347C20.9017 40.6869 26.8817 40.3913 30.1431 34.7614L30.1343 34.7603ZM19.4342 36.6319C19.399 36.6319 19.365 36.6319 19.3243 36.6319C19.2837 36.6319 19.2386 36.6319 19.1958 36.6253C19.153 36.6187 19.1013 36.6198 19.0541 36.6154L18.9179 36.6034L18.8267 36.5914C18.7806 36.5914 18.7366 36.5826 18.6905 36.5749C18.6444 36.5673 18.5686 36.5585 18.5082 36.5476C18.372 36.5257 18.2368 36.4994 18.1017 36.4677C18.0391 36.4535 17.9776 36.4381 17.915 36.4217C17.8524 36.4053 17.7898 36.39 17.7294 36.3714C17.647 36.3484 17.5657 36.3243 17.4855 36.2959C17.4229 36.2762 17.3614 36.2554 17.2999 36.2313C17.2383 36.2072 17.19 36.1897 17.1307 36.1678C17.0527 36.1372 16.9747 36.1054 16.8989 36.0715C16.8231 36.0376 16.7671 36.0135 16.7023 35.9817C16.6375 35.95 16.5924 35.9292 16.5375 35.8997C16.4826 35.8701 16.4277 35.846 16.3761 35.8143C16.3409 35.7968 16.3036 35.776 16.2662 35.7552C16.0253 35.6183 15.7934 35.4662 15.572 35.2999C15.517 35.2594 15.4621 35.2178 15.4127 35.1751C15.3633 35.1324 15.3105 35.0952 15.2611 35.0525C15.249 35.0416 15.2348 35.0307 15.2227 35.0186C15.1721 34.9759 15.1238 34.9332 15.0755 34.8884C15.0271 34.8435 14.9909 34.8107 14.9492 34.7691C14.9294 34.7516 14.9096 34.7319 14.8898 34.7111C14.7374 34.5618 14.593 34.4048 14.457 34.2404C14.4263 34.2054 14.3988 34.1704 14.3703 34.131C14.0921 34.004 13.8259 33.8523 13.575 33.6779C14.0754 34.544 14.7648 35.287 15.5922 35.8519C16.4196 36.4169 17.3638 36.7893 18.3551 36.9418C19.3464 37.0943 20.3594 37.0228 21.3192 36.7328C22.2791 36.4427 23.1613 35.9414 23.9005 35.266C23.9379 35.208 23.9741 35.1489 24.0104 35.0887C24.0466 35.0285 24.0949 34.9431 24.1367 34.8698C22.8612 36.048 21.1728 36.6807 19.4342 36.6319Z" fill="white"/>
<path d="M68.0555 28.5165C68.1049 28.8955 68.2934 29.2429 68.5847 29.4916C68.8759 29.7403 69.2493 29.8728 69.6327 29.8635H69.9707V30.0791H63.4792V29.8759H63.8172C64.2825 29.8759 64.7106 29.4202 64.6599 28.9554L63.8048 21.1563L59.7581 28.1293C59.7581 28.1293 58.9548 29.4628 58.9255 30.509H58.7216L53.1618 21.209L52.3112 28.9543C52.2594 29.419 52.6875 29.8737 53.1528 29.8748H53.4908V30.0779H48.9697V29.8624H49.3077C50.0839 29.8624 50.7723 29.364 50.8849 28.5154L52.6751 14.7086H52.8757L59.5789 25.6912L66.0006 14.7154H66.1977L68.0555 28.5165Z" fill="white"/>
<path d="M83.8393 28.6175C84.3069 29.4975 85.0459 29.8657 85.6824 29.8657H85.8672V30.0812H78.9825V29.868H79.1729C79.7362 29.868 80.3378 29.3774 80.0077 28.521L78.9442 25.8606H73.8745L72.7693 28.521C72.4145 29.3819 73.0375 29.868 73.5951 29.868H73.7855V30.0812H69.1484V29.8657H69.3433C69.9573 29.8657 70.702 29.5076 71.1605 28.6523L76.157 17.4003C76.3114 17.0726 77.171 15.207 77.2194 14.5806H77.4177L83.8393 28.6175ZM78.5781 24.9492L76.4646 19.6633L74.2508 24.9492H78.5781Z" fill="white"/>
<path d="M101.907 23.0768C101.208 23.0768 100.815 23.4271 100.831 24.0523V27.6095C99.8168 28.9172 97.1322 30.3832 93.6712 30.3832C88.766 30.3832 85.5 27.367 85.5 22.5257C85.5 17.7247 88.6995 14.7164 93.7963 14.7164C96.1734 14.7164 98.4863 15.2384 99.7549 15.8827L99.7977 19.5758H99.6174C98.804 16.6572 96.7548 15.6234 94.4497 15.6223C90.9156 15.6223 89.0229 18.2815 89.0229 22.6559C89.0229 26.8092 90.7714 29.4762 93.954 29.4818C95.5459 29.4818 97.1085 28.7141 97.6155 27.3491V24.0568C97.6155 23.4282 97.202 23.0757 96.5046 23.0768H96.1667V22.8647H102.236V23.0802L101.907 23.0768Z" fill="white"/>
<path d="M120.817 22.547C120.817 27.3839 117.416 30.3821 112.104 30.3821C106.792 30.3821 103.392 27.3839 103.392 22.547C103.392 17.7102 106.793 14.7108 112.104 14.7108C117.414 14.7108 120.817 17.709 120.817 22.547ZM117.265 22.547C117.265 18.2714 115.272 15.6167 112.104 15.6167C108.936 15.6167 106.944 18.2714 106.944 22.547C106.944 26.8226 108.937 29.4762 112.104 29.4762C115.27 29.4762 117.265 26.8226 117.265 22.547Z" fill="white"/>
<path d="M134.976 28.6175C135.443 29.4975 136.183 29.8657 136.82 29.8657H137V30.0812H130.117V29.868H130.307C130.87 29.868 131.472 29.3774 131.142 28.521L130.078 25.8606H125.009L123.903 28.521C123.549 29.3819 124.172 29.868 124.729 29.868H124.92V30.0812H120.287V29.8657H120.481C121.095 29.8657 121.841 29.5076 122.299 28.6523L127.296 17.4003C127.449 17.0726 128.31 15.207 128.358 14.5806H128.553L134.976 28.6175ZM129.716 24.9492L127.602 19.6633L125.388 24.9492H129.716Z" fill="white"/>
<path d="M60.8902 34.5264C60.7595 34.5264 60.6863 34.5926 60.6886 34.7094V35.3829C60.4982 35.6276 59.9946 35.9026 59.3457 35.9026C58.4263 35.9026 57.8135 35.3414 57.8135 34.4288C57.8135 33.5162 58.414 32.9639 59.3693 32.9639C59.7536 32.9587 60.1346 33.0353 60.4869 33.1884L60.4948 33.881H60.461C60.3089 33.3321 59.9247 33.139 59.4921 33.139C58.8297 33.139 58.4782 33.6374 58.4782 34.4579C58.4782 35.2437 58.8071 35.7376 59.4031 35.7387C59.7017 35.7387 59.9946 35.595 60.0903 35.3391V34.7217C60.0903 34.6095 60.0126 34.5376 59.8819 34.5376H59.8177V34.4972H60.9556V34.5376L60.8902 34.5264Z" fill="white"/>
<path d="M63.5028 33.0144C63.994 33.0144 64.466 33.213 64.466 33.7754C64.466 34.1122 64.2632 34.4972 63.8036 34.5432C63.9766 34.6144 64.1217 34.7396 64.217 34.9002C64.2294 34.9204 64.4716 35.3043 64.6249 35.494C64.7995 35.7185 64.9144 35.797 65.1262 35.7993V35.8408H64.7319C64.288 35.8408 63.9804 35.7364 63.7799 35.4221C63.6525 35.1991 63.5396 34.9682 63.4419 34.7307C63.3664 34.5601 63.2729 34.4759 63.1682 34.4579V34.4197H63.2921C63.5095 34.4197 63.7315 34.3075 63.8036 33.9528C63.816 33.8885 63.8209 33.8229 63.8182 33.7575C63.8025 33.3713 63.6064 33.1962 63.3405 33.1962C63.2279 33.1962 63.0837 33.1962 63.033 33.1962V35.5535C63.0344 35.6213 63.0625 35.6858 63.1112 35.7332C63.1598 35.7806 63.2252 35.8072 63.2932 35.8071H63.3439V35.8476H62.1125V35.8071H62.1644C62.2321 35.8072 62.2972 35.7807 62.3456 35.7335C62.3941 35.6863 62.422 35.6221 62.4235 35.5546V33.304C62.4223 33.2363 62.3945 33.1718 62.346 33.1243C62.2976 33.0769 62.2323 33.0503 62.1644 33.0503H62.1125V33.0099L63.5028 33.0144Z" fill="white"/>
<path d="M68.5591 35.5659C68.5896 35.6328 68.638 35.6901 68.699 35.7315C68.76 35.7729 68.8312 35.7967 68.9049 35.8005H68.9387V35.8409H67.6477V35.8005H67.6826C67.7127 35.8016 67.7427 35.7947 67.7694 35.7807C67.7961 35.7666 67.8186 35.7458 67.8347 35.7203C67.8508 35.6949 67.8599 35.6656 67.861 35.6356C67.8622 35.6055 67.8555 35.5757 67.8414 35.549L67.642 35.0506H66.6912L66.4839 35.549C66.4691 35.5754 66.4616 35.6053 66.4622 35.6355C66.4628 35.6658 66.4714 35.6953 66.4872 35.7211C66.5031 35.7469 66.5255 35.7681 66.5522 35.7824C66.5789 35.7968 66.609 35.8038 66.6393 35.8027H66.6754V35.8431H65.8057V35.8027H65.8428C65.9143 35.7991 65.9834 35.7764 66.0429 35.7369C66.1024 35.6973 66.15 35.6425 66.1808 35.5782L67.1181 33.4679C67.2022 33.2988 67.269 33.1216 67.3176 32.9392H67.3536L68.5591 35.5659ZM67.5722 34.8778L67.1756 33.8866L66.761 34.8778H67.5722Z" fill="white"/>
<path d="M72.4223 33.0143V33.0548H72.3863C72.3149 33.0585 72.2458 33.0813 72.1863 33.1208C72.1269 33.1603 72.0792 33.215 72.0483 33.2793L71.0884 35.3929C71.0047 35.5622 70.9379 35.7393 70.889 35.9216H70.853L69.625 33.286C69.5944 33.2196 69.546 33.1629 69.4852 33.1221C69.4244 33.0813 69.3535 33.058 69.2802 33.0548H69.2476V33.0143H70.5375V33.0548H70.5015C70.4715 33.0545 70.4421 33.062 70.4159 33.0764C70.3897 33.0909 70.3677 33.1118 70.3521 33.1372C70.3364 33.1627 70.3276 33.1917 70.3266 33.2215C70.3255 33.2513 70.3322 33.2809 70.346 33.3073L71.0321 34.9765L71.7464 33.3073C71.7613 33.281 71.7688 33.2512 71.7682 33.221C71.7677 33.1908 71.759 33.1612 71.7432 33.1355C71.7273 33.1097 71.7048 33.0887 71.6781 33.0745C71.6513 33.0603 71.6212 33.0535 71.5909 33.0548H71.556V33.0143H72.4223Z" fill="white"/>
<path d="M75.7707 35.0169L75.5826 35.8408H73.4849V35.8004H73.5356C73.6036 35.8004 73.669 35.7739 73.7176 35.7265C73.7663 35.679 73.7943 35.6145 73.7958 35.5467V33.2961C73.7912 33.2307 73.762 33.1694 73.7139 33.1246C73.6658 33.0799 73.6025 33.0549 73.5367 33.0548H73.4849V33.0144H75.0385C75.2022 33.0128 75.3649 32.9882 75.5218 32.9414V33.6475H75.4812V33.6003C75.4848 33.5467 75.4772 33.4929 75.4588 33.4424C75.4403 33.392 75.4116 33.3459 75.3742 33.3071C75.3369 33.2683 75.2919 33.2377 75.242 33.2173C75.1921 33.1968 75.1385 33.187 75.0846 33.1884H74.4087V34.3625H74.9393C74.9845 34.3625 75.0292 34.3535 75.0708 34.336C75.1124 34.3185 75.15 34.2929 75.1815 34.2607C75.2131 34.2285 75.2378 34.1903 75.2542 34.1484C75.2706 34.1065 75.2785 34.0617 75.2773 34.0168V33.9775H75.3167V34.9114H75.2773V34.8755C75.2785 34.8305 75.2706 34.7858 75.2542 34.7439C75.2378 34.702 75.2131 34.6638 75.1815 34.6315C75.15 34.5993 75.1124 34.5737 75.0708 34.5562C75.0292 34.5387 74.9845 34.5297 74.9393 34.5297H74.3963V35.6657H74.9393C75.3449 35.6657 75.6074 35.4154 75.7279 35.0147L75.7707 35.0169Z" fill="white"/>
<path d="M78.6746 34.3917C78.7956 34.4552 78.8948 34.5532 78.9596 34.6732C79.0244 34.7931 79.0519 34.9296 79.0385 35.0652C79.0137 35.5916 78.6161 35.9014 77.9683 35.9014C77.6044 35.9014 77.2641 35.8083 77.1165 35.6567C77.0489 35.4872 77.1064 35.1471 77.2123 34.9709H77.2484C77.2157 35.3918 77.5255 35.7387 78.0122 35.7308C78.3648 35.7252 78.5755 35.5299 78.5755 35.2818C78.5755 35.1179 78.4786 34.9877 78.251 34.8653L77.5458 34.3984C77.4146 34.3313 77.3072 34.2259 77.2377 34.0963C77.1683 33.9668 77.1401 33.8192 77.1571 33.6732C77.192 33.2557 77.4951 32.9672 78.0111 32.9672C78.1953 32.9713 78.3792 32.9852 78.562 33.0087H78.8166L78.7636 33.6014H78.7253C78.7253 33.3219 78.5 33.1367 78.153 33.1367C77.8342 33.1367 77.6325 33.3084 77.6235 33.5251C77.6134 33.6845 77.7362 33.799 77.9052 33.9011L78.6746 34.3917Z" fill="white"/>
<path d="M82.4075 33.011C82.5698 33.0086 82.731 32.9837 82.8863 32.9369V33.6407H82.8458V33.5936C82.8495 33.5392 82.8416 33.4847 82.8227 33.4335C82.8037 33.3824 82.7741 33.3358 82.7358 33.2969C82.6975 33.258 82.6513 33.2276 82.6004 33.2078C82.5494 33.1879 82.4949 33.179 82.4402 33.1816H81.8961V35.549C81.8984 35.616 81.9267 35.6795 81.975 35.7262C82.0233 35.7729 82.0879 35.7991 82.1552 35.7993H82.207V35.8397H80.9756V35.7993H81.0275C81.0944 35.7991 81.1586 35.7732 81.2069 35.727C81.2551 35.6808 81.2837 35.6179 81.2866 35.5513V33.1805H80.7413C80.6867 33.178 80.6322 33.1871 80.5813 33.207C80.5305 33.2269 80.4844 33.2573 80.4461 33.2962C80.4078 33.3351 80.3782 33.3816 80.3592 33.4326C80.3402 33.4837 80.3322 33.5381 80.3357 33.5925V33.6407H80.2952V32.9369C80.4508 32.9839 80.6125 33.0084 80.7751 33.0099L82.4075 33.011Z" fill="white"/>
<path d="M87.3315 34.4265C87.3315 35.3335 86.6927 35.8959 85.6968 35.8959C84.7009 35.8959 84.0632 35.3346 84.0632 34.4265C84.0632 33.5184 84.7009 32.9572 85.6968 32.9572C86.6927 32.9572 87.3315 33.5207 87.3315 34.4265ZM86.6646 34.4265C86.6646 33.625 86.2916 33.1267 85.6968 33.1267C85.102 33.1267 84.7291 33.625 84.7291 34.4265C84.7291 35.228 85.1031 35.7264 85.6968 35.7264C86.2905 35.7264 86.6612 35.2291 86.6612 34.4265H86.6646Z" fill="white"/>
<path d="M91.8382 33.0143V33.0548H91.7638C91.6989 33.055 91.6366 33.0803 91.59 33.1253C91.5434 33.1703 91.5161 33.2315 91.5137 33.2961V35.3817C91.5123 35.5546 91.5282 35.7272 91.561 35.8969H91.5239L89.4723 33.955V35.5568C89.4735 35.6218 89.5003 35.6838 89.5468 35.7293C89.5934 35.7749 89.656 35.8004 89.7213 35.8004H89.7968V35.8408H88.571V35.8004H88.6454C88.711 35.8004 88.7739 35.7748 88.8207 35.729C88.8675 35.6832 88.8943 35.621 88.8955 35.5557V33.4577C88.8971 33.2886 88.8812 33.1197 88.8482 32.9537H88.8887L90.9324 34.8957V33.304C90.9315 33.2386 90.9047 33.1761 90.8579 33.1303C90.811 33.0845 90.7479 33.0589 90.6823 33.0593H90.6079V33.0188L91.8382 33.0143Z" fill="white"/>
<path d="M95.3553 35.0169L95.1683 35.8408H93.0706V35.8004H93.1224C93.1903 35.8004 93.2556 35.7738 93.304 35.7264C93.3525 35.6789 93.3803 35.6144 93.3815 35.5467V33.2961C93.3769 33.2307 93.3477 33.1694 93.2996 33.1246C93.2515 33.0799 93.1882 33.0549 93.1224 33.0548H93.0773V33.0144H94.632C94.7954 33.0129 94.9578 32.9883 95.1142 32.9414V33.6475H95.0737V33.6003C95.0774 33.5468 95.07 33.493 95.0517 33.4425C95.0334 33.392 95.0047 33.3459 94.9675 33.3071C94.9302 33.2683 94.8852 33.2377 94.8354 33.2173C94.7856 33.1968 94.7321 33.187 94.6782 33.1884H93.9966V34.3625H94.534C94.5796 34.3633 94.625 34.3548 94.6672 34.3377C94.7095 34.3205 94.7478 34.295 94.7799 34.2627C94.812 34.2304 94.8373 34.192 94.854 34.1497C94.8708 34.1074 94.8789 34.0622 94.8776 34.0168V33.9775H94.9171V34.9114H94.8776V34.8755C94.8788 34.8305 94.871 34.7858 94.8545 34.7439C94.8381 34.702 94.8134 34.6638 94.7819 34.6315C94.7504 34.5993 94.7127 34.5737 94.6711 34.5562C94.6295 34.5387 94.5848 34.5297 94.5396 34.5297H93.9978V35.6657H94.5295C94.934 35.6657 95.1965 35.4154 95.3181 35.0147L95.3553 35.0169Z" fill="white"/>
<path d="M101.421 34.6622L101.46 35.3571C101.279 35.6557 100.933 35.897 100.321 35.897C99.3267 35.897 98.6777 35.3459 98.6777 34.4243C98.6777 33.5207 99.3041 32.9583 100.333 32.9583C100.682 32.9531 101.027 33.03 101.341 33.1828L101.349 33.8754H101.315C101.168 33.3456 100.819 33.1345 100.373 33.1334C99.7311 33.1334 99.3379 33.6273 99.3379 34.4198C99.3379 35.2123 99.7187 35.7163 100.321 35.7331C100.944 35.7331 101.261 35.4615 101.387 34.6679L101.421 34.6622Z" fill="white"/>
<path d="M105.112 35.0169L104.925 35.8408H102.827V35.8004H102.879C102.947 35.8004 103.012 35.7738 103.06 35.7264C103.109 35.6789 103.137 35.6144 103.138 35.5467V33.304C103.136 33.2364 103.108 33.172 103.06 33.1246C103.012 33.0772 102.947 33.0506 102.879 33.0503H102.827V33.0099H104.057V33.0503H104.005C103.937 33.0503 103.872 33.0769 103.824 33.1243C103.775 33.1718 103.747 33.2363 103.746 33.304V35.6612H104.278C104.682 35.6612 104.945 35.4109 105.067 35.0102L105.112 35.0169Z" fill="white"/>
<path d="M108.596 35.0169L108.408 35.8408H106.31V35.8004H106.361C106.429 35.8004 106.494 35.7739 106.543 35.7265C106.592 35.679 106.62 35.6145 106.621 35.5467V33.2961C106.617 33.2307 106.587 33.1694 106.539 33.1246C106.491 33.0799 106.428 33.0549 106.362 33.0548H106.31V33.0144H107.864C108.028 33.0128 108.19 32.9882 108.347 32.9414V33.6475H108.307V33.6003C108.31 33.5467 108.303 33.4929 108.284 33.4424C108.266 33.392 108.237 33.3459 108.2 33.3071C108.162 33.2683 108.117 33.2377 108.067 33.2173C108.018 33.1968 107.964 33.187 107.91 33.1884H107.228V34.3625H107.766C107.811 34.3625 107.856 34.3535 107.897 34.336C107.939 34.3185 107.977 34.2929 108.008 34.2607C108.04 34.2285 108.064 34.1903 108.081 34.1484C108.097 34.1065 108.105 34.0617 108.104 34.0168V33.9775H108.143V34.9114H108.104V34.8755C108.105 34.8305 108.097 34.7858 108.081 34.7439C108.064 34.702 108.04 34.6638 108.008 34.6315C107.977 34.5993 107.939 34.5737 107.897 34.5562C107.856 34.5387 107.811 34.5297 107.766 34.5297H107.223V35.6657H107.755C108.16 35.6657 108.423 35.4154 108.543 35.0147L108.596 35.0169Z" fill="white"/>
<path d="M112.352 35.5658C112.383 35.6328 112.431 35.6901 112.492 35.7315C112.553 35.7729 112.624 35.7967 112.698 35.8004H112.732V35.8409H111.441V35.8004H111.477C111.507 35.801 111.537 35.7937 111.563 35.7793C111.59 35.7649 111.612 35.7438 111.628 35.7182C111.644 35.6926 111.653 35.6633 111.653 35.6332C111.654 35.6031 111.648 35.5733 111.633 35.5468L111.434 35.0484H110.483L110.276 35.5468C110.261 35.573 110.253 35.6029 110.253 35.6331C110.254 35.6634 110.262 35.6931 110.278 35.7189C110.294 35.7448 110.316 35.7661 110.343 35.7804C110.37 35.7947 110.4 35.8016 110.43 35.8004H110.466V35.8409H109.598V35.8004H109.634C109.705 35.7965 109.774 35.7736 109.833 35.7341C109.893 35.6947 109.941 35.64 109.972 35.5759L110.908 33.4656C110.992 33.2965 111.059 33.1194 111.107 32.9369H111.144L112.352 35.5658ZM111.365 34.8777L110.969 33.8866L110.554 34.8777H111.365Z" fill="white"/>
<path d="M117.011 33.0143V33.0548H116.935C116.87 33.055 116.808 33.0803 116.762 33.1253C116.715 33.1703 116.688 33.2315 116.685 33.2961V35.3817C116.684 35.5546 116.7 35.7272 116.733 35.8969H116.695L114.648 33.955V35.5568C114.65 35.6219 114.677 35.6839 114.724 35.7294C114.77 35.7749 114.833 35.8004 114.898 35.8004H114.973V35.8408H113.744V35.8004H113.818C113.884 35.8007 113.947 35.7752 113.994 35.7293C114.04 35.6835 114.067 35.6211 114.068 35.5557V33.4577C114.07 33.2886 114.054 33.1198 114.022 32.9537H114.061L116.105 34.8957V33.304C116.104 33.2387 116.078 33.1765 116.031 33.1307C115.984 33.0849 115.921 33.0592 115.856 33.0593H115.781V33.0188L117.011 33.0143Z" fill="white"/>
<path d="M119.477 35.8409H118.247V35.8005H118.298C118.365 35.8005 118.431 35.7739 118.479 35.7264C118.528 35.679 118.555 35.6145 118.557 35.5468V33.304C118.555 33.2367 118.527 33.1728 118.478 33.1258C118.43 33.0788 118.365 33.0525 118.298 33.0526H118.247V33.0122H119.477V33.0526H119.425C119.358 33.0525 119.293 33.0788 119.244 33.1258C119.196 33.1728 119.168 33.2367 119.166 33.304V35.549C119.168 35.6166 119.196 35.681 119.244 35.7284C119.292 35.7758 119.357 35.8024 119.425 35.8027H119.477V35.8409Z" fill="white"/>
<path d="M124.041 33.0143V33.0548H123.966C123.901 33.0547 123.839 33.0799 123.792 33.1249C123.746 33.17 123.718 33.2314 123.716 33.2961V35.3817C123.715 35.5545 123.73 35.7271 123.763 35.8969H123.721L121.673 33.955V35.5568C121.674 35.6219 121.701 35.6839 121.748 35.7294C121.795 35.7749 121.857 35.8004 121.923 35.8004H121.998V35.8408H120.77V35.8004H120.845C120.91 35.8004 120.973 35.7748 121.02 35.729C121.067 35.6832 121.094 35.621 121.095 35.5557V33.4577C121.096 33.2886 121.08 33.1197 121.047 32.9537H121.088L123.132 34.8957V33.304C123.13 33.2386 123.104 33.1764 123.057 33.1306C123.01 33.0849 122.947 33.0592 122.882 33.0593H122.807V33.0188L124.041 33.0143Z" fill="white"/>
<path d="M128.361 34.5264C128.23 34.5264 128.156 34.5926 128.16 34.7094V35.3829C127.968 35.6276 127.466 35.9026 126.817 35.9026C125.896 35.9026 125.284 35.3413 125.284 34.4287C125.284 33.5161 125.884 32.9639 126.84 32.9639C127.225 32.9589 127.606 33.0354 127.958 33.1884L127.966 33.881H127.932C127.779 33.3321 127.395 33.139 126.963 33.139C126.299 33.139 125.949 33.6374 125.949 34.4579C125.949 35.2437 126.277 35.7376 126.874 35.7387C127.173 35.7387 127.466 35.595 127.561 35.3391V34.7217C127.561 34.6095 127.484 34.5376 127.353 34.5376H127.289V34.4972H128.427V34.5376L128.361 34.5264Z" fill="white"/>
</g>
</g>
<defs>
<clipPath id="clip0_504_4834">
<rect width="137" height="40" fill="white"/>
</clipPath>
<clipPath id="clip1_504_4834">
<rect width="137" height="40" fill="white"/>
</clipPath>
</defs>
</svg>
