<svg width="116" height="40" viewBox="0 0 116 40" fill="none" xmlns="http://www.w3.org/2000/svg">
<g clip-path="url(#clip0_504_4713)">
<g clip-path="url(#clip1_504_4713)">
<path d="M13.6296 18.2559L6.14167 6.39164V18.2559H2.12427V0.208878H7.04612L13.861 11.1958V0.208878H17.9205V18.2559H13.6296Z" fill="white"/>
<path d="M20.0239 18.2559V0.208878H31.5293V4.01044H24.0834V7.43603H30.8352V10.9869H24.0834V14.4543H31.5713V18.2559H20.0239Z" fill="white"/>
<path d="M44.0441 9.27415L49.9546 18.2559H45.0327L41.436 12.4073L37.8813 18.2559H33.1067L38.975 9.23238L33.1067 0.208878H37.9654L41.5622 6.07833L45.1589 0.208878H49.8915L44.0441 9.27415Z" fill="white"/>
<path d="M60.5555 4.05222V18.2559H56.517V4.05222H50.9221V0.208878H66.1714V4.05222H60.5555Z" fill="white"/>
<path d="M86.6372 18.2559V0.208878H98.1426V4.01044H90.6967V7.43603H97.4484V10.9869H90.6967V14.4543H98.1846V18.2559H86.6372Z" fill="white"/>
<path d="M111.73 18.2559L104.242 6.39164V18.2559H100.204V0.208878H105.126L111.962 11.1958V0.208878H116V18.2559H111.73Z" fill="white"/>
<path d="M75.1318 8.52219V12.0522H79.8644C78.9179 13.4935 77.2983 14.3708 75.5525 14.3708C72.713 14.3708 70.3993 12.0731 70.3993 9.25326C70.3993 6.43342 72.713 4.13577 75.5525 4.13577C76.8986 4.13577 78.1817 4.65796 79.1492 5.59791C79.3595 5.80679 79.5699 6.03655 79.7382 6.28721L83.1246 3.86423C82.8091 3.42559 82.4515 3.00783 82.0729 2.63185C80.3271 0.939948 78.0134 0 75.5525 0C70.4203 0 66.2346 4.15666 66.2346 9.25326C66.2346 14.3708 70.4203 18.5065 75.5525 18.5065C78.8968 18.5065 81.9887 16.7102 83.6504 13.8486C83.7345 13.7024 83.8187 13.5561 83.9028 13.389C83.9449 13.2846 84.008 13.1802 84.05 13.0757C84.1131 12.9504 84.1552 12.846 84.1973 12.7206C84.2393 12.5953 84.3024 12.47 84.3445 12.3655C84.3866 12.2193 84.4497 12.0731 84.4917 11.9269C84.5338 11.7807 84.5759 11.6554 84.6179 11.5091C84.7021 11.154 84.7862 10.7781 84.8283 10.423C84.8703 10.047 84.9124 9.65013 84.9124 9.25326C84.9124 9.00261 84.8914 8.75196 84.8703 8.52219H75.1318Z" fill="white"/>
<path d="M26.6494 29.2428C28.311 29.2428 29.2155 28.3238 29.2155 27.0496C29.2155 25.6919 28.311 24.8564 26.6494 24.8564H24.2726V29.2428H26.6494ZM26.5653 32.7102H24.2726V39.436H20.2131V21.389H27.4276C31.0244 21.389 33.1067 23.8329 33.317 27.0496C33.4432 29.1384 32.5178 31.3107 30.2882 32.1044L34.2846 39.4569H29.8255L26.5653 32.7102Z" fill="white"/>
<path d="M55.76 33.0653V21.5352H59.8195V32.7311C59.8195 34.9243 61.0605 36.0104 62.9745 36.0104C64.8886 36.0104 66.1295 34.9243 66.1295 32.7311V21.5352H70.189V33.0653C70.189 37.5979 66.9919 40 62.9745 40C58.9571 39.9791 55.76 37.5979 55.76 33.0653Z" fill="white"/>
<path d="M78.7707 29.4099C80.3062 29.4099 81.3579 28.5117 81.3579 27.1123C81.3579 25.671 80.3062 24.7937 78.7707 24.7937H76.415V29.4099H78.7707ZM76.394 32.8773V39.3734H72.3345V21.3264H79.1704C82.8512 21.3264 85.3963 23.7493 85.3963 27.1123C85.3963 30.517 82.8512 32.8982 79.1704 32.8982H76.394V32.8773Z" fill="white"/>
<path d="M8.91822 29.6188V33.1488H13.6508C12.7043 34.5901 11.0847 35.4674 9.33889 35.4674C6.49937 35.4674 4.18568 33.1697 4.18568 30.3499C4.18568 27.53 6.49937 25.2324 9.33889 25.2324C10.685 25.2324 11.9681 25.7546 12.9356 26.6945C13.146 26.9034 13.3563 27.1332 13.5246 27.3838L16.911 24.9608C16.5955 24.5222 16.2379 24.1044 15.8593 23.7285C14.0925 22.0366 11.7788 21.0966 9.31786 21.0966C4.18568 21.0966 0 25.2533 0 30.3499C0 35.4674 4.18568 39.6031 9.31786 39.6031C12.6622 39.6031 15.7541 37.8068 17.4158 34.9452C17.4999 34.799 17.584 34.6527 17.6682 34.4856C17.7102 34.3812 17.7733 34.2768 17.8154 34.1723C17.8785 34.047 17.9206 33.9426 17.9626 33.8172C18.0047 33.6919 18.0678 33.5666 18.1099 33.4621C18.1519 33.3159 18.215 33.1697 18.2571 33.0235C18.2992 32.8773 18.3412 32.752 18.3833 32.6057C18.4675 32.2507 18.5516 31.8747 18.5937 31.5196C18.6357 31.1436 18.6778 30.7467 18.6778 30.3499C18.6778 30.0992 18.6568 29.8486 18.6357 29.6188H8.91822Z" fill="white"/>
<path d="M52.4156 30.4543H52.4366C52.689 30.4543 52.8993 30.6632 52.8993 30.9138V34.6319C53.5093 33.3786 53.8458 31.9791 53.8458 30.4752C53.8458 25.2324 49.555 20.9713 44.2756 20.9713C38.9962 20.9713 34.7053 25.2324 34.7053 30.4752C34.7053 31.9582 35.0419 33.3786 35.6518 34.6319V30.9138C35.6518 30.6632 35.8622 30.4543 36.1146 30.4543H36.1356C36.388 30.4543 36.5983 30.6632 36.5983 30.9138V36.1775C36.9349 36.6162 37.2924 37.0131 37.6921 37.389V32.5431C37.6921 32.2924 37.9024 32.0836 38.1548 32.0836H38.1759C38.4283 32.0836 38.6386 32.2924 38.6386 32.5431V38.1828C38.9751 38.4334 39.3537 38.6632 39.7323 38.8721V34.1932C39.7323 33.9426 39.9427 33.7337 40.1951 33.7337H40.2161C40.4685 33.7337 40.6788 33.9426 40.6788 34.1932V39.3107C41.0364 39.4569 41.394 39.5822 41.7726 39.6658V32.5431C41.7726 32.2924 41.9829 32.0836 42.2353 32.0836H42.2564C42.5088 32.0836 42.7191 32.2924 42.7191 32.5431V39.8747C43.0767 39.9373 43.4342 39.9791 43.8128 40V30.9138C43.8128 30.6632 44.0232 30.4543 44.2756 30.4543H44.2966C44.549 30.4543 44.7594 30.6632 44.7594 30.9138V39.9791C45.138 39.9582 45.4955 39.9165 45.8531 39.8538V28.9922C45.8531 28.7415 46.0634 28.5326 46.3158 28.5326H46.3369C46.5893 28.5326 46.7996 28.7415 46.7996 28.9922V39.6658C47.1782 39.5614 47.5358 39.436 47.8934 39.3107V26.9869C47.8934 26.7363 48.1037 26.5274 48.3561 26.5274H48.3771C48.6295 26.5274 48.8399 26.7363 48.8399 26.9869V38.8512C49.2185 38.6423 49.576 38.4125 49.9336 38.1619V28.9922C49.9336 28.7415 50.1439 28.5326 50.3963 28.5326H50.4174C50.6698 28.5326 50.8801 28.7415 50.8801 28.9922V37.389C51.2798 37.0131 51.6373 36.6162 51.9739 36.1775V30.9138C51.9528 30.6632 52.1632 30.4543 52.4156 30.4543Z" fill="url(#paint0_linear_504_4713)"/>
<path d="M52.4367 30.4543H52.4156C52.1632 30.4543 51.9529 30.6632 51.9529 30.9138V36.1776C52.3105 35.6971 52.626 35.1749 52.8994 34.6319V30.9138C52.8994 30.6632 52.7101 30.4543 52.4367 30.4543Z" fill="white"/>
<path d="M50.4174 28.5326H50.3963C50.1439 28.5326 49.9336 28.7415 49.9336 28.9922V38.1619C50.2701 37.9112 50.5856 37.6606 50.8801 37.3681V28.9713C50.8591 28.7415 50.6698 28.5326 50.4174 28.5326Z" fill="white"/>
<path d="M48.3771 26.5065H48.356C48.1036 26.5065 47.8933 26.7154 47.8933 26.9661V39.2898C48.2088 39.1645 48.5243 39.0183 48.8398 38.8512V26.9661C48.8398 26.7154 48.6295 26.5065 48.3771 26.5065Z" fill="white"/>
<path d="M46.3368 28.5326H46.3158C46.0634 28.5326 45.853 28.7415 45.853 28.9922V39.8538C46.1685 39.7911 46.484 39.7285 46.7995 39.6449V28.9713C46.7995 28.7415 46.5892 28.5326 46.3368 28.5326Z" fill="white"/>
<path d="M44.2965 30.4543H44.2755C44.0231 30.4543 43.8127 30.6632 43.8127 30.9138V39.9791C43.96 39.9791 44.1282 40 44.2965 40C44.4648 40 44.612 40 44.7803 39.9791V30.9138C44.7593 30.6632 44.5489 30.4543 44.2965 30.4543Z" fill="white"/>
<path d="M42.2562 32.0836H42.2352C41.9828 32.0836 41.7725 32.2924 41.7725 32.5431V39.6658C42.088 39.7494 42.4035 39.812 42.719 39.8747V32.5431C42.719 32.2924 42.5086 32.0836 42.2562 32.0836Z" fill="white"/>
<path d="M40.2162 33.7337H40.1952C39.9428 33.7337 39.7324 33.9426 39.7324 34.1932V38.8512C40.0479 39.0183 40.3634 39.1645 40.6789 39.2898V34.1723C40.6789 33.9217 40.4896 33.7337 40.2162 33.7337Z" fill="white"/>
<path d="M38.1969 32.0836H38.1759C37.9235 32.0836 37.7131 32.2924 37.7131 32.5431V37.389C38.0076 37.6606 38.3231 37.9321 38.6596 38.1828V32.5431C38.6386 32.2924 38.4493 32.0836 38.1969 32.0836Z" fill="white"/>
<path d="M36.1566 30.4543H36.1356C35.8832 30.4543 35.6729 30.6632 35.6729 30.9138V34.6319C35.9463 35.1749 36.2618 35.6971 36.6194 36.1776V30.9138C36.6194 30.6632 36.409 30.4543 36.1566 30.4543Z" fill="white"/>
</g>
</g>
<defs>
<linearGradient id="paint0_linear_504_4713" x1="44.2756" y1="40" x2="44.2756" y2="20.9909" gradientUnits="userSpaceOnUse">
<stop stop-color="#EF3B2F"/>
<stop offset="0.4" stop-color="#F26722"/>
<stop offset="1" stop-color="#FAB07F"/>
</linearGradient>
<clipPath id="clip0_504_4713">
<rect width="116" height="40" fill="white"/>
</clipPath>
<clipPath id="clip1_504_4713">
<rect width="116" height="40" fill="white"/>
</clipPath>
</defs>
</svg>
