<svg width="20" height="20" viewBox="0 0 20 20" fill="none" xmlns="http://www.w3.org/2000/svg">
<g clip-path="url(#clip0_10_14)">
<path d="M3.7642 19.7883L12.6314 10.9209C12.8871 10.6652 12.8872 10.2467 12.6314 9.99097L10.009 7.36845C9.75316 7.11266 9.33473 7.11273 9.07894 7.36845L8.31317 8.1343L7.98095 7.80208C7.84549 7.66648 7.66152 7.59035 7.4698 7.59035C7.27809 7.59035 7.09419 7.66648 6.95865 7.80201L5.26345 9.49736C4.98113 9.7796 4.98113 10.2373 5.26345 10.5197L5.59567 10.8519L0.211736 16.2358C-0.0705787 16.5181 -0.0705787 16.9759 0.211736 17.2581L2.7419 19.7883C2.88306 19.9294 3.06806 20 3.25305 20C3.43805 20 3.62297 19.9294 3.7642 19.7883Z" fill="#FFE605"/>
<path d="M10.3339 5.48825C10.2629 5.8429 10.4142 6.34228 10.6699 6.598L13.402 9.33012C13.6578 9.58591 14.1572 9.73708 14.5117 9.66621L16.999 9.16865C17.3537 9.0977 17.4346 8.83044 17.1788 8.57472L11.4253 2.82124C11.1696 2.56545 10.9024 2.6464 10.8313 3.00105L10.3339 5.48825Z" fill="#FFE605"/>
<path d="M19.7883 7.13765C19.9238 7.00205 19.9999 6.81822 19.9999 6.6265C19.9999 6.43479 19.9238 6.25096 19.7883 6.11535L13.8847 0.211727C13.6023 -0.0705147 13.1447 -0.0705147 12.8624 0.211727L12.0197 1.05436C11.7639 1.31015 11.7639 1.72859 12.0197 1.98438L18.0156 7.98028C18.2714 8.236 18.6899 8.236 18.9456 7.98028L19.7883 7.13765Z" fill="#FFE605"/>
</g>
<defs>
<clipPath id="clip0_10_14">
<rect width="20" height="20" fill="white"/>
</clipPath>
</defs>
</svg>
