<svg width="156" height="60" viewBox="0 0 156 60" fill="none" xmlns="http://www.w3.org/2000/svg">
<g clip-path="url(#clip0_519_5177)">
<path d="M3.27048 10.497C5.43293 6.84406 8.61405 5.01758 12.7781 5.01758C16.4596 5.01758 19.2833 6.35231 21.2313 9.00423C23.1972 11.6561 24.1801 15.3091 24.1801 19.9456C24.1801 21.3681 24.2873 22.4921 24.4839 23.3V23.9147H15.1907C14.9763 23.2297 14.8869 22.3165 14.8869 21.1749V15.151C14.8869 14.2554 14.7082 13.5704 14.3329 13.0787C13.9576 12.5869 13.4036 12.3411 12.653 12.3411C11.9024 12.3411 11.3126 12.6221 10.8837 13.1665C10.4548 13.7109 10.2403 14.4837 10.2403 15.4496V44.2343C10.2403 45.2002 10.4548 45.973 10.8837 46.5174C11.3126 47.0618 11.9024 47.3428 12.653 47.3428C13.4036 47.3428 13.9576 47.097 14.3329 46.5877C14.7082 46.0783 14.8869 45.3934 14.8869 44.5504V38.5265C14.8869 37.385 14.9942 36.4717 15.1907 35.7868H24.4839V36.4015C24.2694 37.1391 24.1801 38.3509 24.1801 40.0545C24.1801 44.6909 23.1972 48.3263 21.2313 50.9958C19.2654 53.6653 16.4417 54.9825 12.7602 54.9825C8.5783 54.9825 5.41505 53.156 3.25261 49.503C1.09016 45.85 0 39.9666 0 31.8353V28.1823C0.0178715 20.0334 1.10803 14.15 3.27048 10.497Z" fill="#272224"/>
<path d="M43.106 5.61426L47.7526 53.7527V54.3673H39.0671L38.0127 42.7937H34.5456L33.4912 54.3673H24.8057V53.7527L29.4522 5.61426H43.106ZM37.9591 34.8556L36.6008 18.1011H35.9753L34.6171 34.8556H37.9591Z" fill="#272224"/>
<path d="M48.0566 37.5957H56.5635C56.8137 38.0875 56.9388 39.0007 56.9388 40.3354V44.849C56.9388 45.7798 57.1353 46.535 57.5643 47.0969C57.9753 47.6589 58.5293 47.9575 59.2442 47.9575C59.9948 47.9575 60.5667 47.6765 60.9777 47.1321C61.3888 46.5876 61.6032 45.8676 61.6032 44.9719V44.0587C61.6032 42.5659 61.1564 40.9852 60.245 39.3695C59.3335 37.7538 58.011 35.8219 56.2775 33.5739L54.4725 31.2557C52.2743 28.4457 50.7374 26.0046 49.8438 23.9146C48.9502 21.8247 48.5034 19.4714 48.5034 16.8721C48.5034 13.3421 49.5221 10.4794 51.5416 8.28416C53.5611 6.08886 56.3133 5 59.7803 5C63.2831 5 66.0175 6.12399 67.9297 8.37197C69.8598 10.6199 70.807 13.7109 70.807 17.6098C70.807 19.1904 70.9321 20.3671 71.1823 21.1398V21.7545H62.8185C62.5683 21.0695 62.4432 20.1563 62.4432 19.0148V14.9403C62.4432 14.0095 62.2287 13.2894 61.8177 12.7801C61.4066 12.2708 60.8705 12.0249 60.2092 12.0249C59.5122 12.0249 58.9225 12.2884 58.4757 12.8152C58.0289 13.3421 57.7966 14.0973 57.7966 15.0632V15.9765C57.7966 17.3639 58.154 18.6986 58.8867 19.9982C59.6016 21.2979 60.799 22.9663 62.461 25.0035L64.3197 27.3217C66.5893 30.1668 68.2514 32.7485 69.3058 35.0667C70.3602 37.385 70.8964 39.9666 70.8964 42.8117C70.8964 46.5525 69.9134 49.5205 67.9297 51.7158C65.946 53.9111 63.2653 55 59.8697 55C56.1167 55 53.2572 53.8585 51.345 51.5578C49.4149 49.2571 48.4677 45.9554 48.4677 41.6526C48.4677 40.1071 48.3426 38.9656 48.0924 38.2455L48.0566 37.5957Z" fill="#272224"/>
<path d="M71.8789 37.5957H80.3679C80.6181 38.0875 80.7431 39.0007 80.7431 40.3354V44.849C80.7431 45.7798 80.9576 46.535 81.3686 47.0969C81.7797 47.6589 82.3337 47.9575 83.0486 47.9575C83.7992 47.9575 84.3711 47.6765 84.7821 47.1321C85.1931 46.5876 85.4076 45.8676 85.4076 44.9719V44.0587C85.4076 42.5659 84.9608 40.9852 84.0494 39.3695C83.1379 37.7538 81.8154 35.8219 80.0819 33.5739L78.2769 31.2557C76.0787 28.4457 74.5418 26.0046 73.6661 23.9146C72.7725 21.8247 72.3257 19.4714 72.3257 16.8721C72.3257 13.3421 73.3444 10.4794 75.3638 8.28416C77.3833 6.08886 80.1355 5 83.6026 5C87.1233 5 89.8397 6.12399 91.752 8.37197C93.6821 10.6199 94.6293 13.7109 94.6293 17.6098C94.6293 19.1904 94.7544 20.3671 95.0046 21.1398V21.7545H86.6407C86.3905 21.0695 86.2654 20.1563 86.2654 19.0148V14.9403C86.2654 14.0095 86.051 13.2894 85.6399 12.7801C85.2289 12.2708 84.6927 12.0249 84.0315 12.0249C83.3345 12.0249 82.7448 12.2884 82.298 12.8152C81.8512 13.3421 81.6189 14.0973 81.6189 15.0632V15.9765C81.6189 17.3639 81.9763 18.6986 82.709 19.9982C83.4239 21.2979 84.6213 22.9663 86.2833 25.0035L88.1419 27.3217C90.4116 30.1668 92.0737 32.7485 93.1281 35.0667C94.1825 37.385 94.7008 39.9666 94.7008 42.8117C94.7008 46.5525 93.7178 49.5205 91.7162 51.7158C89.7325 53.9111 87.0518 55 83.6562 55C79.9032 55 77.0438 53.8585 75.1315 51.5578C73.2014 49.2571 72.2542 45.9554 72.2542 41.6526C72.2542 40.1071 72.1291 38.9656 71.8789 38.2455V37.5957Z" fill="#272224"/>
<path d="M105.978 5.61426V54.3498H96.6846V5.61426H105.978Z" fill="#272224"/>
<path d="M131.391 5.61426V42.1791C131.391 46.1657 130.373 49.2918 128.317 51.5574C126.262 53.8405 123.474 54.9645 119.918 54.9645C116.361 54.9645 113.556 53.8229 111.518 51.5574C109.463 49.2743 108.444 46.1482 108.444 42.1791V5.61426H117.737V44.55C117.737 46.6223 118.452 47.6585 119.9 47.6585C121.348 47.6585 122.062 46.6223 122.062 44.55V5.61426H131.391Z" fill="#272224"/>
<path d="M132.875 37.5957H141.363C141.614 38.0875 141.739 39.0007 141.739 40.3354V44.849C141.739 45.7798 141.953 46.535 142.364 47.0969C142.775 47.6589 143.329 47.9575 144.044 47.9575C144.795 47.9575 145.367 47.6765 145.778 47.1321C146.189 46.5876 146.403 45.8676 146.403 44.9719V44.0587C146.403 42.5659 145.956 40.9852 145.045 39.3695C144.134 37.7538 142.811 35.8219 141.078 33.5739L139.272 31.2557C137.074 28.4457 135.537 26.0046 134.662 23.9146C133.768 21.8247 133.321 19.4714 133.321 16.8721C133.321 13.3421 134.34 10.4794 136.359 8.28416C138.379 6.08886 141.131 5 144.598 5C148.119 5 150.835 6.12399 152.748 8.37197C154.678 10.6199 155.625 13.7109 155.625 17.6098C155.625 19.1904 155.75 20.3671 156 21.1398V21.7545H147.636C147.386 21.0695 147.261 20.1563 147.261 19.0148V14.9403C147.261 14.0095 147.047 13.2894 146.636 12.7801C146.225 12.2708 145.688 12.0249 145.027 12.0249C144.33 12.0249 143.74 12.2884 143.294 12.8152C142.847 13.3421 142.614 14.0973 142.614 15.0632V15.9765C142.614 17.3639 142.972 18.6986 143.705 19.9982C144.419 21.2979 145.617 22.9663 147.279 25.0035L149.138 27.3217C151.407 30.1668 153.069 32.7485 154.124 35.0667C155.178 37.385 155.696 39.9666 155.696 42.8117C155.696 46.5525 154.713 49.5205 152.712 51.7158C150.728 53.9111 148.047 55 144.652 55C140.899 55 138.039 53.8585 136.127 51.5578C134.197 49.2571 133.25 45.9554 133.25 41.6526C133.25 40.1071 133.125 38.9656 132.875 38.2455V37.5957Z" fill="#272224"/>
</g>
<defs>
<clipPath id="clip0_519_5177">
<rect width="156" height="50" fill="white" transform="translate(0 5)"/>
</clipPath>
</defs>
</svg>
