<svg width="94" height="40" viewBox="0 0 94 40" fill="none" xmlns="http://www.w3.org/2000/svg">
<g clip-path="url(#clip0_504_4763)">
<path d="M1.97067 8.40802C3.27369 6.14318 5.19051 5.01076 7.69962 5.01076C9.91798 5.01076 11.6194 5.83829 12.7932 7.48248C13.9778 9.12667 14.5701 11.3915 14.5701 14.2661C14.5701 15.1481 14.6347 15.845 14.7531 16.3458V16.7269H9.1534C9.02417 16.3023 8.97033 15.7361 8.97033 15.0283V11.2935C8.97033 10.7382 8.86264 10.3135 8.6365 10.0086C8.41036 9.70377 8.07653 9.55132 7.62424 9.55132C7.17196 9.55132 6.81659 9.72554 6.55814 10.0631C6.29969 10.4006 6.17047 10.8797 6.17047 11.4786V29.3251C6.17047 29.924 6.29969 30.4031 6.55814 30.7406C6.81659 31.0782 7.17196 31.2524 7.62424 31.2524C8.07653 31.2524 8.41036 31.1 8.6365 30.7842C8.86264 30.4684 8.97033 30.0438 8.97033 29.5211V25.7863C8.97033 25.0785 9.03494 24.5123 9.1534 24.0877H14.7531V24.4688C14.6239 24.9261 14.5701 25.6774 14.5701 26.7336C14.5701 29.6082 13.9778 31.8622 12.7932 33.5173C11.6087 35.1723 9.90721 35.989 7.68885 35.989C5.16898 35.989 3.26292 34.8566 1.9599 32.5917C0.656891 30.3269 0 26.6792 0 21.6377V19.3729C0.0107687 14.3206 0.66766 10.6729 1.97067 8.40802Z" fill="white"/>
<path d="M25.9742 5.38112L28.774 35.2269V35.608H23.5404L22.9051 28.4324H20.816L20.1806 35.608H14.947V35.2269L17.7469 5.38112H25.9742ZM22.8728 23.5107L22.0544 13.123H21.6775L20.859 23.5107H22.8728Z" fill="white"/>
<path d="M28.957 25.2093H34.0829C34.2337 25.5142 34.3091 26.0804 34.3091 26.908V29.7064C34.3091 30.2835 34.4275 30.7517 34.686 31.1001C34.9337 31.4485 35.2675 31.6337 35.6982 31.6337C36.1505 31.6337 36.4951 31.4594 36.7428 31.1219C36.9905 30.7843 37.1197 30.3379 37.1197 29.7826V29.2164C37.1197 28.2908 36.8505 27.3109 36.3013 26.3091C35.7521 25.3073 34.9552 24.1096 33.9106 22.7158L32.823 21.2785C31.4984 19.5364 30.5723 18.0228 30.0339 16.7271C29.4955 15.4313 29.2262 13.9723 29.2262 12.3607C29.2262 10.1721 29.8401 8.39726 31.0569 7.03618C32.2738 5.67509 33.9322 5 36.0213 5C38.132 5 39.7796 5.69687 40.9318 7.09062C42.0948 8.48437 42.6656 10.4008 42.6656 12.8181C42.6656 13.798 42.741 14.5276 42.8917 15.0067V15.3878H37.852C37.7012 14.9631 37.6258 14.3969 37.6258 13.6891V11.163C37.6258 10.5859 37.4966 10.1394 37.2489 9.82367C37.0013 9.5079 36.6782 9.35546 36.2797 9.35546C35.8598 9.35546 35.5044 9.51879 35.2352 9.84545C34.966 10.1721 34.826 10.6403 34.826 11.2392V11.8054C34.826 12.6656 35.0413 13.4932 35.4829 14.2989C35.9136 15.1047 36.6351 16.1391 37.6366 17.4022L38.7565 18.8395C40.1242 20.6034 41.1257 22.2041 41.761 23.6414C42.3964 25.0787 42.7194 26.6793 42.7194 28.4433C42.7194 30.7626 42.1272 32.6027 40.9318 33.9638C39.7365 35.3249 38.1212 36 36.0751 36C33.8137 36 32.0907 35.2922 30.9385 33.8658C29.7755 32.4394 29.2047 30.3923 29.2047 27.7246C29.2047 26.7664 29.1293 26.0587 28.9786 25.6122L28.957 25.2093Z" fill="white"/>
<path d="M43.3118 25.2093H48.4269C48.5777 25.5142 48.653 26.0804 48.653 26.908V29.7064C48.653 30.2835 48.7823 30.7517 49.0299 31.1001C49.2776 31.4485 49.6115 31.6337 50.0422 31.6337C50.4945 31.6337 50.8391 31.4594 51.0868 31.1219C51.3345 30.7843 51.4637 30.3379 51.4637 29.7826V29.2164C51.4637 28.2908 51.1945 27.3109 50.6453 26.3091C50.096 25.3073 49.2992 24.1096 48.2546 22.7158L47.167 21.2785C45.8424 19.5364 44.9163 18.0228 44.3886 16.7271C43.8502 15.4313 43.581 13.9723 43.581 12.3607C43.581 10.1721 44.1948 8.39726 45.4117 7.03618C46.6285 5.67509 48.2869 5 50.376 5C52.4975 5 54.1343 5.69687 55.2866 7.09062C56.4496 8.48437 57.0203 10.4008 57.0203 12.8181C57.0203 13.798 57.0957 14.5276 57.2465 15.0067V15.3878H52.2067C52.056 14.9631 51.9806 14.3969 51.9806 13.6891V11.163C51.9806 10.5859 51.8513 10.1394 51.6037 9.82367C51.356 9.5079 51.0329 9.35546 50.6345 9.35546C50.2145 9.35546 49.8591 9.51879 49.5899 9.84545C49.3207 10.1721 49.1807 10.6403 49.1807 11.2392V11.8054C49.1807 12.6656 49.3961 13.4932 49.8376 14.2989C50.2683 15.1047 50.9898 16.1391 51.9913 17.4022L53.1113 18.8395C54.4789 20.6034 55.4804 22.2041 56.1158 23.6414C56.7511 25.0787 57.0634 26.6793 57.0634 28.4433C57.0634 30.7626 56.4711 32.6027 55.265 33.9638C54.0697 35.3249 52.4544 36 50.4083 36C48.1469 36 46.4239 35.2922 45.2717 33.8658C44.1087 32.4394 43.5379 30.3923 43.5379 27.7246C43.5379 26.7664 43.4625 26.0587 43.3118 25.6122V25.2093Z" fill="white"/>
<path d="M63.8583 5.38112V35.5971H58.2585V5.38112H63.8583Z" fill="white"/>
<path d="M79.1715 5.38112V28.0513C79.1715 30.523 78.5577 32.4612 77.3193 33.8658C76.0809 35.2814 74.401 35.9782 72.258 35.9782C70.115 35.9782 68.4243 35.2705 67.1967 33.8658C65.9583 32.4503 65.3445 30.5121 65.3445 28.0513V5.38112H70.9442V29.5213C70.9442 30.8061 71.375 31.4486 72.2472 31.4486C73.1195 31.4486 73.5502 30.8061 73.5502 29.5213V5.38112H79.1715Z" fill="white"/>
<path d="M80.0654 25.2093H85.1806C85.3313 25.5142 85.4067 26.0804 85.4067 26.908V29.7064C85.4067 30.2835 85.5359 30.7517 85.7836 31.1001C86.0313 31.4485 86.3651 31.6337 86.7959 31.6337C87.2482 31.6337 87.5928 31.4594 87.8404 31.1219C88.0881 30.7843 88.2173 30.3379 88.2173 29.7826V29.2164C88.2173 28.2908 87.9481 27.3109 87.3989 26.3091C86.8497 25.3073 86.0528 24.1096 85.0083 22.7158L83.9206 21.2785C82.5961 19.5364 81.67 18.0228 81.1423 16.7271C80.6039 15.4313 80.3346 13.9723 80.3346 12.3607C80.3346 10.1721 80.9485 8.39726 82.1653 7.03618C83.3822 5.67509 85.0406 5 87.1297 5C89.2511 5 90.888 5.69687 92.0402 7.09062C93.2033 8.48437 93.774 10.4008 93.774 12.8181C93.774 13.798 93.8494 14.5276 94.0001 15.0067V15.3878H88.9604C88.8096 14.9631 88.7342 14.3969 88.7342 13.6891V11.163C88.7342 10.5859 88.605 10.1394 88.3573 9.82367C88.1097 9.5079 87.7866 9.35546 87.3882 9.35546C86.9682 9.35546 86.6128 9.51879 86.3436 9.84545C86.0744 10.1721 85.9344 10.6403 85.9344 11.2392V11.8054C85.9344 12.6656 86.1497 13.4932 86.5913 14.2989C87.022 15.1047 87.7435 16.1391 88.745 17.4022L89.865 18.8395C91.2326 20.6034 92.2341 22.2041 92.8694 23.6414C93.5048 25.0787 93.8171 26.6793 93.8171 28.4433C93.8171 30.7626 93.2248 32.6027 92.0187 33.9638C90.8234 35.3249 89.2081 36 87.162 36C84.9006 36 83.1776 35.2922 82.0253 33.8658C80.8623 32.4394 80.2916 30.3923 80.2916 27.7246C80.2916 26.7664 80.2162 26.0587 80.0654 25.6122V25.2093Z" fill="white"/>
</g>
<defs>
<clipPath id="clip0_504_4763">
<rect width="94" height="31" fill="white" transform="translate(0 5)"/>
</clipPath>
</defs>
</svg>
