<svg width="160" height="60" viewBox="0 0 160 60" fill="none" xmlns="http://www.w3.org/2000/svg">
<g clip-path="url(#clip0_521_6281)">
<g clip-path="url(#clip1_521_6281)">
<path d="M2.7998 20.9504C2.7998 29.6487 9.69443 36.7007 18.1998 36.7007C21.0232 36.7007 23.6686 35.9224 25.9442 34.5661L29.7224 39.5394C30.9881 41.2061 33.5998 40.2903 33.5998 38.1799V20.9504C33.5998 12.2516 26.7052 5.2002 18.1998 5.2002C9.70284 5.19966 2.7998 12.2597 2.7998 20.9504Z" fill="url(#paint0_linear_521_6281)"/>
<path d="M23.7574 17.2271H12.4203C11.6041 17.2271 10.9424 16.5503 10.9424 15.7156C10.9424 14.8809 11.6041 14.2041 12.4203 14.2041H23.7574C24.5736 14.2041 25.2353 14.8809 25.2353 15.7156C25.2353 16.5503 24.5736 17.2271 23.7574 17.2271ZM23.7574 27.367H12.4203C11.6041 27.367 10.9424 26.6902 10.9424 25.8555C10.9424 25.0203 11.6041 24.3435 12.4203 24.3435H23.7574C24.5736 24.3435 25.2353 25.0203 25.2353 25.8555C25.2353 26.6902 24.5736 27.367 23.7574 27.367ZM18.8559 22.239H12.4203C11.6041 22.239 10.9424 21.5622 10.9424 20.7275C10.9424 19.8928 11.6041 19.2161 12.4203 19.2161H18.8559C19.672 19.2161 20.3337 19.8928 20.3337 20.7275C20.3337 21.5622 19.672 22.239 18.8559 22.239Z" fill="white"/>
</g>
<g clip-path="url(#clip2_521_6281)">
<path d="M44.1173 5.90625L40.8633 13.2793C40.8659 14.1009 40.8695 14.922 40.8758 15.7431C40.8836 16.8652 41.5454 17.4216 42.7624 17.4294C43.1901 17.432 43.6178 17.43 44.1173 17.43V5.90625Z" fill="#3B3585"/>
<path d="M42.7314 5.06004C41.5081 5.08396 40.8811 5.63152 40.8744 6.76408C40.8614 8.9356 40.8567 11.1076 40.8634 13.2792L44.1175 5.90608V5.05848C43.6279 5.05848 43.1799 5.0512 42.7314 5.06004Z" fill="#FF4546"/>
<path d="M116.009 14.4494V8.11787C114.911 8.11683 113.812 8.11683 112.714 8.11891V14.4733H108.922V17.4357H119.857V14.4494H116.009Z" fill="#151345"/>
<path d="M116.008 8.11717C117.06 8.11769 118.112 8.11873 119.165 8.11821C119.395 8.11821 119.626 8.09845 119.849 8.08857V5.13965H108.881C108.881 5.95189 108.915 6.69185 108.869 7.42817C108.835 7.96897 109.023 8.13641 109.626 8.13173C110.655 8.12341 111.684 8.11977 112.713 8.11821C113.812 8.11613 114.91 8.11613 116.008 8.11717Z" fill="#353578"/>
<path d="M148.239 34.0429C148.788 33.1709 149.34 32.2999 149.892 31.4294C149.142 30.2162 147.423 27.6048 146.886 26.7848C146.795 26.6444 146.637 26.4405 146.505 26.4379C145.285 26.4109 144.064 26.4223 142.735 26.4223C144.075 28.4685 146.588 32.2994 148.083 34.5822V34.5811C148.075 34.4028 148.14 34.1994 148.239 34.0429Z" fill="#151345"/>
<path d="M155.599 26.4079C154.801 26.4047 154.074 26.4037 153.348 26.4281C153.172 26.4339 152.948 26.6356 152.844 26.7989C151.854 28.3391 150.872 29.8836 149.893 31.429C149.341 32.2995 148.789 33.1705 148.239 34.0425C148.14 34.199 148.075 34.4024 148.084 34.5807V34.5818C148.101 34.966 148.214 35.3472 148.222 35.731C148.243 36.7288 148.229 37.7267 148.229 38.7298H151.529C151.529 37.6118 151.496 36.5416 151.545 35.4746C151.565 35.0617 151.681 34.6093 151.906 34.2552C153.344 31.9906 154.83 29.752 156.281 27.4947L156.286 27.4858C156.588 27.0079 156.203 26.4099 155.599 26.4079Z" fill="#353578"/>
<path d="M46.1025 35.4043C45.808 36.034 45.5151 36.6648 45.2227 37.2955H50.251C49.9835 36.7443 49.6656 36.0871 49.3368 35.4043H46.1025Z" fill="black"/>
<path d="M49.4112 27.8154C49.4434 28.0858 49.4102 28.3573 49.2978 28.5965C48.7676 29.7264 48.2358 30.8559 47.7051 31.9853C48.139 32.9109 48.7551 34.1969 49.3368 35.4038C49.6656 36.0866 49.9835 36.7439 50.251 37.2951C50.4674 37.7417 50.6506 38.1193 50.7796 38.3845C50.8566 38.5415 51.0965 38.7308 51.2672 38.736C52.3369 38.7682 53.4088 38.7521 54.5914 38.7521C53.3489 36.0928 50.905 30.988 49.4112 27.8154Z" fill="#FF4546"/>
<path d="M47.7056 31.9851C48.2363 30.8557 48.7676 29.7262 49.2983 28.5963C49.4107 28.3571 49.444 28.0856 49.4117 27.8152C49.3415 27.2188 48.9533 26.626 48.3924 26.3873C47.5282 26.0202 46.6416 26.3837 46.2045 27.3051C45.4932 28.8048 44.7934 30.3092 44.092 31.8125C43.0275 34.0948 41.966 36.3776 40.8604 38.7529C41.9572 38.7529 42.939 38.7238 43.9177 38.7649C44.4136 38.7857 44.6113 38.6141 44.796 38.2147C44.9375 37.9079 45.0811 37.6017 45.2232 37.2949C45.5156 36.6641 45.8086 36.0333 46.103 35.4036C46.6353 34.2632 47.1702 33.1244 47.7056 31.9851ZM112.018 38.7789C111.518 38.7789 111.09 38.781 110.662 38.7784C109.446 38.7706 108.783 38.2137 108.776 37.0921C108.754 34.0989 108.756 31.1063 108.774 28.1132C108.781 26.9806 109.408 26.4331 110.632 26.4092C111.079 26.4003 111.528 26.4076 112.018 26.4076V38.7789Z" fill="#3B3585"/>
<path d="M91.3368 37.4222C91.3191 34.1894 91.3186 30.9565 91.3383 27.7237C91.343 26.9619 91.9044 26.4663 92.7364 26.4247C93.0293 26.4102 93.3233 26.4091 93.623 26.4112C93.3197 26.4086 93.0226 26.4102 92.7265 26.4247C91.8945 26.4663 91.3326 26.9619 91.3279 27.7237C91.3087 30.9565 91.3092 34.1894 91.3264 37.4222C91.3305 38.1767 91.9585 38.7342 92.7786 38.7721C93.0678 38.7851 93.3134 38.7867 93.5668 38.7846C93.3041 38.7856 93.046 38.7841 92.789 38.7721C91.9684 38.7342 91.3409 38.1767 91.3368 37.4222ZM102.705 29.0263C101.19 27.0316 99.2565 26.4102 96.4005 26.4102C96.4005 26.4102 94.7042 26.4232 94.5653 26.4195V29.3471L96.1773 29.3232C96.8302 29.2982 97.7772 29.4038 98.3803 29.6399C99.0062 29.8853 99.6394 30.3206 100.018 30.8291C100.396 31.3372 100.658 32.0506 100.613 32.6522C100.564 33.3251 100.24 34.0557 99.8075 34.6142C98.9719 35.6932 97.6612 35.7395 96.2792 35.7743H94.5653V38.7758L96.2792 38.7643C99.2518 38.7643 101.561 38.0171 103.029 35.6844C104.44 33.4416 104.322 31.1562 102.705 29.0263Z" fill="#151345"/>
<path d="M94.5659 29.3469V26.4199V26.4193C94.2417 26.4193 93.9296 26.4131 93.6236 26.411C93.3239 26.4089 93.0299 26.4105 92.737 26.4245C91.9055 26.4661 91.3436 26.9617 91.3389 27.7235C91.3191 30.9563 91.3202 34.1892 91.3373 37.422C91.3415 38.1766 91.969 38.7345 92.7895 38.7719C93.0466 38.7839 93.3047 38.7855 93.5674 38.7844C93.889 38.7829 94.2183 38.7772 94.5659 38.7772V38.7756V35.7741V29.3469ZM65.7696 29.4151C66.1343 29.5258 66.561 29.6964 67.0261 29.959C67.3201 30.1176 67.4627 30.2252 67.4627 30.2252L69.8608 28.3714C69.8608 28.3714 68.1079 26.1807 64.5104 26.1807C62.7908 26.1807 60.4213 26.9019 58.9482 28.7001C62.17 28.4702 64.4017 28.9382 65.7696 29.4151Z" fill="#353578"/>
<path d="M64.5102 35.9705C61.2952 35.9705 60.9471 33.371 60.9143 32.5921C60.9471 31.8126 61.2952 29.2136 64.5102 29.2136C64.5102 29.2136 65.0024 29.1819 65.7694 29.4149C64.4015 28.938 62.1699 28.47 58.9481 28.6999C58.1431 29.6816 57.6056 30.9847 57.588 32.668L57.5869 32.6685C57.5869 32.6825 57.5874 32.6961 57.5874 32.7106C57.5874 32.7247 57.5869 32.7382 57.5869 32.7527H57.588C57.6379 37.5144 61.8509 39.0037 64.5102 39.0037C67.1852 39.0037 69.8606 36.8129 69.8606 36.8129L67.462 34.9591C65.7387 36.0443 64.4535 35.9611 64.5102 35.9705ZM78.7039 35.4037C78.4099 36.0334 78.117 36.6642 77.8246 37.2949H82.9044C82.6391 36.7474 82.3206 36.0896 81.9902 35.4037H78.7039ZM82.0386 27.7607C82.0703 28.0311 82.037 28.3026 81.9247 28.5418C81.3945 29.6717 80.8632 30.8012 80.332 31.9306C80.7732 32.8703 81.4012 34.1812 81.9902 35.4037C82.3206 36.0896 82.6391 36.7474 82.9044 37.2949C83.1094 37.7177 83.2832 38.0755 83.407 38.3297C83.4835 38.4873 83.7239 38.6761 83.894 38.6813C84.9643 38.7135 86.0362 38.6979 87.2189 38.6979C85.9764 36.0381 83.5324 30.9333 82.0386 27.7607Z" fill="#151345"/>
<path d="M77.8242 37.2947C78.1166 36.664 78.4095 36.0332 78.7035 35.4035C79.2447 34.245 79.7879 33.0874 80.3316 31.9304L80.3327 31.928C80.8636 30.7994 81.3945 29.6707 81.9243 28.5416C82.0367 28.3024 82.07 28.0309 82.0382 27.7605C81.968 27.1641 81.5798 26.5713 81.0189 26.3326C80.1547 25.9655 79.2675 26.329 78.8305 27.2504C78.1192 28.7501 77.4199 30.2545 76.7185 31.7578C75.654 34.0401 74.5925 36.3229 73.4863 38.6982C74.5832 38.6982 75.5655 38.6691 76.5442 38.7102C77.0396 38.731 77.2378 38.5594 77.4225 38.16C77.5557 37.8714 77.6905 37.5833 77.8242 37.2947Z" fill="#353578"/>
<path fill-rule="evenodd" clip-rule="evenodd" d="M46.8438 51.808C47.0691 52.1029 47.1815 52.4653 47.1815 52.8959C47.1815 53.5053 46.9447 53.9738 46.4707 54.3014C45.9967 54.6295 45.3063 54.7933 44.3983 54.7933H40.7998V47.8389H44.1995C45.0477 47.8389 45.6986 48.0016 46.1528 48.3261C46.6065 48.6506 46.8339 49.091 46.8339 49.6474C46.8339 49.9849 46.7522 50.2865 46.5904 50.5512C46.4275 50.8164 46.2007 51.0249 45.9093 51.1773C46.3068 51.3031 46.6185 51.5132 46.8438 51.808ZM42.4003 49.051V50.6906H44.0003C44.3983 50.6906 44.6996 50.6209 44.9051 50.4815C45.1106 50.3427 45.2136 50.1373 45.2136 49.8658C45.2136 49.5944 45.1106 49.3905 44.9051 49.2548C44.6996 49.1191 44.3983 49.051 44.0003 49.051H42.4003ZM45.2381 53.3727C45.4535 53.2339 45.5612 53.0186 45.5612 52.7269C45.5612 52.1507 45.134 51.8626 44.2786 51.8626H42.4003V53.5812H44.2786C44.7027 53.5812 45.0227 53.5115 45.2381 53.3727ZM54.1001 49.4483L51.6848 55.1215C51.4397 55.7371 51.1364 56.1708 50.7753 56.4225C50.4137 56.6742 49.9782 56.8 49.4677 56.8C49.1899 56.8 48.9146 56.7569 48.643 56.6711C48.3709 56.5847 48.1493 56.4657 47.977 56.3133L48.5437 55.2104C48.6628 55.3165 48.8002 55.3997 48.9557 55.4589C49.1118 55.5187 49.2659 55.5484 49.4183 55.5484C49.6301 55.5484 49.8023 55.4969 49.935 55.3945C50.0677 55.292 50.1868 55.1215 50.293 54.8828L50.3127 54.8334L47.9968 49.4483H49.5973L51.0984 53.0747L52.6094 49.4483H54.1001Z" fill="#353578"/>
<path fill-rule="evenodd" clip-rule="evenodd" d="M63.086 54.7933L61.7441 52.8558H60.2627V54.7933H58.6523V47.8389H61.6644C62.281 47.8389 62.8159 47.9418 63.2701 48.1472C63.7239 48.3526 64.0735 48.6438 64.3186 49.0213C64.5636 49.3989 64.6864 49.8461 64.6864 50.3624C64.6864 50.8793 64.5621 51.3244 64.3139 51.6988C64.0652 52.0732 63.7124 52.3592 63.2551 52.5579L64.816 54.7933H63.086ZM62.6785 49.4633C62.4267 49.2548 62.0588 49.1503 61.575 49.1503H60.2627V51.5746H61.575C62.0588 51.5746 62.4267 51.4685 62.6785 51.2563C62.9304 51.0447 63.0563 50.7467 63.0563 50.3624C63.0563 49.9719 62.9304 49.6719 62.6785 49.4633ZM71.7341 49.4483V54.7933H70.2632V54.1574C70.0577 54.3893 69.8121 54.5666 69.5275 54.6893C69.2423 54.8115 68.9343 54.8729 68.6029 54.8729C67.9004 54.8729 67.3437 54.6711 66.9326 54.2671C66.5221 53.8631 66.3166 53.2635 66.3166 52.4684V49.4483H67.8671V52.2402C67.8671 53.1013 68.2287 53.5318 68.9509 53.5318C69.3219 53.5318 69.6201 53.4112 69.8454 53.1689C70.0707 52.9276 70.1836 52.5678 70.1836 52.0909V49.4483H71.7341ZM77.7385 49.9599C78.1824 50.3541 78.4045 50.9485 78.4045 51.7436V54.7933H76.9529V54.1278C76.6615 54.6244 76.1183 54.8729 75.3227 54.8729C74.9117 54.8729 74.5558 54.8032 74.254 54.6644C73.9527 54.525 73.7222 54.3332 73.5635 54.0882C73.4043 53.8433 73.3247 53.5651 73.3247 53.2536C73.3247 52.757 73.512 52.366 73.8861 52.081C74.2608 51.7966 74.8388 51.6541 75.6209 51.6541H76.8535C76.8535 51.3161 76.751 51.0566 76.5455 50.8741C76.3399 50.6921 76.0319 50.6011 75.6209 50.6011C75.3362 50.6011 75.0558 50.6458 74.7811 50.7353C74.5058 50.8247 74.2722 50.9453 74.0802 51.0977L73.5235 50.0146C73.8148 49.8097 74.1645 49.6506 74.5724 49.5377C74.9798 49.4254 75.3987 49.3692 75.8295 49.3692C76.6584 49.3692 77.2942 49.5663 77.7385 49.9599ZM76.4164 53.6457C76.6214 53.5235 76.7676 53.3431 76.8535 53.1044V52.5579H75.79C75.1536 52.5579 74.8357 52.7669 74.8357 53.1839C74.8357 53.3826 74.9138 53.5401 75.0693 53.6561C75.2249 53.7715 75.4388 53.8298 75.7104 53.8298C75.9757 53.8298 76.2109 53.7684 76.4164 53.6457ZM85.1593 49.9651C85.5667 50.3624 85.7707 50.9521 85.7707 51.7337V54.7933H84.2196V51.9718C84.2196 51.548 84.127 51.2319 83.9412 51.0233C83.756 50.8143 83.4875 50.7103 83.1363 50.7103C82.745 50.7103 82.4339 50.831 82.2018 51.0728C81.9698 51.3146 81.8537 51.6739 81.8537 52.1507V54.7933H80.3032V49.4483H81.784V50.0743C81.9895 49.8492 82.2445 49.6755 82.5499 49.5528C82.8543 49.4306 83.1888 49.3692 83.5536 49.3692C84.2165 49.3692 84.7514 49.5679 85.1593 49.9651ZM93.2455 49.4483V53.8995C93.2455 54.8792 92.9905 55.6082 92.4801 56.085C91.9697 56.5619 91.2246 56.8 90.2438 56.8C89.7266 56.8 89.2359 56.7371 88.7723 56.6118C88.3082 56.4854 87.9242 56.3034 87.6193 56.0648L88.2354 54.9525C88.4607 55.1376 88.7458 55.2853 89.0903 55.3945C89.4347 55.5037 89.7797 55.5583 90.1241 55.5583C90.6611 55.5583 91.0571 55.4376 91.312 55.1958C91.567 54.954 91.695 54.5885 91.695 54.0981V53.8693C91.2907 54.3134 90.7272 54.5349 90.005 54.5349C89.5143 54.5349 89.0658 54.4273 88.6579 54.212C88.2505 53.9972 87.9274 53.6941 87.6891 53.303C87.4502 52.9125 87.3311 52.4622 87.3311 51.9521C87.3311 51.4425 87.4502 50.9921 87.6891 50.6011C87.9274 50.2101 88.2505 49.9074 88.6579 49.6921C89.0658 49.4769 89.5143 49.3692 90.005 49.3692C90.7803 49.3692 91.3703 49.624 91.7746 50.1341V49.4483H93.2455ZM91.3219 52.9011C91.5841 52.6593 91.7147 52.3431 91.7147 51.9521C91.7147 51.5615 91.5841 51.2449 91.3219 51.0036C91.0602 50.7618 90.724 50.6406 90.313 50.6406C89.902 50.6406 89.5643 50.7618 89.2994 51.0036C89.0341 51.2449 88.9014 51.5615 88.9014 51.9521C88.9014 52.3431 89.0341 52.6593 89.2994 52.9011C89.5643 53.1423 89.902 53.2635 90.313 53.2635C90.724 53.2635 91.0602 53.1423 91.3219 52.9011ZM100.701 49.4483V53.8995C100.701 54.8792 100.446 55.6082 99.9357 56.085C99.4253 56.5619 98.6797 56.8 97.6994 56.8C97.1822 56.8 96.6915 56.7371 96.2279 56.6118C95.7638 56.4854 95.3798 56.3034 95.0749 56.0648L95.691 54.9525C95.9163 55.1376 96.2014 55.2853 96.5459 55.3945C96.8903 55.5037 97.2353 55.5583 97.5797 55.5583C98.1167 55.5583 98.5126 55.4376 98.7676 55.1958C99.0226 54.954 99.1506 54.5885 99.1506 54.0981V53.8693C98.7463 54.3134 98.1828 54.5349 97.4606 54.5349C96.9699 54.5349 96.5214 54.4273 96.1135 54.212C95.7061 53.9972 95.383 53.6941 95.1447 53.303C94.9058 52.9125 94.7867 52.4622 94.7867 51.9521C94.7867 51.4425 94.9058 50.9921 95.1447 50.6011C95.383 50.2101 95.7061 49.9074 96.1135 49.6921C96.5214 49.4769 96.9699 49.3692 97.4606 49.3692C98.2358 49.3692 98.8259 49.624 99.2302 50.1341V49.4483H100.701ZM98.7775 52.9011C99.0397 52.6593 99.1703 52.3431 99.1703 51.9521C99.1703 51.5615 99.0397 51.2449 98.7775 51.0036C98.5158 50.7618 98.1796 50.6406 97.7686 50.6406C97.3575 50.6406 97.0199 50.7618 96.755 51.0036C96.4897 51.2449 96.357 51.5615 96.357 51.9521C96.357 52.3431 96.4897 52.6593 96.755 52.9011C97.0199 53.1423 97.3575 53.2635 97.7686 53.2635C98.1796 53.2635 98.5158 53.1423 98.7775 52.9011ZM108.027 49.4483V54.7933H106.556V54.1574C106.351 54.3893 106.106 54.5666 105.82 54.6893C105.536 54.8115 105.227 54.8729 104.896 54.8729C104.193 54.8729 103.637 54.6711 103.226 54.2671C102.815 53.8631 102.61 53.2635 102.61 52.4684V49.4483H104.161V52.2402C104.161 53.1013 104.522 53.5318 105.244 53.5318C105.615 53.5318 105.914 53.4112 106.139 53.1689C106.364 52.9276 106.477 52.5678 106.477 52.0909V49.4483H108.027ZM112.197 49.5679C112.512 49.4353 112.875 49.3692 113.286 49.3692V50.7998C113.114 50.7868 112.998 50.7795 112.938 50.7795C112.494 50.7795 112.146 50.9038 111.894 51.1523C111.642 51.4009 111.517 51.7732 111.517 52.2698V54.7933H109.966V49.4483H111.447V50.1539C111.632 49.8955 111.883 49.6999 112.197 49.5679ZM120.135 49.4483V54.7933H118.664V54.1574C118.458 54.3893 118.213 54.5666 117.928 54.6893C117.644 54.8115 117.335 54.8729 117.004 54.8729C116.301 54.8729 115.744 54.6711 115.334 54.2671C114.923 53.8631 114.717 53.2635 114.717 52.4684V49.4483H116.268V52.2402C116.268 53.1013 116.63 53.5318 117.352 53.5318C117.723 53.5318 118.021 53.4112 118.247 53.1689C118.472 52.9276 118.584 52.5678 118.584 52.0909V49.4483H120.135Z" fill="#353578"/>
<path d="M133.43 10.0714C132.11 9.76722 130.686 9.60498 130.686 8.6929C130.686 8.22802 130.964 7.90458 131.361 7.71582H131.36C131.36 7.71582 128.175 7.71062 127.493 10.6034C128.14 11.4843 129.331 12.0396 130.996 12.5045C132.265 12.8487 133.793 13.1124 133.793 14.025C133.793 14.6531 133.197 15.079 132.239 15.079C131.359 15.079 130.634 14.5112 130.634 13.8019H126.931C126.931 15.9911 128.847 17.7757 132.239 17.7757C135.166 17.7757 137.496 15.9911 137.496 13.8425C137.496 11.9367 136.201 10.7199 133.43 10.0714Z" fill="#151345"/>
<path d="M131.36 7.7159H131.361C131.64 7.58382 131.976 7.51674 132.317 7.51674C133.378 7.51674 133.923 8.0851 133.923 8.7741H137.496C137.289 6.52354 135.657 4.80078 132.213 4.80078C129.287 4.80078 126.931 6.58438 126.931 8.73354C126.931 9.49274 127.123 10.1011 127.493 10.6035C128.175 7.7107 131.36 7.7159 131.36 7.7159Z" fill="#353578"/>
<path d="M152.619 5.20508V9.9896H146.534V12.5641H152.619V17.3694H156.4V5.20508H152.619Z" fill="#151345"/>
<path d="M146.534 5.08094C145.963 5.08094 145.44 5.07366 144.918 5.0825C143.49 5.10642 142.759 5.65294 142.751 6.78394V6.82346C142.741 8.30442 142.735 9.7859 142.735 11.2674C142.735 12.7177 142.741 14.1679 142.753 15.6177C142.753 15.6619 142.753 15.7061 142.754 15.7503C142.763 16.8709 143.535 17.4268 144.953 17.4346C145.452 17.4372 145.951 17.4346 146.534 17.4346V17.3701V5.20574V5.08094Z" fill="#353578"/>
<path d="M44.1172 14.4948H51.4359V17.4302H44.1172V14.4948ZM44.1172 9.75293H50.681V12.6795H44.1172V9.75293Z" fill="#151345"/>
<path d="M51.2413 7.96071H44.1172V5.05859H51.2413V7.96071ZM57.9295 7.67159C57.9097 7.65131 57.8931 7.62739 57.8754 7.60503C57.6553 7.34919 57.5153 7.02315 57.4929 6.66539L57.4882 6.66019V17.5199H60.7309C60.7309 16.1861 60.7345 12.1961 60.7267 10.5982C59.7938 9.62315 58.8614 8.64763 57.9295 7.67159Z" fill="#151345"/>
<path d="M69.8192 5.85346V5.2201H66.5033V11.9796C65.1223 10.5033 63.8908 9.1435 62.6061 7.82686C61.7039 6.9023 61.6024 6.68546 60.2777 5.49882C60.1955 5.4073 60.1039 5.32514 60.003 5.25442C60.0014 5.25338 59.9998 5.25182 59.9983 5.25026C59.9858 5.23934 59.9655 5.22686 59.941 5.21386C59.6939 5.05734 59.402 4.96582 59.0877 4.96582C58.992 4.96582 58.8989 4.9757 58.8078 4.99182C58.749 4.99754 58.697 5.00898 58.6538 5.02666C57.9815 5.21594 57.4883 5.83162 57.4883 6.56378C57.4883 6.96158 57.6345 7.32506 57.8754 7.60482C57.8931 7.62718 57.9097 7.6511 57.9295 7.67138C60.9161 10.8002 63.9064 13.9259 66.9029 17.0465C67.5194 17.6892 68.2177 17.8941 68.8686 17.6226C69.6137 17.3122 69.8333 16.7428 69.8286 16.0158C69.8073 12.6285 69.8192 9.24126 69.8192 5.85346Z" fill="#353578"/>
<path d="M80.0013 9.9664V12.5097H83.3501C83.2715 13.6714 82.273 14.8326 80.2168 14.8326C78.2583 14.8326 76.7114 13.4306 76.7114 11.2082C76.7114 9.89984 77.277 8.76832 78.2437 8.13184C77.0184 8.66536 75.5464 9.7012 73.8008 11.5217C73.9501 14.9558 76.5465 17.6166 80.158 17.6166C84.4271 17.6166 86.4636 14.6526 86.4636 11.1083V9.9664H80.0013Z" fill="#151345"/>
<path d="M78.2438 8.13196C78.3729 8.04668 78.5092 7.97076 78.6523 7.9042C78.658 7.90108 78.6642 7.89848 78.6705 7.89588C78.8099 7.8314 78.9561 7.7768 79.1081 7.73156C79.1195 7.72844 79.131 7.72532 79.1424 7.7222C79.208 7.70348 79.2746 7.68632 79.3427 7.67124C79.3542 7.66864 79.3656 7.66604 79.3776 7.66344C79.4541 7.64732 79.5316 7.63328 79.6107 7.62236C79.6237 7.62028 79.6367 7.61924 79.6497 7.61716C79.7158 7.60884 79.7819 7.60208 79.8495 7.59636C79.8708 7.5948 79.8922 7.59324 79.9135 7.5922C79.9936 7.587 80.0753 7.58336 80.1581 7.58336C81.2741 7.58336 82.2731 8.04408 83.076 8.78508L84.0745 7.84388L85.0735 6.90268C84.6879 6.50228 84.2753 6.1466 83.8242 5.84708C83.6442 5.72748 83.4574 5.6162 83.2638 5.51532C83.0703 5.41392 82.8699 5.3224 82.6613 5.24128C82.4532 5.16016 82.2372 5.08944 82.013 5.02964C81.4516 4.87988 80.8376 4.7998 80.1581 4.7998C80.0431 4.7998 79.9296 4.80292 79.8167 4.80812C79.7787 4.80968 79.7413 4.81384 79.7033 4.81592C79.6294 4.8206 79.555 4.82476 79.4822 4.83204C79.4369 4.8362 79.3927 4.84244 79.3479 4.84764C79.2834 4.85492 79.2184 4.8622 79.1544 4.87104C79.106 4.87832 79.0592 4.88716 79.0113 4.89496C78.952 4.90484 78.8921 4.9142 78.8333 4.92512C78.7839 4.935 78.736 4.94644 78.6871 4.95684C78.6315 4.96932 78.5753 4.98076 78.5196 4.99428C78.4702 5.00624 78.4218 5.02028 78.3729 5.03328C78.3198 5.04784 78.2662 5.06188 78.2136 5.07748C78.1642 5.09204 78.1153 5.10868 78.0664 5.1248C78.0159 5.14092 77.9655 5.15652 77.916 5.1742C77.8661 5.19188 77.8177 5.21112 77.7683 5.22984C77.7209 5.24804 77.673 5.2652 77.6262 5.28444C77.5768 5.30472 77.5284 5.32656 77.4795 5.34788C77.4347 5.36764 77.3895 5.3874 77.3452 5.4082C77.2958 5.43108 77.2474 5.45552 77.199 5.47996C77.1569 5.50128 77.1142 5.52208 77.0726 5.54392C77.0237 5.56992 76.9758 5.59748 76.9279 5.62452C76.8884 5.64688 76.8483 5.66924 76.8093 5.69264C76.7609 5.72124 76.7136 5.7514 76.6662 5.78156C76.6293 5.80496 76.5918 5.82836 76.5554 5.8528C76.5075 5.88452 76.4607 5.91728 76.4139 5.95056C76.3795 5.975 76.3447 5.99944 76.3108 6.0244C76.264 6.05924 76.2177 6.09512 76.1719 6.131C76.1397 6.15648 76.1074 6.18144 76.0762 6.20744C76.0299 6.24488 75.9846 6.28388 75.9393 6.32288C75.9097 6.34888 75.8805 6.37436 75.8514 6.40088C75.8061 6.44196 75.7619 6.48356 75.7177 6.52568C75.6906 6.5522 75.6636 6.5782 75.637 6.60472C75.5928 6.64892 75.5496 6.69364 75.5064 6.7394C75.482 6.7654 75.4575 6.7914 75.4331 6.81844C75.3904 6.86576 75.3483 6.91412 75.3066 6.96248C75.2843 6.989 75.2619 7.015 75.2406 7.04152C75.1984 7.09248 75.1578 7.14396 75.1178 7.19596C75.0975 7.22196 75.0777 7.24796 75.0585 7.27396C75.0179 7.32804 74.9788 7.38264 74.9403 7.43828C74.9226 7.46376 74.905 7.48924 74.8878 7.51524C74.8493 7.57244 74.8113 7.63068 74.7744 7.68944C74.7588 7.7144 74.7437 7.73936 74.7286 7.76484C74.6916 7.82568 74.6557 7.88704 74.6209 7.94944C74.6073 7.97336 74.5943 7.9978 74.5813 8.02172C74.5465 8.0862 74.5121 8.1512 74.4793 8.21724C74.4679 8.24064 74.457 8.26404 74.4455 8.28692C74.4127 8.35504 74.381 8.42368 74.3508 8.49284C74.3409 8.5152 74.3316 8.53704 74.3222 8.5594C74.292 8.63116 74.2624 8.70292 74.2343 8.77624C74.2265 8.79652 74.2192 8.81784 74.2114 8.83812C74.1833 8.91352 74.1567 8.98944 74.1312 9.06588C74.125 9.08512 74.1193 9.10436 74.113 9.1236C74.0881 9.20264 74.0636 9.2822 74.0418 9.3628C74.0365 9.37996 74.0324 9.39764 74.0277 9.4148C74.0053 9.498 73.9845 9.5812 73.9653 9.66596C73.9616 9.68104 73.959 9.69612 73.9554 9.71068C73.9361 9.79804 73.9184 9.88592 73.9028 9.97432C73.9002 9.9868 73.8987 9.9998 73.8966 10.0123C73.8805 10.1038 73.8664 10.1958 73.8539 10.2889C73.8529 10.2983 73.8518 10.3076 73.8508 10.317C73.8383 10.4137 73.8279 10.5104 73.8196 10.6082C73.8191 10.6139 73.8191 10.6196 73.8185 10.6254C73.8102 10.7268 73.804 10.8292 73.7998 10.9327V10.9332L73.8008 11.5172V11.5203C73.8008 11.5208 73.8008 11.5213 73.8008 11.5218C75.5465 9.70132 77.0185 8.66548 78.2438 8.13196Z" fill="#353578"/>
<path d="M95.9145 14.4236H92.1084V5.20508H95.9145V14.4236ZM112.018 35.8424H119.336V38.7778H112.018V35.8424ZM112.018 31.1006H118.582V34.0271H112.018V31.1006ZM119.142 29.3086H112.018V26.4065H119.142V29.3086ZM125.244 27.7226C125.244 27.7263 125.242 27.7289 125.242 27.7325V38.7596H128.484V31.7859C127.565 30.8125 126.645 29.8406 125.738 28.8578C125.41 28.5021 125.251 28.1038 125.244 27.7226Z" fill="black"/>
<path d="M103.077 14.4238H92.1081C92.1081 15.2361 92.1118 15.9199 92.0967 16.7118C92.1118 17.2734 92.2507 17.4201 92.8543 17.4154C96.0334 17.3899 99.213 17.4039 102.392 17.4024C102.623 17.4019 102.854 17.3826 103.077 17.3727V14.4238Z" fill="#353578"/>
<path d="M127.767 26.5514L127.84 26.6205C127.816 26.5966 127.792 26.5737 127.767 26.5514ZM139.184 27.6803C139.184 26.8436 138.505 26.1661 137.669 26.1661C137.194 26.1661 136.77 26.3845 136.492 26.7266C136.269 26.9169 136.068 27.1359 135.864 27.3537C134.676 28.6283 133.476 29.8924 132.251 31.1929C130.962 29.831 129.743 28.4962 128.461 27.2133L127.84 26.6205L127.767 26.5514L127.76 26.5446V26.5457C127.493 26.3096 127.142 26.1661 126.758 26.1661C126.75 26.1661 126.742 26.1671 126.734 26.1671C126.68 26.164 126.642 26.1681 126.617 26.1728C125.881 26.2404 125.299 26.8343 125.248 27.5747C125.245 27.6085 125.243 27.6423 125.243 27.6761C125.243 27.6777 125.242 27.6787 125.242 27.6803C125.242 27.6829 125.243 27.686 125.243 27.6886C125.243 27.7001 125.244 27.7115 125.244 27.7229C125.252 28.1041 125.41 28.5019 125.739 28.8581C126.645 29.8409 127.565 30.8128 128.484 31.7862C128.534 31.8393 128.584 31.8928 128.634 31.9459C129.827 33.211 131.022 34.4741 132.248 35.771C133.455 34.4954 134.612 33.2739 135.91 31.9037V38.7313H139.184V38.034C139.184 34.732 139.184 31.43 139.184 28.128V27.6803Z" fill="#353578"/>
</g>
</g>
<defs>
<linearGradient id="paint0_linear_521_6281" x1="4.17936" y1="48.6656" x2="35.399" y2="2.69686" gradientUnits="userSpaceOnUse">
<stop stop-color="#151342"/>
<stop offset="0.459" stop-color="#353587"/>
<stop offset="0.849" stop-color="#FF4546"/>
<stop offset="1" stop-color="#FF4546"/>
</linearGradient>
<clipPath id="clip0_521_6281">
<rect width="160" height="60" fill="white"/>
</clipPath>
<clipPath id="clip1_521_6281">
<rect width="30.8" height="35.2" fill="white" transform="translate(2.7998 5.2002)"/>
</clipPath>
<clipPath id="clip2_521_6281">
<rect width="115.6" height="52" fill="white" transform="translate(40.7998 4.7998)"/>
</clipPath>
</defs>
</svg>
