<svg width="210" height="60" viewBox="0 0 210 60" fill="none" xmlns="http://www.w3.org/2000/svg">
<path d="M21.5911 51.2817C21.794 51.5278 22.0096 51.7631 22.2372 51.9867C22.0142 51.7637 21.7977 51.5293 21.5911 51.2817ZM21.5911 51.2817C21.794 51.5278 22.0096 51.7631 22.2372 51.9867C22.0142 51.7637 21.7977 51.5293 21.5911 51.2817ZM57.8167 56.8458V53.9441C57.8167 53.8277 57.6527 53.7326 57.433 53.7326H52.0213V49.962C52.0213 49.8456 51.8573 49.7538 51.6391 49.7538H47.3475C47.7371 46.9934 47.906 44.2064 47.8526 41.4192C47.8193 39.8395 47.6945 38.263 47.4787 36.6977H47.0343L43.989 41.9667C44.6637 42.3557 45.2551 42.8739 45.7294 43.4915C46.2037 44.1092 46.5515 44.8143 46.753 45.5664C46.9545 46.3186 47.0057 47.1031 46.9037 47.875C46.8017 48.647 46.5485 49.3913 46.1586 50.0653L46.1274 50.0456L32.7211 42.3077L32.69 42.2897C33.0788 41.6153 33.5968 41.0241 34.2144 40.55C34.8319 40.0759 35.537 39.7282 36.2891 39.5268C37.0412 39.3253 37.8257 39.2741 38.5976 39.376C39.3696 39.4779 40.1139 39.731 40.7879 40.1208L42.9001 36.4617C44.0422 34.4932 45.0366 32.4427 45.8749 30.3271C45.5016 29.3606 45.0508 28.4258 44.5269 27.5319C44.2841 27.1204 44.0349 26.722 43.7479 26.3335C43.5478 26.045 43.3314 25.7663 43.11 25.4925C42.946 25.2843 42.759 25.081 42.577 24.8843C40.0893 22.1793 36.7455 20.6301 32.6129 20.2596V12.4577H39.7908C39.8185 12.4579 39.846 12.4527 39.8716 12.4422C39.8973 12.4318 39.9206 12.4163 39.9403 12.3968C39.96 12.3773 39.9756 12.3541 39.9862 12.3286C39.9969 12.303 40.0023 12.2756 40.0023 12.2479V8.55269C40.0021 8.52514 39.9965 8.49789 39.9858 8.47251C39.975 8.44714 39.9594 8.42412 39.9397 8.40479C39.9201 8.38546 39.8968 8.37018 39.8712 8.35984C39.8457 8.34949 39.8184 8.34428 39.7908 8.34449H32.6129V0.209842C32.6129 0.154471 32.591 0.101346 32.552 0.0620399C32.513 0.0227337 32.46 0.000432583 32.4047 0H27.5292C27.4738 0.000432583 27.4208 0.0227337 27.3818 0.0620399C27.3428 0.101346 27.3209 0.154471 27.3209 0.209842V8.34449H20.2939H20.2513C20.2049 8.3552 20.1634 8.38126 20.1336 8.41845C20.1039 8.45564 20.0875 8.50179 20.0873 8.54942V12.2446C20.0872 12.2923 20.1035 12.3386 20.1333 12.3758C20.1631 12.4131 20.2047 12.4391 20.2513 12.4495C20.2654 12.4514 20.2797 12.4514 20.2939 12.4495H27.3209V20.3645C23.272 20.8776 20.0332 22.3891 17.6602 24.8794C17.3111 25.2467 16.9826 25.6331 16.6763 26.0368C16.6025 26.1335 16.5303 26.2302 16.4614 26.3286C14.2689 29.3565 13.3456 33.1435 13.0176 36.6715C12.8771 38.3569 12.8519 40.05 12.9422 41.7388C13.0252 43.3309 13.1894 44.9177 13.4342 46.4931C13.4752 46.7685 13.5178 47.0357 13.5621 47.2898C13.6523 47.8259 13.7457 48.3095 13.8327 48.7374C13.9114 49.1227 13.9835 49.462 14.0475 49.7473H8.43407C8.22416 49.7473 8.05034 49.8391 8.05034 49.9555V53.7261H2.63863C2.42708 53.7261 2.25488 53.8211 2.25488 53.9375V56.8393H0V60H60.0716V56.8458H57.8167ZM44.9877 52.067C44.9877 52.0752 44.9778 52.0867 44.9713 52.0949C44.9286 52.1621 44.8844 52.2326 44.8384 52.2998C44.7007 52.5162 44.5564 52.7277 44.4088 52.9326C44.3563 53.008 44.3038 53.0834 44.2448 53.1556C44.0808 53.3785 43.9168 53.5933 43.7528 53.8031C43.6446 53.9375 43.5347 54.0671 43.4248 54.1933C43.0865 54.5849 42.728 54.9587 42.3507 55.313C42.29 55.3704 42.231 55.4261 42.1687 55.4769C41.9243 55.7015 41.6767 55.9114 41.4258 56.113C41.3635 56.1638 41.2995 56.2114 41.2372 56.2589L41.047 56.4048C40.9256 56.4966 40.801 56.5868 40.6747 56.6737L40.5944 56.7294C40.491 56.8015 40.3845 56.8688 40.2795 56.9376C39.4164 57.4998 38.4914 57.9608 37.5228 58.3114C37.39 58.359 37.2588 58.4049 37.1259 58.4459C37.0587 58.4688 36.9931 58.4901 36.9275 58.5082C36.8619 58.5262 36.7947 58.5475 36.7307 58.5655C36.4651 58.6426 36.2027 58.7098 35.9403 58.7655C35.8796 58.7787 35.8206 58.7918 35.7599 58.8016C35.65 58.8246 35.5434 58.8459 35.4319 58.8639L35.2827 58.8885L35.0957 58.918C35.0351 58.9262 34.9727 58.936 34.9104 58.9426L34.6956 58.9688L34.3906 58.9983C34.2643 59.0082 34.138 59.018 34.0117 59.0229H33.8756C33.5821 59.0328 33.2918 59.0328 33.0081 59.0229C32.8884 59.0229 32.7687 59.0131 32.6506 59.0016C32.5326 58.9901 32.4342 58.9852 32.3227 58.9737L32.1767 58.9557L31.9832 58.9295L31.8192 58.9065C31.7356 58.8951 31.6552 58.8803 31.5699 58.8639C31.4158 58.8344 31.2682 58.8032 31.1206 58.7688C31.0042 58.7393 30.8894 58.7098 30.7779 58.677C30.6795 58.6491 30.5843 58.6213 30.4925 58.5901L30.3777 58.5524C30.3138 58.5327 30.2514 58.5098 30.1891 58.4852L30.0448 58.4311C29.848 58.3524 29.6578 58.2672 29.4758 58.1786C29.3807 58.1311 29.2855 58.0803 29.1953 58.0294C29.1051 57.9786 29.0314 57.9376 28.9576 57.8868C28.9194 57.8658 28.8827 57.8423 28.8477 57.8163C28.6032 57.6619 28.3727 57.4864 28.1589 57.2917C29.6782 57.1866 31.1518 56.7274 32.4618 55.9508C33.7717 55.1742 34.8816 54.1018 35.7025 52.8195C35.7583 52.7326 35.8124 52.6441 35.8665 52.5539C35.9206 52.4637 35.9928 52.3359 36.0551 52.226C34.1476 53.9967 31.6201 54.9465 29.0182 54.8704C28.9658 54.8704 28.9149 54.8704 28.8542 54.8704C28.7936 54.8704 28.7263 54.8704 28.6624 54.8605C28.5984 54.8507 28.5213 54.8523 28.4508 54.8458L28.2475 54.8277L28.1114 54.8097C28.0425 54.8097 27.9769 54.7966 27.908 54.7851C27.8391 54.7736 27.726 54.7605 27.6358 54.7441C27.4324 54.7113 27.2307 54.672 27.029 54.6244C26.9355 54.6031 26.8437 54.5802 26.7502 54.5556C26.6568 54.531 26.5633 54.5064 26.4731 54.4802C26.3501 54.4458 26.2287 54.4097 26.109 54.3671C26.0156 54.3376 25.9237 54.3064 25.8319 54.2703C25.74 54.2343 25.6679 54.208 25.5793 54.1753C25.4629 54.1294 25.3465 54.0818 25.2333 54.031C25.1202 53.9802 25.0365 53.9441 24.9398 53.8966C24.843 53.849 24.7758 53.8179 24.6938 53.7736C24.6118 53.7293 24.5298 53.6933 24.4527 53.6457C24.4002 53.6195 24.3445 53.5884 24.2887 53.5572C23.9291 53.3521 23.5829 53.1244 23.2523 52.8752C23.1703 52.8146 23.0883 52.7523 23.0145 52.6883C22.9407 52.6244 22.862 52.567 22.7882 52.5047C22.7702 52.4883 22.7489 52.4719 22.7308 52.4539C22.6554 52.39 22.5832 52.326 22.5111 52.2588L22.3225 52.0801C22.293 52.0539 22.2634 52.0244 22.2339 51.9932C22.0109 51.7703 21.7944 51.5358 21.5878 51.2883C21.2205 50.8435 20.8914 50.3686 20.6038 49.8686C21.5711 50.5433 22.6824 50.9836 23.8494 51.1543C25.0165 51.325 26.2073 51.2216 27.3275 50.8522H27.3406L27.3996 50.8309C27.4816 50.8047 27.5636 50.7735 27.6473 50.7424C27.7309 50.7112 27.8014 50.685 27.8769 50.6522C28.0982 50.5604 28.3131 50.4571 28.5328 50.3456C28.6312 50.2932 28.7263 50.2385 28.8182 50.1817C28.8969 50.1374 28.9821 50.0899 29.0527 50.0374C29.2547 49.9104 29.4501 49.773 29.6381 49.6259C26.4485 51.1489 23.2933 50.244 21.2385 48.221C21.104 48.0898 20.9745 47.9521 20.8515 47.8128C20.7875 47.739 20.7236 47.6652 20.6629 47.5882C20.2762 47.1127 19.946 46.5939 19.6789 46.0422C19.6346 45.9554 19.5937 45.8652 19.5543 45.7767L19.5363 45.734C19.4903 45.6275 19.4461 45.5209 19.4051 45.4062C19.3756 45.3291 19.3477 45.2504 19.3198 45.1717C19.3067 45.1307 19.2936 45.0898 19.2788 45.0488C19.175 44.7269 19.0933 44.3982 19.0345 44.0651C19.0197 43.9864 19.0082 43.9012 18.9951 43.8291C18.9372 43.4324 18.913 43.0315 18.9229 42.6307V42.5798C18.9229 42.5159 18.9229 42.452 18.9328 42.388C18.9426 42.3241 18.9328 42.252 18.9475 42.1815C18.959 42.0454 18.9754 41.9061 18.9984 41.7667C18.9984 41.7077 19.0164 41.6454 19.0262 41.5847C19.0262 41.5651 19.0263 41.5438 19.0394 41.5241C19.0492 41.4683 19.059 41.4093 19.0722 41.3601C19.1017 41.2224 19.1345 41.0831 19.1738 40.9454C19.1919 40.8765 19.2099 40.8077 19.2329 40.7372C19.2919 40.5454 19.3591 40.3552 19.4379 40.1634C19.4739 40.0765 19.5084 39.9896 19.5494 39.9027C19.6084 39.7716 19.6707 39.6421 19.738 39.5109C19.9497 39.1085 20.195 38.7247 20.471 38.3633C22.7177 48.8866 28.3147 42.0766 32.1144 43.8635L40.9502 48.962L39.9056 51.5752L42.8443 50.0555L45.3435 51.4981C45.2205 51.6883 45.1041 51.8817 44.9877 52.067ZM21.5911 51.2817C21.794 51.5278 22.0096 51.7631 22.2372 51.9867C22.0142 51.7637 21.7977 51.5293 21.5911 51.2817Z" fill="#39B54A"/>
<path fill-rule="evenodd" clip-rule="evenodd" d="M17.931 59.9998H48.8876L47.1115 54.5701C46.8307 53.739 46.8254 52.8395 47.0967 52.0051C47.3679 51.1708 47.901 50.4462 48.617 49.9388L48.8794 49.7487H47.351C47.7406 46.9883 47.9095 44.2012 47.8561 41.414C47.8228 39.8343 47.698 38.2578 47.4822 36.6926H47.0345L43.9892 41.9665C44.6639 42.3555 45.2553 42.8737 45.7296 43.4913C46.2039 44.109 46.5517 44.8141 46.7532 45.5662C46.9547 46.3184 47.0059 47.1028 46.9039 47.8748C46.8019 48.6467 46.5487 49.391 46.1588 50.0651L46.1276 50.0454L32.7213 42.3075L32.6902 42.2895C33.079 41.615 33.597 41.0239 34.2146 40.5498C34.8321 40.0757 35.5372 39.728 36.2893 39.5265C37.0414 39.3251 37.8259 39.2739 38.5978 39.3758C39.3698 39.4777 40.114 39.7308 40.7881 40.1205L42.9003 36.4614C44.0424 34.493 45.0368 32.4425 45.8751 30.3268C48.8663 22.7496 48.922 16.1068 45.5864 14.1805C43.7825 13.1444 41.2997 13.6428 38.5906 15.3281C40.442 14.5084 42.1147 14.4002 43.3988 15.1412C46.0997 16.7002 46.3801 21.6266 44.527 27.5399C43.6696 30.2196 42.5335 32.8021 41.1374 35.245C40.7961 34.8319 40.5372 34.3572 40.3748 33.8466L37.341 24.4578C37.0724 23.6269 36.5472 22.9024 35.841 22.3885C35.1347 21.8746 34.2836 21.5978 33.4101 21.5978C32.5366 21.5978 31.6855 21.8746 30.9792 22.3885C30.2729 22.9024 29.7478 23.6269 29.4792 24.4578L26.4454 33.8466C26.1844 34.6832 25.6605 35.4134 24.9515 35.9287C24.2425 36.444 23.3862 36.7171 22.5096 36.7073L13.0244 36.6877C12.8839 38.3731 12.8587 40.0662 12.9489 41.755C13.032 43.3471 13.1962 44.9339 13.4409 46.5092L18.1967 49.952C18.9126 50.4593 19.4458 51.1839 19.717 52.0182C19.9882 52.8526 19.983 53.7521 19.7021 54.5832L17.931 59.9998ZM19.7349 39.5074C19.9467 39.105 20.1919 38.7212 20.4679 38.3598C22.7146 48.8831 28.3116 42.0731 32.1113 43.86L40.9471 48.9585L39.9025 51.5717L42.8412 50.052L45.3405 51.4946C45.2273 51.6897 45.1109 51.8832 44.9944 52.0684C44.9944 52.0766 44.9846 52.0881 44.978 52.0963C44.9354 52.1635 44.8911 52.234 44.8452 52.3012C44.7074 52.5176 44.5631 52.7291 44.4155 52.934C44.3631 53.0094 44.3106 53.0848 44.2516 53.157C44.0876 53.3799 43.9236 53.5947 43.7596 53.8045C43.6513 53.939 43.5415 54.0685 43.4316 54.1947C43.0933 54.5864 42.7347 54.9601 42.3575 55.3144C42.2968 55.3718 42.2377 55.4275 42.1754 55.4783C41.9311 55.7029 41.6834 55.9128 41.4325 56.1144C41.3702 56.1652 41.3063 56.2128 41.2439 56.2603L41.0537 56.4062C40.9324 56.498 40.8077 56.5882 40.6815 56.6751L40.6011 56.7308C40.4978 56.803 40.3912 56.8702 40.2862 56.939C39.421 57.5011 38.4938 57.9615 37.523 58.3112C37.3902 58.3587 37.259 58.4047 37.1261 58.4456C37.0589 58.4686 36.9933 58.4899 36.9277 58.5079C36.8621 58.526 36.7949 58.5473 36.7309 58.5653C36.4653 58.6424 36.2029 58.7096 35.9405 58.7653C35.8798 58.7784 35.8208 58.7915 35.7601 58.8014C35.6502 58.8243 35.5436 58.8456 35.4321 58.8637L35.2829 58.8883L35.0959 58.9178C35.0352 58.926 34.9729 58.9358 34.9106 58.9424L34.6958 58.9686L34.3908 58.9981C34.2645 59.0079 34.1382 59.0178 34.0119 59.0227H33.8758C33.5823 59.0325 33.292 59.0325 33.0083 59.0227C32.8886 59.0227 32.7689 59.0129 32.6508 59.0014C32.5328 58.9899 32.4344 58.985 32.3228 58.9735L32.1769 58.9555L31.9834 58.9293L31.8194 58.9063C31.7357 58.8948 31.6554 58.8801 31.5701 58.8637C31.416 58.8342 31.2684 58.803 31.1208 58.7686C31.0043 58.7391 30.8896 58.7096 30.778 58.6768C30.6796 58.6489 30.5845 58.6211 30.4927 58.5899L30.3779 58.5522C30.314 58.5325 30.2516 58.5096 30.1893 58.485L30.045 58.4309C29.8482 58.3522 29.658 58.2669 29.476 58.1784C29.3808 58.1309 29.2857 58.08 29.1955 58.0292C29.1053 57.9784 29.0315 57.9374 28.9577 57.8866C28.9196 57.8656 28.8829 57.8421 28.8479 57.8161C28.6034 57.6617 28.3729 57.4862 28.1591 57.2915C29.6784 57.1864 31.152 56.7272 32.462 55.9506C33.7719 55.174 34.8818 54.1016 35.7027 52.8193C35.7585 52.7324 35.8126 52.6438 35.8667 52.5537C35.9208 52.4635 35.993 52.3356 36.0553 52.2258C34.1478 53.9965 31.6203 54.9463 29.0184 54.8701C28.9659 54.8701 28.9151 54.8701 28.8544 54.8701C28.7938 54.8701 28.7265 54.8701 28.6626 54.8603C28.5986 54.8505 28.5215 54.8521 28.451 54.8455L28.2477 54.8275L28.1115 54.8095C28.0427 54.8095 27.9771 54.7964 27.9082 54.7849C27.8393 54.7734 27.7262 54.7587 27.636 54.7439C27.4326 54.7111 27.2309 54.6718 27.0292 54.6242C26.9357 54.6029 26.8439 54.58 26.7504 54.5554C26.657 54.5308 26.5635 54.5062 26.4733 54.48C26.3503 54.4455 26.2289 54.4095 26.1092 54.3668C26.0157 54.3373 25.9239 54.3062 25.8321 54.2701C25.7402 54.234 25.6681 54.2078 25.5795 54.175C25.4631 54.1291 25.3467 54.0816 25.2335 54.0308C25.1204 53.9799 25.0367 53.9439 24.94 53.8963C24.8432 53.8488 24.776 53.8176 24.694 53.7734C24.612 53.7291 24.53 53.693 24.4529 53.6455C24.4004 53.6193 24.3447 53.5881 24.2889 53.557C23.9293 53.3519 23.5831 53.1241 23.2525 52.875C23.1705 52.8143 23.0885 52.752 23.0147 52.6881C22.9409 52.6242 22.8622 52.5668 22.7884 52.5045C22.7704 52.4881 22.749 52.4717 22.731 52.4537C22.6556 52.3897 22.5834 52.3258 22.5112 52.2586L22.3227 52.0799C22.2932 52.0537 22.2636 52.0242 22.2341 51.993C22.0066 51.7695 21.7909 51.5342 21.588 51.2881C21.2207 50.8433 20.8916 50.3684 20.604 49.8684C21.5713 50.5431 22.6826 50.9833 23.8496 51.1541C25.0167 51.3248 26.2075 51.2214 27.3277 50.852L27.3998 50.829C27.4818 50.8028 27.5638 50.7717 27.6475 50.7405C27.7311 50.7094 27.8016 50.6831 27.8771 50.6503C28.0984 50.5585 28.3133 50.4553 28.533 50.3438C28.6314 50.2913 28.7265 50.2367 28.8184 50.1798C28.8971 50.1356 28.9823 50.088 29.0529 50.0356C29.2549 49.9085 29.4503 49.7711 29.6383 49.6241C26.4487 51.1471 23.2935 50.2421 21.2387 48.2191C21.1042 48.088 20.9747 47.9503 20.8517 47.8109C20.7877 47.7371 20.7237 47.6634 20.6631 47.5863C20.2764 47.1108 19.9462 46.592 19.6791 46.0404C19.6348 45.9535 19.5939 45.8633 19.5545 45.7748L19.5364 45.7322C19.4905 45.6256 19.4463 45.5191 19.4053 45.4043C19.3757 45.3272 19.3479 45.2486 19.32 45.1699C19.3069 45.1289 19.2937 45.0879 19.279 45.0469C19.1752 44.725 19.0935 44.3964 19.0346 44.0633C19.0199 43.9846 19.0084 43.8993 18.9953 43.8272C18.9374 43.4305 18.9132 43.0296 18.9231 42.6288V42.578C18.9231 42.5146 18.9264 42.4507 18.933 42.3862C18.933 42.3173 18.933 42.2501 18.9477 42.1796C18.9592 42.0435 18.9756 41.9042 18.9986 41.7649C19.0048 41.7038 19.0141 41.643 19.0264 41.5829C19.0264 41.5632 19.0265 41.5419 19.0396 41.5222C19.0476 41.467 19.0585 41.4123 19.0724 41.3583C19.0993 41.2184 19.1332 41.08 19.174 40.9435C19.1904 40.8747 19.2101 40.8058 19.2331 40.7353C19.2921 40.5435 19.3593 40.3533 19.4381 40.1615C19.4741 40.0746 19.5086 39.9878 19.5496 39.9009C19.6053 39.7697 19.6709 39.6402 19.7382 39.5091C19.7251 39.5074 19.7267 39.5074 19.7267 39.5074H19.7349ZM47.9577 33.004C47.8253 33.0036 47.6958 33.0426 47.5856 33.1159C47.4753 33.1892 47.3893 33.2935 47.3384 33.4157C47.2875 33.5379 47.2741 33.6725 47.2997 33.8023C47.3253 33.9322 47.3889 34.0515 47.4824 34.1452C47.5759 34.2389 47.6951 34.3028 47.825 34.3287C47.9548 34.3547 48.0894 34.3415 48.2118 34.2909C48.3341 34.2404 48.4387 34.1546 48.5123 34.0446C48.5859 33.9346 48.6252 33.8052 48.6252 33.6728C48.6245 33.5848 48.6066 33.4977 48.5723 33.4166C48.538 33.3355 48.488 33.2619 48.4253 33.2001C48.3625 33.1383 48.2882 33.0895 48.2066 33.0564C48.125 33.0233 48.0376 33.0066 47.9495 33.0072L47.9577 33.004ZM51.8312 25.6857C51.623 25.6857 51.4194 25.7475 51.2463 25.8631C51.0732 25.9788 50.9382 26.1431 50.8585 26.3354C50.7789 26.5278 50.758 26.7394 50.7986 26.9435C50.8392 27.1477 50.9395 27.3352 51.0868 27.4824C51.234 27.6296 51.4216 27.7299 51.6258 27.7705C51.8301 27.8111 52.0417 27.7902 52.2341 27.7106C52.4265 27.6309 52.5909 27.496 52.7066 27.3229C52.8223 27.1499 52.884 26.9464 52.884 26.7382C52.8838 26.5995 52.8562 26.4622 52.8026 26.3343C52.7491 26.2063 52.6707 26.0903 52.5721 25.9927C52.4735 25.8952 52.3565 25.8181 52.2279 25.766C52.0994 25.7139 51.9617 25.6877 51.823 25.689L51.8312 25.6857ZM53.8516 28.0055C53.3803 28.8244 52.6029 29.4226 51.6905 29.6685C50.778 29.9145 49.8052 29.788 48.986 29.317C49.3919 29.5499 49.7479 29.8606 50.0336 30.2313C50.3193 30.6019 50.529 31.0253 50.6509 31.477C50.7727 31.9288 50.8043 32.4002 50.7437 32.8642C50.6831 33.3282 50.5317 33.7757 50.2979 34.181C50.5318 33.7759 50.8432 33.4207 51.2145 33.1359C51.5857 32.8511 52.0094 32.6423 52.4614 32.5212C52.9134 32.4002 53.3848 32.3694 53.8488 32.4305C54.3127 32.4917 54.76 32.6437 55.1651 32.8777C54.7582 32.6451 54.4012 32.3346 54.1145 31.9638C53.8277 31.5931 53.617 31.1695 53.4942 30.7173C53.3714 30.265 53.3391 29.793 53.399 29.3282C53.4589 28.8635 53.6099 28.4151 53.8434 28.0087L53.8516 28.0055Z" fill="#39B54A"/>
<path fill-rule="evenodd" clip-rule="evenodd" d="M21.2324 48.2179C21.0979 48.0867 20.9683 47.949 20.8453 47.8097C20.7814 47.7359 20.7174 47.6621 20.6567 47.5851C20.27 47.1096 19.9398 46.5908 19.6728 46.0391C19.6285 45.9523 19.5875 45.8621 19.5482 45.7736L19.5301 45.7309C19.4842 45.6244 19.4399 45.5178 19.3989 45.4031C19.3694 45.326 19.3415 45.2473 19.3136 45.1686C19.3005 45.1276 19.2874 45.0867 19.2727 45.0457C19.1688 44.7238 19.0872 44.3951 19.0283 44.062C19.0135 43.9833 19.0021 43.8981 18.9889 43.826C18.931 43.4293 18.9069 43.0284 18.9168 42.6276V42.5767C18.9168 42.5128 18.9168 42.4489 18.9266 42.3849C18.9365 42.321 18.9266 42.2489 18.9414 42.1784C18.9529 42.0423 18.9693 41.903 18.9922 41.7636C18.9922 41.7046 19.0103 41.6423 19.0201 41.5816C19.0201 41.562 19.0201 41.5407 19.0332 41.521C19.0431 41.4652 19.0529 41.4062 19.066 41.357C19.0955 41.2193 19.1283 41.08 19.1677 40.9423C19.1857 40.8734 19.2038 40.8046 19.2267 40.7341C19.2858 40.5423 19.353 40.3521 19.4317 40.1603C19.4678 40.0734 19.5022 39.9865 19.5432 39.8996C19.6023 39.7685 19.6646 39.639 19.7318 39.5078C16.2208 45.0424 21.3012 51.9475 27.3345 50.8426H27.3476L27.4066 50.8212C27.4886 50.795 27.5706 50.7639 27.6542 50.7327C27.7379 50.7016 27.8084 50.6753 27.8838 50.6425C28.1052 50.5507 28.32 50.4475 28.5398 50.336C28.6382 50.2835 28.7333 50.2289 28.8251 50.172C28.9038 50.1278 28.9891 50.0802 29.0596 50.0278C29.2617 49.9007 29.4571 49.7634 29.6451 49.6163C26.4423 51.1475 23.2872 50.2409 21.2324 48.2179ZM32.7216 42.3063C32.5891 42.4864 32.4665 42.6736 32.3542 42.8669L45.8244 50.6425C45.9366 50.4489 46.0379 50.2491 46.1278 50.0442L32.7216 42.3063ZM44.9881 52.0672C44.9881 52.0754 44.9783 52.0868 44.9717 52.095C44.9291 52.1623 44.8848 52.2328 44.8389 52.3C44.7011 52.5164 44.5568 52.7278 44.4092 52.9328C44.3567 53.0082 44.3043 53.0836 44.2452 53.1557C44.0812 53.3787 43.9172 53.5934 43.7532 53.8033C43.645 53.9377 43.5351 54.0672 43.4253 54.1935C43.0869 54.5851 42.7284 54.9589 42.3511 55.3132C42.2904 55.3705 42.2314 55.4296 42.1691 55.4771C41.9247 55.7017 41.6771 55.9115 41.4262 56.1132C41.3639 56.164 41.2999 56.2115 41.2376 56.2591L41.0474 56.405C40.926 56.4968 40.8014 56.587 40.6751 56.6739L40.5948 56.7296C40.4915 56.8017 40.3849 56.8689 40.2799 56.9378C39.4168 57.5 38.4918 57.961 37.5232 58.3116C37.3904 58.3591 37.2592 58.4051 37.1264 58.446C37.0591 58.469 36.9935 58.4903 36.9279 58.5083C36.8623 58.5264 36.7951 58.5493 36.7312 58.5657C36.4655 58.6428 36.2031 58.71 35.9407 58.7657C35.88 58.7788 35.821 58.7919 35.7603 58.8018C35.6504 58.8247 35.5438 58.846 35.4323 58.8641L35.2831 58.8887L35.0961 58.9182C35.0355 58.9264 34.9732 58.9362 34.9108 58.9428L34.696 58.969L34.391 58.9985C34.2647 59.0083 34.1384 59.0182 34.0122 59.0231H33.8761C33.5825 59.0329 33.2922 59.0329 33.0085 59.0231C32.8888 59.0231 32.7691 59.0133 32.6511 59.0018C32.533 58.9903 32.4346 58.9854 32.3231 58.9739L32.1771 58.9559L31.9836 58.9297L31.8196 58.9067C31.736 58.8952 31.6556 58.8805 31.5703 58.8641C31.4162 58.8346 31.2686 58.8034 31.121 58.769C31.0046 58.7395 30.8898 58.71 30.7783 58.6772C30.6799 58.6493 30.5848 58.6215 30.4929 58.5903L30.3781 58.5526C30.3142 58.5329 30.2519 58.51 30.1895 58.4854L30.0452 58.4313C29.8484 58.3526 29.6582 58.2673 29.4762 58.1788C29.3811 58.1313 29.2859 58.0804 29.1958 58.0296C29.1056 57.9788 29.0318 57.9378 28.958 57.887C28.9198 57.866 28.8831 57.8425 28.8481 57.8165C28.817 57.7997 28.7868 57.7811 28.7579 57.7608C28.4496 57.8116 28.1397 57.8477 27.8248 57.8706C31.2046 60.9445 40.1323 60.5018 45.0012 52.0688L44.9881 52.0672ZM29.0137 54.8705C28.9612 54.8705 28.9104 54.8705 28.8497 54.8705C28.7891 54.8705 28.7218 54.8705 28.6579 54.8607C28.5939 54.8509 28.5168 54.8525 28.4463 54.8459L28.243 54.8279L28.1068 54.8099C28.038 54.8099 27.9724 54.7968 27.9035 54.7853C27.8346 54.7738 27.7215 54.7607 27.6313 54.7443C27.4279 54.7115 27.2262 54.6722 27.0245 54.6246C26.931 54.6033 26.8392 54.5804 26.7457 54.5558C26.6523 54.5312 26.5588 54.5082 26.4686 54.4804C26.3456 54.4459 26.2242 54.4099 26.1045 54.3672C26.011 54.3377 25.9192 54.3066 25.8274 54.2705C25.7356 54.2344 25.6634 54.2082 25.5748 54.1754C25.4584 54.1295 25.342 54.082 25.2288 54.0312C25.1157 53.9803 25.032 53.9443 24.9353 53.8967C24.8385 53.8492 24.7713 53.818 24.6893 53.7738C24.6073 53.7295 24.5253 53.6934 24.4482 53.6459C24.3957 53.6197 24.34 53.5885 24.2842 53.5574C23.9246 53.3523 23.5784 53.1245 23.2478 52.8754C23.1658 52.8147 23.0838 52.7524 23.01 52.6885C22.9362 52.6246 22.8575 52.5688 22.7837 52.5049C22.7657 52.4885 22.7444 52.4721 22.7263 52.4541C22.6509 52.3901 22.5787 52.3262 22.5066 52.259C22.4344 52.1918 22.3803 52.1426 22.318 52.0803C22.2885 52.0541 22.2589 52.0245 22.2294 51.9934C22.0019 51.7699 21.7862 51.5346 21.5833 51.2885C21.5374 51.236 21.4964 51.1835 21.4537 51.1245C21.0385 50.9342 20.6411 50.7071 20.2664 50.4458C21.0136 51.7431 22.0428 52.8561 23.278 53.7023C24.5132 54.5485 25.9228 55.1064 27.4028 55.3348C28.8827 55.5632 30.395 55.4562 31.828 55.0217C33.261 54.5872 34.5779 53.8363 35.6816 52.8246C35.7374 52.7377 35.7915 52.6492 35.8456 52.559C35.8997 52.4688 35.9719 52.3409 36.0342 52.2311C34.1301 53.996 31.6093 54.9437 29.0137 54.8705Z" fill="#009444"/>
<path d="M100.052 45.0064C100.128 45.5853 100.415 46.1158 100.858 46.4956C101.301 46.8755 101.87 47.0778 102.453 47.0637H102.968V47.3928H93.0864V47.0825H93.6009C94.3091 47.0825 94.9608 46.3865 94.8836 45.6767L93.582 33.7653L87.422 44.415C87.422 44.415 86.1993 46.4516 86.1547 48.0494H85.8443L77.3812 33.8459L76.0864 45.675C76.0076 46.3848 76.6592 47.0791 77.3675 47.0808H77.882V47.3911H71V47.062H71.5145C72.6961 47.062 73.7439 46.3008 73.9154 45.0047L76.6404 23.918H76.9456L87.1494 40.6913L96.9244 23.9283H97.2245L100.052 45.0064Z" fill="#3C2415"/>
<path d="M124.078 45.1608C124.79 46.5049 125.915 47.0672 126.884 47.0672H127.165V47.3964H116.685V47.0707H116.975C117.833 47.0707 118.748 46.3215 118.246 45.0134L116.627 40.9503H108.91L107.228 45.0134C106.687 46.3283 107.636 47.0707 108.485 47.0707H108.774V47.3964H101.716V47.0672H102.012C102.947 47.0672 104.081 46.5203 104.779 45.214L112.384 28.0292C112.619 27.5286 113.928 24.6793 114.001 23.7227H114.303L124.078 45.1608ZM116.07 39.5583L112.852 31.4853L109.483 39.5583H116.07Z" fill="#3C2415"/>
<path d="M151.581 36.6983C150.517 36.6983 149.919 37.2332 149.943 38.1881V43.6209C148.4 45.6182 144.313 47.8571 139.045 47.8571C131.578 47.8571 126.606 43.2506 126.606 35.8566C126.606 28.5242 131.477 23.9297 139.235 23.9297C142.854 23.9297 146.374 24.7269 148.305 25.7109L148.37 31.3512H148.096C146.858 26.8938 143.738 25.3149 140.23 25.3132C134.85 25.3132 131.969 29.3745 131.969 36.0554C131.969 42.3986 134.631 46.4719 139.475 46.4805C141.898 46.4805 144.277 45.3079 145.049 43.2232V38.195C145.049 37.2349 144.419 36.6966 143.358 36.6983H142.843V36.3743H152.082V36.7035L151.581 36.6983Z" fill="#3C2415"/>
<path d="M180.365 35.8899C180.365 43.2771 175.188 47.8562 167.102 47.8562C159.016 47.8562 153.841 43.2771 153.841 35.8899C153.841 28.5027 159.018 23.9219 167.102 23.9219C175.186 23.9219 180.365 28.501 180.365 35.8899ZM174.958 35.8899C174.958 29.3599 171.925 25.3054 167.102 25.3054C162.28 25.3054 159.248 29.3599 159.248 35.8899C159.248 42.4199 162.282 46.4727 167.102 46.4727C171.923 46.4727 174.958 42.4199 174.958 35.8899Z" fill="#3C2415"/>
<path d="M201.918 45.1608C202.63 46.5049 203.757 47.0672 204.725 47.0672H205V47.3964H194.522V47.0707H194.812C195.669 47.0707 196.585 46.3215 196.082 45.0134L194.463 40.9503H186.746L185.064 45.0134C184.524 46.3283 185.472 47.0707 186.321 47.0707H186.611V47.3964H179.559V47.0672H179.854C180.789 47.0672 181.924 46.5203 182.622 45.214L190.228 28.0292C190.461 27.5286 191.771 24.6793 191.845 23.7227H192.141L201.918 45.1608ZM193.911 39.5583L190.694 31.4853L187.324 39.5583H193.911Z" fill="#3C2415"/>
<path d="M89.1454 54.1856C88.9464 54.1856 88.8349 54.2868 88.8384 54.4651V55.4937C88.5486 55.8674 87.782 56.2874 86.7942 56.2874C85.3948 56.2874 84.4619 55.4302 84.4619 54.0365C84.4619 52.6427 85.376 51.7992 86.8302 51.7992C87.4152 51.7913 87.9952 51.9082 88.5314 52.1421L88.5434 53.1998H88.492C88.2604 52.3615 87.6757 52.0667 87.0171 52.0667C86.0088 52.0667 85.4737 52.8278 85.4737 54.081C85.4737 55.2811 85.9745 56.0354 86.8817 56.0371C87.3361 56.0371 87.782 55.8177 87.9277 55.4268V54.4839C87.9277 54.3125 87.8094 54.2028 87.6105 54.2028H87.5128V54.141H89.2448V54.2028L89.1454 54.1856Z" fill="#39B54A"/>
<path d="M93.1221 51.876C93.8698 51.876 94.5883 52.1794 94.5883 53.0383C94.5883 53.5527 94.2796 54.1407 93.5799 54.211C93.8433 54.3196 94.0642 54.511 94.2093 54.7561C94.2282 54.787 94.5969 55.3733 94.8301 55.663C95.0959 56.0059 95.2709 56.1259 95.5933 56.1293V56.1928H94.993C94.3174 56.1928 93.8492 56.0333 93.5439 55.5533C93.3499 55.2127 93.1781 54.86 93.0294 54.4973C92.9145 54.2367 92.7722 54.1081 92.6127 54.0807V54.0224H92.8014C93.1323 54.0224 93.4702 53.851 93.5799 53.3092C93.5988 53.211 93.6063 53.1109 93.6022 53.0109C93.5782 52.4212 93.2798 52.1537 92.8751 52.1537C92.7036 52.1537 92.4841 52.1537 92.4069 52.1537V55.7539C92.4092 55.8574 92.4519 55.956 92.526 56.0284C92.6 56.1008 92.6995 56.1414 92.8031 56.1413H92.8802V56.2031H91.0059V56.1413H91.0847C91.1879 56.1414 91.2869 56.101 91.3606 56.0289C91.4344 55.9568 91.4769 55.8587 91.4792 55.7556V52.3183C91.4774 52.2149 91.435 52.1164 91.3613 52.0439C91.2875 51.9714 91.1882 51.9308 91.0847 51.9309H91.0059V51.8691L93.1221 51.876Z" fill="#39B54A"/>
<path d="M100.819 55.7733C100.865 55.8756 100.939 55.9631 101.032 56.0263C101.125 56.0895 101.233 56.126 101.345 56.1316H101.397V56.1934H99.4313V56.1316H99.4845C99.5304 56.1333 99.576 56.1229 99.6166 56.1014C99.6572 56.0799 99.6915 56.0481 99.716 56.0093C99.7405 55.9704 99.7543 55.9257 99.7561 55.8798C99.7579 55.8339 99.7476 55.7883 99.7263 55.7476L99.4227 54.9864H97.9754L97.6598 55.7476C97.6373 55.788 97.6259 55.8335 97.6268 55.8797C97.6277 55.9259 97.6409 55.971 97.665 56.0105C97.689 56.0499 97.7231 56.0822 97.7638 56.1041C97.8045 56.126 97.8503 56.1367 97.8965 56.1351H97.9514V56.1968H96.6274V56.1351H96.684C96.7927 56.1296 96.8979 56.0948 96.9885 56.0345C97.0791 55.9741 97.1516 55.8904 97.1985 55.7922L98.6253 52.5692C98.7532 52.3109 98.8549 52.0403 98.9288 51.7617H98.9837L100.819 55.7733ZM99.3164 54.7224L98.7128 53.2086L98.0817 54.7224H99.3164Z" fill="#39B54A"/>
<path d="M106.7 51.876V51.9377H106.645C106.536 51.9434 106.431 51.9782 106.341 52.0385C106.25 52.0989 106.177 52.1825 106.13 52.2806L104.669 55.5087C104.542 55.7673 104.44 56.0377 104.366 56.3162H104.311L102.442 52.2909C102.395 52.1895 102.322 52.1029 102.229 52.0405C102.136 51.9782 102.028 51.9427 101.917 51.9377H101.867V51.876H103.831V51.9377H103.776C103.73 51.9373 103.685 51.9487 103.646 51.9708C103.606 51.9928 103.572 52.0248 103.548 52.0637C103.525 52.1025 103.511 52.1468 103.51 52.1923C103.508 52.2379 103.518 52.283 103.539 52.3234L104.584 54.8727L105.671 52.3234C105.694 52.2832 105.705 52.2377 105.704 52.1916C105.703 52.1454 105.69 52.1003 105.666 52.061C105.642 52.0216 105.608 51.9895 105.567 51.9678C105.526 51.9461 105.48 51.9357 105.434 51.9377H105.381V51.876H106.7Z" fill="#39B54A"/>
<path d="M111.796 54.9345L111.51 56.1929H108.317V56.1311H108.394C108.498 56.1312 108.597 56.0906 108.671 56.0182C108.745 55.9458 108.788 55.8472 108.79 55.7437V52.3064C108.783 52.2065 108.739 52.1129 108.666 52.0445C108.592 51.9761 108.496 51.938 108.396 51.9378H108.317V51.8761H110.682C110.931 51.8736 111.179 51.8361 111.417 51.7646V52.843H111.356V52.771C111.361 52.6891 111.35 52.607 111.322 52.5299C111.294 52.4528 111.25 52.3824 111.193 52.3231C111.136 52.2639 111.068 52.2172 110.992 52.186C110.916 52.1548 110.834 52.1397 110.752 52.1418H109.723V53.935H110.531C110.6 53.9351 110.668 53.9213 110.731 53.8946C110.794 53.8679 110.852 53.8288 110.9 53.7796C110.948 53.7304 110.985 53.672 111.01 53.608C111.035 53.5441 111.047 53.4757 111.045 53.407V53.347H111.105V54.7734H111.045V54.7185C111.047 54.6498 111.035 54.5815 111.01 54.5175C110.985 54.4535 110.948 54.3952 110.9 54.3459C110.852 54.2967 110.794 54.2576 110.731 54.2309C110.668 54.2042 110.6 54.1905 110.531 54.1905H109.704V55.9254H110.531C111.148 55.9254 111.548 55.5431 111.731 54.9311L111.796 54.9345Z" fill="#39B54A"/>
<path d="M116.217 53.9792C116.401 54.0763 116.552 54.226 116.651 54.4092C116.749 54.5924 116.791 54.8008 116.771 55.0079C116.733 55.8119 116.128 56.2851 115.142 56.2851C114.588 56.2851 114.07 56.1428 113.845 55.9113C113.742 55.6525 113.83 55.133 113.991 54.8639H114.046C113.996 55.5067 114.468 56.0365 115.209 56.0245C115.745 56.0159 116.066 55.7176 116.066 55.3387C116.066 55.0884 115.918 54.8896 115.572 54.7027L114.499 53.9895C114.299 53.887 114.135 53.7261 114.03 53.5282C113.924 53.3303 113.881 53.1049 113.907 52.882C113.96 52.2443 114.421 51.8037 115.207 51.8037C115.487 51.81 115.767 51.8312 116.045 51.8671H116.433L116.352 52.7723H116.294C116.294 52.3455 115.951 52.0626 115.423 52.0626C114.938 52.0626 114.631 52.3249 114.617 52.6557C114.601 52.8992 114.788 53.0741 115.046 53.2301L116.217 53.9792Z" fill="#39B54A"/>
<path d="M121.899 51.871C122.146 51.8673 122.391 51.8292 122.628 51.7578V52.8327H122.566V52.7607C122.572 52.6777 122.56 52.5943 122.531 52.5162C122.502 52.4381 122.457 52.367 122.399 52.3076C122.34 52.2482 122.27 52.2018 122.193 52.1714C122.115 52.1411 122.032 52.1275 121.949 52.1315H121.12V55.7472C121.124 55.8495 121.167 55.9465 121.241 56.0178C121.314 56.089 121.412 56.1291 121.515 56.1295H121.594V56.1912H119.719V56.1295H119.798C119.9 56.1291 119.998 56.0896 120.071 56.019C120.145 55.9484 120.188 55.8523 120.193 55.7506V52.1298H119.363C119.28 52.126 119.197 52.1398 119.119 52.1703C119.042 52.2007 118.972 52.2471 118.913 52.3065C118.855 52.3659 118.81 52.4369 118.781 52.5148C118.752 52.5928 118.74 52.676 118.745 52.759V52.8327H118.684V51.7578C118.921 51.8295 119.167 51.867 119.414 51.8693L121.899 51.871Z" fill="#39B54A"/>
<path d="M129.394 54.0332C129.394 55.4184 128.422 56.2773 126.906 56.2773C125.39 56.2773 124.419 55.4201 124.419 54.0332C124.419 52.6463 125.39 51.7891 126.906 51.7891C128.422 51.7891 129.394 52.6497 129.394 54.0332ZM128.379 54.0332C128.379 52.8091 127.812 52.0479 126.906 52.0479C126.001 52.0479 125.433 52.8091 125.433 54.0332C125.433 55.2572 126.002 56.0184 126.906 56.0184C127.81 56.0184 128.374 55.259 128.374 54.0332H128.379Z" fill="#39B54A"/>
<path d="M136.255 51.8758V51.9375H136.141C136.043 51.9379 135.948 51.9765 135.877 52.0452C135.806 52.1139 135.764 52.2074 135.761 52.3061V55.4914C135.758 55.7554 135.783 56.019 135.833 56.2783H135.776L132.653 53.3124V55.7588C132.655 55.8581 132.696 55.9527 132.767 56.0223C132.837 56.0919 132.933 56.1309 133.032 56.1308H133.147V56.1926H131.281V56.1308H131.394C131.494 56.1309 131.59 56.0917 131.661 56.0218C131.732 55.9519 131.773 55.8569 131.775 55.7571V52.553C131.778 52.2946 131.753 52.0366 131.703 51.7832H131.765L134.876 54.7491V52.3181C134.874 52.2182 134.834 52.1229 134.762 52.0529C134.691 51.9829 134.595 51.9439 134.495 51.9444H134.382V51.8826L136.255 51.8758Z" fill="#39B54A"/>
<path d="M141.608 54.9345L141.324 56.1929H138.13V56.1311H138.209C138.313 56.1312 138.412 56.0906 138.486 56.0181C138.56 55.9456 138.602 55.8471 138.604 55.7437V52.3064C138.597 52.2065 138.552 52.1129 138.479 52.0445C138.406 51.9761 138.309 51.938 138.209 51.9378H138.141V51.8761H140.507C140.756 51.8738 141.003 51.8363 141.241 51.7646V52.843H141.179V52.771C141.185 52.6892 141.174 52.6071 141.146 52.53C141.118 52.4529 141.075 52.3825 141.018 52.3232C140.961 52.264 140.893 52.2172 140.817 52.186C140.741 52.1547 140.66 52.1397 140.578 52.1418H139.54V53.935H140.358C140.428 53.9362 140.496 53.9233 140.561 53.8971C140.625 53.871 140.684 53.832 140.732 53.7827C140.781 53.7333 140.82 53.6746 140.845 53.6101C140.871 53.5455 140.883 53.4764 140.881 53.407V53.347H140.941V54.7734H140.881V54.7185C140.883 54.6498 140.871 54.5815 140.846 54.5175C140.821 54.4535 140.783 54.3952 140.735 54.3459C140.687 54.2967 140.63 54.2576 140.567 54.2309C140.503 54.2042 140.435 54.1905 140.367 54.1905H139.542V55.9254H140.351C140.967 55.9254 141.366 55.5431 141.552 54.9311L141.608 54.9345Z" fill="#39B54A"/>
<path d="M150.841 54.3928L150.901 55.454C150.625 55.91 150.099 56.2786 149.168 56.2786C147.653 56.2786 146.666 55.4369 146.666 54.0294C146.666 52.6493 147.619 51.7904 149.185 51.7904C149.716 51.7825 150.242 51.8999 150.72 52.1333L150.732 53.1911H150.68C150.455 52.3819 149.926 52.0596 149.246 52.0579C148.269 52.0579 147.67 52.8122 147.67 54.0225C147.67 55.2329 148.25 56.0026 149.168 56.0283C150.116 56.0283 150.598 55.6135 150.79 54.4014L150.841 54.3928Z" fill="#39B54A"/>
<path d="M156.459 54.9344L156.175 56.1928H152.981V56.1311H153.06C153.164 56.1311 153.263 56.0905 153.337 56.018C153.411 55.9455 153.453 55.847 153.455 55.7436V52.3183C153.453 52.2151 153.41 52.1168 153.336 52.0444C153.263 51.972 153.164 51.9313 153.06 51.9309H152.981V51.8691H154.854V51.9309H154.775C154.672 51.9308 154.573 51.9714 154.499 52.0439C154.425 52.1164 154.383 52.2149 154.381 52.3183V55.9185H155.19C155.806 55.9185 156.205 55.5362 156.391 54.9241L156.459 54.9344Z" fill="#39B54A"/>
<path d="M161.764 54.9345L161.477 56.1929H158.284V56.1311H158.361C158.465 56.1312 158.564 56.0906 158.638 56.0182C158.713 55.9458 158.755 55.8472 158.757 55.7437V52.3064C158.751 52.2065 158.706 52.1129 158.633 52.0445C158.56 51.9761 158.463 51.938 158.363 51.9378H158.284V51.8761H160.649C160.898 51.8736 161.146 51.8361 161.385 51.7646V52.843H161.323V52.771C161.329 52.6891 161.317 52.607 161.289 52.5299C161.261 52.4528 161.217 52.3824 161.16 52.3231C161.103 52.2639 161.035 52.2172 160.959 52.186C160.883 52.1548 160.801 52.1397 160.719 52.1418H159.682V53.935H160.5C160.569 53.9351 160.637 53.9213 160.7 53.8946C160.763 53.8679 160.821 53.8288 160.869 53.7796C160.917 53.7304 160.954 53.672 160.979 53.608C161.004 53.5441 161.016 53.4757 161.014 53.407V53.347H161.074V54.7734H161.014V54.7185C161.016 54.6498 161.004 54.5815 160.979 54.5175C160.954 54.4535 160.917 54.3952 160.869 54.3459C160.821 54.2967 160.763 54.2576 160.7 54.2309C160.637 54.2042 160.569 54.1905 160.5 54.1905H159.673V55.9254H160.483C161.1 55.9254 161.5 55.5431 161.683 54.9311L161.764 54.9345Z" fill="#39B54A"/>
<path d="M167.481 55.7729C167.527 55.8751 167.601 55.9626 167.694 56.0258C167.787 56.089 167.895 56.1255 168.008 56.1312H168.059V56.1929H166.094V56.1312H166.149C166.194 56.132 166.24 56.1209 166.28 56.0989C166.321 56.0768 166.354 56.0447 166.378 56.0055C166.403 55.9664 166.416 55.9217 166.417 55.8757C166.419 55.8298 166.408 55.7843 166.387 55.7437L166.083 54.9825H164.636L164.32 55.7437C164.297 55.7838 164.286 55.8294 164.286 55.8756C164.287 55.9219 164.3 55.9672 164.324 56.0067C164.348 56.0463 164.382 56.0787 164.423 56.1006C164.463 56.1224 164.509 56.133 164.555 56.1312H164.61V56.1929H163.288V56.1312H163.343C163.452 56.1252 163.557 56.0902 163.647 56.0299C163.737 55.9696 163.81 55.8862 163.857 55.7883L165.283 52.5653C165.41 52.3069 165.512 52.0364 165.586 51.7578H165.643L167.481 55.7729ZM165.979 54.722L165.375 53.2082L164.744 54.722H165.979Z" fill="#39B54A"/>
<path d="M174.572 51.8758V51.9375H174.457C174.359 51.9379 174.264 51.9765 174.193 52.0452C174.122 52.1139 174.08 52.2074 174.077 52.3061V55.4914C174.075 55.7554 174.099 56.019 174.149 56.2783H174.092L170.976 53.3124V55.7588C170.978 55.8583 171.02 55.9529 171.091 56.0224C171.162 56.0919 171.257 56.1309 171.357 56.1308H171.47V56.1926H169.599V56.1308H169.712C169.812 56.1313 169.908 56.0923 169.98 56.0223C170.051 55.9523 170.092 55.857 170.093 55.7571V52.553C170.095 52.2947 170.072 52.0368 170.023 51.7832H170.083L173.194 54.7491V52.3181C173.192 52.2185 173.152 52.1234 173.081 52.0535C173.01 51.9836 172.914 51.9443 172.815 51.9444H172.7V51.8826L174.572 51.8758Z" fill="#39B54A"/>
<path d="M178.326 56.1932H176.454V56.1315H176.531C176.634 56.1315 176.734 56.091 176.807 56.0185C176.881 55.946 176.923 55.8475 176.925 55.7441V52.3188C176.923 52.216 176.88 52.1183 176.806 52.0466C176.732 51.9749 176.634 51.9347 176.531 51.9348H176.454V51.873H178.326V51.9348H178.247C178.145 51.9347 178.046 51.9749 177.972 52.0466C177.898 52.1183 177.856 52.216 177.853 52.3188V55.7475C177.855 55.8508 177.898 55.949 177.971 56.0214C178.045 56.0938 178.144 56.1345 178.247 56.135H178.326V56.1932Z" fill="#39B54A"/>
<path d="M185.273 51.8758V51.9375H185.16C185.061 51.9375 184.966 51.9759 184.895 52.0447C184.824 52.1135 184.783 52.2072 184.779 52.3061V55.4914C184.777 55.7553 184.801 56.0189 184.85 56.2783H184.786L181.669 53.3124V55.7588C181.671 55.8583 181.712 55.9529 181.783 56.0224C181.854 56.0919 181.95 56.1309 182.049 56.1308H182.164V56.1926H180.295V56.1308H180.408C180.508 56.1309 180.604 56.0917 180.675 56.0218C180.746 55.9519 180.787 55.8569 180.789 55.7571V52.553C180.791 52.2946 180.767 52.0366 180.717 51.7832H180.779L183.889 54.7491V52.3181C183.888 52.2183 183.847 52.1233 183.775 52.0534C183.704 51.9835 183.608 51.9443 183.509 51.9444H183.395V51.8826L185.273 51.8758Z" fill="#39B54A"/>
<path d="M191.85 54.1856C191.651 54.1856 191.538 54.2867 191.543 54.465V55.4937C191.251 55.8674 190.487 56.2874 189.499 56.2874C188.098 56.2874 187.167 55.4302 187.167 54.0364C187.167 52.6427 188.079 51.7992 189.535 51.7992C190.12 51.7916 190.7 51.9084 191.236 52.1421L191.248 53.1998H191.197C190.963 52.3615 190.379 52.0666 189.722 52.0666C188.712 52.0666 188.178 52.8278 188.178 54.081C188.178 55.2811 188.677 56.0354 189.586 56.0371C190.041 56.0371 190.487 55.8177 190.632 55.4268V54.4839C190.632 54.3124 190.514 54.2027 190.315 54.2027H190.217V54.141H191.949V54.2027L191.85 54.1856Z" fill="#39B54A"/>
</svg>
