<svg width="209" height="60" viewBox="0 0 209 60" fill="none" xmlns="http://www.w3.org/2000/svg">
<path d="M199.648 47.6804C196.672 47.6804 194.396 46.5051 192.819 44.1544C191.242 41.7739 190.453 38.6198 190.453 34.6921C190.453 30.7049 191.257 27.5359 192.863 25.1852C194.47 22.8345 196.806 21.6592 199.871 21.6592C202.787 21.6592 205.018 22.8345 206.566 25.1852C208.113 27.5359 208.887 30.7049 208.887 34.6921C208.887 34.9302 208.842 35.1087 208.753 35.2277C208.664 35.317 208.619 35.3765 208.619 35.4062H196.702C196.702 37.3404 196.955 39.1108 197.461 40.7176C197.966 42.2947 198.74 43.0832 199.781 43.0832C200.942 43.0832 201.805 42.4137 202.37 41.0747C202.936 39.7357 203.233 39.0364 203.263 38.9769L207.994 40.7623C207.369 42.9047 206.372 44.6007 205.004 45.8505C203.635 47.0704 201.85 47.6804 199.648 47.6804ZM202.727 31.7909C202.727 30.0056 202.489 28.5922 202.013 27.5508C201.537 26.5093 200.793 25.9886 199.781 25.9886C199.276 25.9886 198.785 26.2415 198.309 26.7474C197.833 27.2532 197.446 27.9525 197.148 28.8451C196.851 29.7378 196.702 30.7197 196.702 31.7909H202.727Z" fill="#4389DF"/>
<path d="M179.019 47.6804C176.55 47.6804 174.556 47.1299 173.039 46.029C171.521 44.8983 170.539 43.3361 170.093 41.3425L174.958 39.7357C175.077 40.301 175.3 40.8069 175.627 41.2532C176.312 42.2352 177.308 42.7261 178.618 42.7261C179.362 42.7261 180.076 42.5625 180.76 42.2352C181.445 41.9078 181.787 41.402 181.787 40.7176C181.787 39.7952 181.147 39.0811 179.867 38.5752L174.601 36.4328C173.202 35.8377 172.131 34.945 171.387 33.7548C170.643 32.5646 170.271 31.1066 170.271 29.3807C170.271 27.7739 170.658 26.3903 171.432 25.2298C172.235 24.0694 173.277 23.1916 174.556 22.5965C175.865 21.9716 177.264 21.6592 178.752 21.6592C180.626 21.6592 182.352 22.2097 183.929 23.3106C185.506 24.3818 186.562 25.8547 187.098 27.7293L181.921 29.3361C181.802 28.8303 181.593 28.3244 181.296 27.8186C180.641 26.8069 179.808 26.301 178.796 26.301C178.052 26.301 177.413 26.4796 176.877 26.8366C176.341 27.164 176.074 27.6549 176.074 28.3095C176.074 29.0832 176.803 29.7973 178.261 30.4519L182.724 32.2819C184.301 33.0258 185.536 33.9631 186.429 35.0938C187.321 36.2245 187.768 37.7421 187.768 39.6464C187.768 41.3722 187.351 42.8451 186.518 44.0651C185.685 45.2553 184.599 46.1629 183.26 46.7877C181.921 47.3829 180.507 47.6804 179.019 47.6804Z" fill="#4389DF"/>
<path d="M152.861 47.6805C151.225 47.6805 149.886 47.1151 148.844 45.9844C147.803 44.8239 147.282 43.2767 147.282 41.3425V22.5073L153.531 21.9717V38.7984C153.531 39.9887 153.724 40.8516 154.111 41.3872C154.498 41.893 155.093 42.1459 155.896 42.1459C156.521 42.1459 157.191 41.9972 157.905 41.6996C158.619 41.3723 159.259 40.8665 159.824 40.1821V22.5073L166.118 21.9717V46.8324L159.824 47.368V44.1544C158.783 45.3447 157.637 46.2373 156.387 46.8324C155.167 47.3978 153.992 47.6805 152.861 47.6805Z" fill="#4389DF"/>
<path d="M135.352 47.6804C133.447 47.6804 131.811 47.0853 130.442 45.8951C129.103 44.7049 128.091 43.1278 127.407 41.1639C126.723 39.2001 126.38 37.0726 126.38 34.7814C126.38 32.52 126.708 30.3924 127.362 28.3988C128.047 26.4052 129.073 24.7835 130.442 23.5338C131.811 22.284 133.492 21.6592 135.486 21.6592C137.003 21.6592 138.357 22.046 139.547 22.8196C140.767 23.5635 141.719 24.6199 142.404 25.9886C143.088 27.3574 143.46 28.9195 143.52 30.6751L137.583 30.9429C137.583 30.8239 137.524 30.3478 137.405 29.5146C137.316 28.6815 137.092 27.9971 136.735 27.4615C136.408 26.9259 135.977 26.6581 135.441 26.6581C134.251 26.6581 133.492 27.4764 133.165 29.1129C132.837 30.7197 132.674 32.5348 132.674 34.5582C132.674 36.5518 132.837 38.3669 133.165 40.0035C133.522 41.6103 134.34 42.4137 135.619 42.4137C137.226 42.4137 138.059 40.8366 138.119 37.6826L143.386 38.2628C142.999 41.3574 142.225 43.7081 141.065 45.3149C139.904 46.8919 138 47.6804 135.352 47.6804Z" fill="#4389DF"/>
<path d="M114.566 47.6804C111.59 47.6804 109.314 46.5051 107.737 44.1544C106.16 41.7739 105.371 38.6198 105.371 34.6921C105.371 30.7049 106.174 27.5359 107.781 25.1852C109.388 22.8345 111.724 21.6592 114.789 21.6592C117.705 21.6592 119.936 22.8345 121.484 25.1852C123.031 27.5359 123.805 30.7049 123.805 34.6921C123.805 34.9302 123.76 35.1087 123.671 35.2277C123.581 35.317 123.537 35.3765 123.537 35.4062H111.62C111.62 37.3404 111.873 39.1108 112.379 40.7176C112.884 42.2947 113.658 43.0832 114.699 43.0832C115.86 43.0832 116.723 42.4137 117.288 41.0747C117.854 39.7357 118.151 39.0364 118.181 38.9769L122.912 40.7623C122.287 42.9047 121.29 44.6007 119.922 45.8505C118.553 47.0704 116.767 47.6804 114.566 47.6804ZM117.645 31.7909C117.645 30.0056 117.407 28.5922 116.931 27.5508C116.455 26.5093 115.711 25.9886 114.699 25.9886C114.194 25.9886 113.703 26.2415 113.227 26.7474C112.75 27.2532 112.364 27.9525 112.066 28.8451C111.769 29.7378 111.62 30.7197 111.62 31.7909H117.645Z" fill="#4389DF"/>
<path d="M92.0167 47.7247C89.309 47.7247 87.0178 46.9809 85.1432 45.4931C83.2983 43.9755 81.9445 41.9522 81.0815 39.4229L86.6161 36.8342L87.1517 37.7269C88.0146 39.2146 88.8329 40.3751 89.6065 41.2083C90.4099 42.0414 91.4067 42.458 92.5969 42.458C93.3706 42.458 94.055 42.0861 94.6501 41.3422C95.2749 40.5983 95.5874 39.78 95.5874 38.8873C95.5874 38.0542 95.3791 37.2954 94.9625 36.611C94.5459 35.9267 94.0103 35.3762 93.3557 34.9596L87.5087 31.4782C85.8127 30.526 84.4588 29.3209 83.4471 27.8629C82.4354 26.4049 81.9296 24.7683 81.9296 22.9532C81.9296 21.0191 82.3759 19.2933 83.2686 17.7758C84.191 16.2582 85.4259 15.0829 86.9731 14.2497C88.5502 13.4166 90.3206 13 92.2845 13C94.5757 13 96.5247 13.5654 98.1315 14.6961C99.7383 15.8268 100.929 17.508 101.702 19.7396L96.1676 22.2391C96.0486 22.0011 95.7957 21.4655 95.4088 20.6323C95.022 19.7991 94.5459 19.204 93.9806 18.847C93.445 18.4601 92.7755 18.2667 91.9721 18.2667C90.9901 18.2667 90.2314 18.5792 89.6958 19.204C89.1899 19.8289 88.937 20.6323 88.937 21.6142C88.937 22.3284 89.1304 22.983 89.5172 23.5781C89.9338 24.1435 90.4248 24.5898 90.9901 24.9171L96.3908 28.0861C100.378 30.3475 102.476 33.323 102.684 37.0127C102.684 39.1254 102.208 41 101.256 42.6365C100.333 44.2433 99.0539 45.4931 97.4173 46.3857C95.8105 47.2784 94.0103 47.7247 92.0167 47.7247Z" fill="#4389DF"/>
<rect y="32" width="30" height="20" rx="4" fill="#FFC101"/>
<rect x="34" y="32" width="30" height="20" rx="4" fill="#4389DF"/>
<rect x="17" y="8" width="30" height="20" rx="4" fill="#D63305"/>
</svg>
